<?xml version="1.0" encoding="UTF-8" standalone="no"?><svg xmlns="http://www.w3.org/2000/svg" viewBox="0 0 52 53"><defs><style>.cls-1{fill:#cce1f4;}.cls-2,.cls-3{fill:#749ecf;}.cls-3,.cls-4{fill-rule:evenodd;}.cls-4{fill:#3970b8;}</style></defs><title>1assetbacked3</title><g id="Ebene_2" data-name="Ebene 2"><g id="Layer_1" data-name="Layer 1"><g id="_1" data-name="1"><path class="cls-1" d="M38,14.59,23.41,0H0V49H38Z"/><path class="cls-2" d="M23.5,0V14.5H38Z"/><path class="cls-3" d="M30,21H7a1,1,0,0,1,0-2H30a1,1,0,0,1,0,2ZM15,15H7a1,1,0,0,1,0-2h8a1,1,0,0,1,0,2ZM7,25H26a1,1,0,0,1,0,2H7a1,1,0,0,1,0-2Zm0,6H22a1,1,0,0,1,0,2H7a1,1,0,0,1,0-2Zm0,6H19a1,1,0,0,1,0,2H7a1,1,0,0,1,0-2Z"/><path class="cls-4" d="M39,27A13,13,0,1,1,26,40,13,13,0,0,1,39,27Z"/><path class="cls-1" d="M44.18,34.43l-5.6,8-3.95-3.24a1,1,0,0,0-1.27,1.55l4.79,3.93a1,1,0,0,0,.63.23h.14a1,1,0,0,0,.68-.42l6.21-8.93a1,1,0,0,0-1.64-1.14Z"/></g></g></g></svg>