<?xml version="1.0" encoding="UTF-8" standalone="no"?><svg xmlns="http://www.w3.org/2000/svg" viewBox="0 0 52 52"><defs><style>.cls-1{fill:#cce1f4;}.cls-1,.cls-2,.cls-3,.cls-4{fill-rule:evenodd;}.cls-2{fill:#b2cdec;}.cls-3{fill:#3970b8;}.cls-4{fill:#749ecf;}</style></defs><title>secure</title><g id="Ebene_2" data-name="Ebene 2"><g id="Layer_1" data-name="Layer 1"><g id="_3" data-name="3"><path class="cls-1" d="M50,48H46v2.5A1.5,1.5,0,0,1,44.5,52h-3A1.5,1.5,0,0,1,40,50.5V48H12v2.5A1.5,1.5,0,0,1,10.5,52h-3A1.5,1.5,0,0,1,6,50.5V48H2a2,2,0,0,1-2-2V2A2,2,0,0,1,2,0H50a2,2,0,0,1,2,2V46A2,2,0,0,1,50,48Z"/><path class="cls-2" d="M8,6H44a2,2,0,0,1,2,2V40a2,2,0,0,1-2,2H8a2,2,0,0,1-2-2V8A2,2,0,0,1,8,6Z"/><path class="cls-3" d="M36.5,25H34.94A9,9,0,0,1,33,29.61l1.1,1.1a.5.5,0,0,1,0,.71l-.71.71a.5.5,0,0,1-.71,0L31.61,31A9,9,0,0,1,27,32.94V34.5a.5.5,0,0,1-.5.5h-1a.5.5,0,0,1-.5-.5V32.94A9,9,0,0,1,20.39,31l-1.1,1.1a.5.5,0,0,1-.71,0l-.71-.71a.5.5,0,0,1,0-.71l1.1-1.1A9,9,0,0,1,17.06,25H15.5a.5.5,0,0,1-.5-.5v-1a.5.5,0,0,1,.5-.5h1.56A9,9,0,0,1,19,18.39l-1.1-1.1a.5.5,0,0,1,0-.71l.71-.71a.5.5,0,0,1,.71,0l1.1,1.1A9,9,0,0,1,25,15.06V13.5a.5.5,0,0,1,.5-.5h1a.5.5,0,0,1,.5.5v1.56A9,9,0,0,1,31.61,17l1.1-1.1a.5.5,0,0,1,.71,0l.71.71a.5.5,0,0,1,0,.71L33,18.39A9,9,0,0,1,34.94,23H36.5a.5.5,0,0,1,.5.5v1A.5.5,0,0,1,36.5,25ZM26,22a2,2,0,1,0,2,2A2,2,0,0,0,26,22Z"/><path class="cls-4" d="M9,25H5a1,1,0,0,1,0-2H9a1,1,0,0,1,0,2ZM9,14H5a1,1,0,0,1,0-2H9a1,1,0,0,1,0,2ZM5,34H9a1,1,0,0,1,0,2H5a1,1,0,0,1,0-2Z"/></g></g></g></svg>