<?xml version="1.0" encoding="UTF-8" standalone="no"?><svg xmlns="http://www.w3.org/2000/svg" viewBox="0 0 66.18 47.52"><defs><style>.cls-1{fill:#9fbde0;}.cls-2{fill:#cce1f4;}.cls-2,.cls-3{fill-rule:evenodd;}.cls-3{fill:#3970b8;}</style></defs><title>transparent</title><g id="Ebene_2" data-name="Ebene 2"><g id="Layer_1" data-name="Layer 1"><g id="_2" data-name="2"><path class="cls-1" d="M43.27,9A9.49,9.49,0,0,0,47,7.74l4.65-4L62.83,19.78s-5.09,1.84-7.44,4a35.76,35.76,0,0,0-6.51,9c-1-1-3.64-3.82-4.77-3a3.37,3.37,0,0,0-.7,4.46l0,.14h-.06a2.66,2.66,0,0,0-3.2-.05l-.06.06A3,3,0,0,0,39,37.4l-.32.25a2.56,2.56,0,0,0-2.86.16,3.13,3.13,0,0,0-1.16,2.67l-.87.6c-2.84.63-2.6,3.8-2.6,3.8-.26.25-1.56-.46-1.92-.54a1.57,1.57,0,0,1-.94-.64,1.42,1.42,0,0,1-.25-1.12,1.72,1.72,0,0,1,.6-1l4.73-3.83a.94.94,0,0,0,.4-.76c.24-.58-.54-.34-.76-.12l-6.51,5c-1.18,1.11-2.75.53-3.29.44A1.84,1.84,0,0,1,22,41.44a2.17,2.17,0,0,1,.45-2.9l9-6.92c1.33-1.29-.44-.65-.23-.8S24.37,36.18,21.28,38a2.83,2.83,0,0,1-1.81.17,2.78,2.78,0,0,1-1.91-.95,2.28,2.28,0,0,1,.26-2.79l.88-.66,9.8-7.2a.94.94,0,0,0,.4-.76c.07-.74-.73-.43-1.37,0l-11.15,8a2.76,2.76,0,0,1-3.4-.7,2.17,2.17,0,0,1,.45-2.9L33.19,14.54c.66-.59,1.62-2.61,1.75-5.53Z"/><path class="cls-2" d="M49.62,38.45a2.8,2.8,0,0,1-2.73.34l-4-6a3.36,3.36,0,0,1,1.22-2.94,2.83,2.83,0,0,1,3.68.28l1.12,1.7L50.33,34A3.37,3.37,0,0,1,49.62,38.45ZM41.78,23.38c-1.47.79-3.89.74-5.83-5.82a10.12,10.12,0,0,0-2.76-3L13.41,30.22,12.91,28a9.45,9.45,0,0,0-3.8-4.3L8,23,2.42,18.78l13.94-13L18.8,7.06a6.22,6.22,0,0,0,4.48.43,17.88,17.88,0,0,1,4.25-.32,16.11,16.11,0,0,1,4.38.29c.18.07.65.22,1.25.46l4,2.09c1.94,1.09,3.69,2.42,4.23,3.69a49.9,49.9,0,0,0,1.22,7.43A1.92,1.92,0,0,1,41.78,23.38ZM33.72,41.05l2.8,4.2a2.82,2.82,0,0,1-1,1.78A2.46,2.46,0,0,1,32,46.37l-.45-.67h-.06a4.71,4.71,0,0,1-.68-1.94,2.9,2.9,0,0,1,1.08-2.28A2.35,2.35,0,0,1,33.72,41.05Zm.8-.46.18-.12a3.13,3.13,0,0,1,1.16-2.67,2.52,2.52,0,0,1,2.19-.43l3.47,5.2A2.85,2.85,0,0,1,39.88,45a2.59,2.59,0,0,1-2.6-.32Zm5.62-6.13.06-.06A2.62,2.62,0,0,1,42.61,34l3.62,5.44a3,3,0,0,1-1.14,2.45L45,42a2.58,2.58,0,0,1-2.62.27L39,37.17A3,3,0,0,1,40.14,34.46Z"/><path class="cls-3" d="M65.52,20.46,62.67,23A1.77,1.77,0,0,1,60,22.79L46.91,5.88A2.12,2.12,0,0,1,47.14,3L50,.47A1.77,1.77,0,0,1,52.6.72L65.75,17.63A2.12,2.12,0,0,1,65.52,20.46ZM6.13,22.79A1.77,1.77,0,0,1,3.51,23L.66,20.46a2.12,2.12,0,0,1-.23-2.83L13.58.72A1.77,1.77,0,0,1,16.2.47L19,3a2.12,2.12,0,0,1,.23,2.83Z"/></g></g></g></svg>