<?xml version="1.0" encoding="UTF-8"?>
<svg width="52px" height="60px" viewBox="0 0 52 60" version="1.1" xmlns="http://www.w3.org/2000/svg" xmlns:xlink="http://www.w3.org/1999/xlink">
    <g id="Master" stroke="none" stroke-width="1" fill="none" fill-rule="evenodd">
        <g id="Group-38-Copy-2" transform="translate(-1.000000, -4.581802)">
            <rect id="Rectangle-29-Copy-5" x="1" y="0" width="70" height="70"></rect>
            <g id="_x39__2_" transform="translate(1.000000, 5.000000)">
                <path d="M26.1272129,8.25725058 C40.246002,8.25725058 51.6914974,19.702746 51.6914974,33.8215351 C51.6914974,47.9403243 40.246002,59.3858197 26.1272129,59.3858197 C12.0084237,59.3858197 0.562928292,47.9403243 0.562928292,33.8215351 C0.562928292,19.702746 12.0084237,8.25725058 26.1272129,8.25725058 Z" id="Shape" fill-opacity="0.970000029" fill="#CCE1F4"></path>
                <path d="M25.59895,15.4758991 L26.700359,15.4758991 C27.004348,15.4758991 27.2510636,15.7294748 27.2510636,16.0419162 L27.2510636,55.6631194 C27.2510636,55.9755609 27.004348,56.2291366 26.700359,56.2291366 L25.59895,56.2291366 C25.2949611,56.2291366 25.0482454,55.9755609 25.0482454,55.6631194 L25.0482454,16.0419162 C25.0482454,15.7283427 25.2949611,15.4758991 25.59895,15.4758991 Z" id="Shape" fill="#5387CE"></path>
                <path d="M26.1496545,0.0572732724 C31.6247591,0.0572732724 36.0623363,4.49485048 36.0623363,9.96995504 C36.0623363,15.4450596 31.6247591,19.8826368 26.1496545,19.8826368 C20.6745499,19.8826368 16.2369727,15.4450596 16.2369727,9.96995504 C16.2369727,4.49485048 20.6756513,0.0572732724 26.1496545,0.0572732724 Z" id="Shape" fill="#1658BD"></path>
                <path d="M29.4538818,11.6881532 C29.4538818,12.7466073 28.7159377,13.8557263 27.2510636,14.2313068 L27.2510636,16.027705 C27.2510636,16.3316939 27.004348,16.5784096 26.700359,16.5784096 L25.59895,16.5784096 C25.2949611,16.5784096 25.0482454,16.3316939 25.0482454,16.027705 L25.0482454,14.3755914 L22.8454272,14.3755914 L22.8454272,5.5643187 L25.0482454,5.5643187 L25.0482454,3.91220507 C25.0482454,3.60821616 25.2949611,3.36150053 25.59895,3.36150053 L26.700359,3.36150053 C27.004348,3.36150053 27.2510636,3.60821616 27.2510636,3.91220507 L27.2510636,5.77138361 C28.318329,6.1458627 28.8128617,6.97412233 28.8128617,7.79687491 C28.8128617,8.46543023 28.463715,9.17363627 27.7676244,9.54811536 L27.7676244,9.57454918 C28.8822504,9.8686254 29.4538818,10.7244203 29.4538818,11.6881532 Z M25.5637049,7.23515628 L24.9777552,7.23515628 L24.9777552,9.09323341 L25.6187753,9.09323341 C26.3578208,9.09323341 26.7345027,8.66588668 26.7345027,8.18457091 C26.7356041,7.66250301 26.3589222,7.23515628 25.5637049,7.23515628 Z M26.0527305,10.7519555 L24.9788566,10.7519555 L24.9788566,12.7179707 L25.8577811,12.7179707 C26.8754831,12.7179707 27.3215538,12.3842438 27.3215538,11.6749363 C27.3204524,11.0856824 26.8468465,10.7519555 26.0527305,10.7519555 Z" id="Shape" fill="#CCE1F4"></path>
                <path d="M35.6471466,28.6678678 C33.7867067,31.8333945 29.8465559,33.6634477 25.7611213,33.617994 L25.7611213,31.2565652 C28.9788887,31.279292 31.9760399,29.9145983 33.7893971,26.7642228 L34.9395606,24.8075485 L37.3717193,25.7328563 L35.6471466,28.6678678 Z" id="Shape" fill="#5387CE"></path>
                <path d="M39.3665635,16.5784096 C43.624611,16.5784096 47.0764271,20.0302256 47.0764271,24.2882731 C47.0764271,28.5463207 43.624611,31.9981367 39.3665635,31.9981367 C35.108516,31.9981367 31.6566999,28.5463207 31.6566999,24.2882731 C31.6566999,20.0302256 35.108516,16.5784096 39.3665635,16.5784096 Z" id="Shape" fill="#5387CE"></path>
                <path d="M42.6707908,26.0053699 C42.6707908,27.063824 41.9328467,28.172943 40.4679726,28.5485235 L40.4679726,29.2435126 C40.4679726,29.5475015 40.221257,29.7942172 39.9172681,29.7942172 L38.815859,29.7942172 C38.5118701,29.7942172 38.2651544,29.5475015 38.2651544,29.2435126 L38.2651544,28.6928081 L36.0623363,28.6928081 L36.0623363,19.8815354 L38.2651544,19.8815354 L38.2651544,19.3308309 C38.2651544,19.0268419 38.5118701,18.7801263 38.815859,18.7801263 L39.9172681,18.7801263 C40.221257,18.7801263 40.4679726,19.0268419 40.4679726,19.3308309 L40.4679726,20.0886003 C41.535238,20.4630794 42.0297707,21.291339 42.0297707,22.1140916 C42.0297707,22.7826469 41.6817254,23.490853 40.9845335,23.8653321 L40.9845335,23.8917659 C42.0991595,24.1869435 42.6707908,25.0427384 42.6707908,26.0053699 Z M38.7817153,21.5534744 L38.1957657,21.5534744 L38.1957657,23.4115515 L38.8367858,23.4115515 C39.5758313,23.4115515 39.9525132,22.9842048 39.9525132,22.5017876 C39.9525132,21.9808211 39.5758313,21.5534744 38.7817153,21.5534744 Z M39.2696395,25.0702736 L38.1957657,25.0702736 L38.1957657,27.0362888 L39.0746901,27.0362888 C40.0923921,27.0362888 40.5384628,26.7025619 40.5384628,25.9932544 C40.5373614,25.4040006 40.0637555,25.0702736 39.2696395,25.0702736 Z" id="Shape" fill="#CCE1F4"></path>
                <path d="M40.4679726,38.6065913 C40.4679726,38.6065913 37.6913203,39.2057578 36.3729336,39.2376987 C34.914668,39.2740452 33.3793037,39.3114931 33.3793037,39.3114931 C31.4573449,39.3588537 29.608079,40.5913304 29.2490197,42.0650158 L27.252165,47.4178639 C27.252165,47.4178639 28.9285096,46.3153534 29.850389,46.2933253 C31.49259,46.2525731 33.775811,46.1964013 33.775811,46.1964013 C35.6977699,46.1490407 37.5470357,44.9165639 37.9060951,43.4428786 L40.4679726,38.6065913 Z" id="Shape" fill="#5387CE"></path>
                <path d="M6.32429097,26.4910913 C6.32429097,26.4910913 10.2585242,27.3887397 12.1254126,27.4383031 C14.1916561,27.4922722 16.366939,27.5495454 16.366939,27.5495454 C19.0896223,27.621137 21.7087731,29.4693015 22.2176241,31.6798295 L25.047144,39.7091018 C25.047144,39.7091018 22.672506,38.0558867 21.3662348,38.021743 C19.0400589,37.9611655 15.8052204,37.876357 15.8052204,37.876357 C13.0825371,37.8058669 10.4633863,35.956601 9.9534339,33.746073 L6.32429097,26.4910913 Z" id="Shape" fill="#5387CE"></path>
            </g>
        </g>
    </g>
</svg>