<?xml version="1.0" encoding="UTF-8"?>
<svg width="63px" height="62px" viewBox="0 0 63 62" version="1.1" xmlns="http://www.w3.org/2000/svg" xmlns:xlink="http://www.w3.org/1999/xlink">
    <g id="Master" stroke="none" stroke-width="1" fill="none" fill-rule="evenodd">
        <g id="Group-33-Copy-2" transform="translate(0.000000, -3.581802)">
            <rect id="Rectangle-29" x="0" y="0" width="70" height="70"></rect>
            <g id="_x34__2_" transform="translate(0.000000, 3.581802)">
                <path d="M31.2148421,7.79431579 C44.0336842,7.79431579 54.4253684,18.186 54.4253684,31.0048421 C54.4253684,43.8236842 44.0336842,54.2153684 31.2148421,54.2153684 C18.396,54.2153684 8.00431579,43.8236842 8.00431579,31.0048421 C8.00431579,18.186 18.396,7.79431579 31.2148421,7.79431579 Z" id="Shape" fill="#CCE1F4"></path>
                <path d="M16.8464211,24.3732632 L31.2148421,15.5311579 L45.5832632,24.3732632 L16.8464211,24.3732632 Z M24.5832632,25.4785263 L24.5832632,36.5311579 L20.1622105,36.5311579 L20.1622105,25.4785263 L24.5832632,25.4785263 Z M33.4253684,25.4785263 L33.4253684,36.5311579 L29.0043158,36.5311579 L29.0043158,25.4785263 L33.4253684,25.4785263 Z M42.2674737,25.4785263 L42.2674737,36.5311579 L37.8464211,36.5311579 L37.8464211,25.4785263 L42.2674737,25.4785263 Z M43.3727368,39.8469474 L19.0569474,39.8469474 L19.0569474,37.6364211 L43.3727368,37.6364211 L43.3727368,39.8469474 L43.3727368,39.8469474 Z M44.478,43.1627368 L17.9516842,43.1627368 L17.9516842,40.8914211 L44.478,40.8914211 L44.478,43.1627368 L44.478,43.1627368 Z" id="Shape" fill="#749ECF"></path>
                <path d="M31.2148421,61.9522105 C14.1230526,61.9522105 0.267473684,48.0966316 0.267473684,31.0048421 C0.267473684,13.9130526 14.1230526,0.0574736842 31.2148421,0.0574736842 C48.3066316,0.0574736842 62.1622105,13.9130526 62.1622105,31.0048421 C62.1622105,48.0966316 48.3066316,61.9522105 31.2148421,61.9522105 Z M2.478,31.0048421 C2.478,38.5427368 5.40363158,45.381 10.1507368,50.5061053 L50.7161053,9.94073684 C45.591,5.19363158 38.7527368,2.268 31.2148421,2.268 C15.3443684,2.268 2.478,15.1332632 2.478,31.0048421 Z M52.2789474,11.5035789 L11.7135789,52.0689474 C16.8386842,56.8160526 23.6769474,59.7416842 31.2148421,59.7416842 C47.0853158,59.7416842 59.9516842,46.8753158 59.9516842,31.0048421 C59.9516842,23.4669474 57.0271579,16.6286842 52.2789474,11.5035789 Z" id="Shape" fill="#1658BD"></path>
            </g>
        </g>
    </g>
</svg>