<?xml version="1.0" encoding="UTF-8"?>
<svg width="57px" height="53px" viewBox="0 0 57 53" version="1.1" xmlns="http://www.w3.org/2000/svg" xmlns:xlink="http://www.w3.org/1999/xlink">
    <g id="Master" stroke="none" stroke-width="1" fill="none" fill-rule="evenodd">
        <g id="Group-35-Copy-2" transform="translate(0.000000, -8.000000)">
            <rect id="Rectangle-29-Copy-2" x="0" y="0" width="70" height="70"></rect>
            <g id="_x36__1_" transform="translate(0.000000, 8.581802)">
                <path d="M4.46277699,0.0671186525 L51.9489299,0.0671186525 C54.3329507,0.0671186525 56.2658529,2.16844877 56.2658529,4.76026136 L56.2658529,47.0024179 C56.2658529,49.5942305 54.3329507,51.6955606 51.9489299,51.6955606 L4.46277699,51.6955606 C2.07875627,51.6955606 0.145853995,49.5942305 0.145853995,47.0024179 L0.145853995,4.76026136 C0.145853995,2.16844877 2.07875627,0.0671186525 4.46277699,0.0671186525 Z" id="Shape" fill="#CCE1F4"></path>
                <path d="M56.2658529,46.5338781 L51.385853,46.5338781 L51.385853,51.0514797 C51.385853,51.4077249 51.112573,51.6968514 50.775853,51.6968514 L49.5558531,51.6968514 C49.2191331,51.6968514 48.9458531,51.4077249 48.9458531,51.0514797 L48.9458531,46.5338781 L44.0658532,46.5338781 L44.0658532,51.0514797 C44.0658532,51.4077249 43.7925732,51.6968514 43.4558532,51.6968514 L42.2358532,51.6968514 C41.8991332,51.6968514 41.6258532,51.4077249 41.6258532,51.0514797 L41.6258532,46.5338781 L36.7458533,46.5338781 L36.7458533,51.0514797 C36.7458533,51.4077249 36.4725733,51.6968514 36.1358533,51.6968514 L34.9158533,51.6968514 C34.5791333,51.6968514 34.3058533,51.4077249 34.3058533,51.0514797 L34.3058533,46.5338781 L29.4258534,46.5338781 L29.4258534,51.0514797 C29.4258534,51.4077249 29.1525734,51.6968514 28.8158534,51.6968514 L27.5958535,51.6968514 C27.2591335,51.6968514 26.9858535,51.4077249 26.9858535,51.0514797 L26.9858535,46.5338781 L22.1058536,46.5338781 L22.1058536,51.0514797 C22.1058536,51.4077249 21.8325736,51.6968514 21.4958536,51.6968514 L20.2758536,51.6968514 C19.9391336,51.6968514 19.6658536,51.4077249 19.6658536,51.0514797 L19.6658536,46.5338781 L14.7858537,46.5338781 L14.7858537,51.0514797 C14.7858537,51.4077249 14.5125737,51.6968514 14.1758537,51.6968514 L12.9558538,51.6968514 C12.6191338,51.6968514 12.3458538,51.4077249 12.3458538,51.0514797 L12.3458538,46.5338781 L7.46585386,46.5338781 L7.46585386,51.0514797 C7.46585386,51.4077249 7.19257386,51.6968514 6.85585387,51.6968514 L5.63585389,51.6968514 C5.2991339,51.6968514 5.0258539,51.4077249 5.0258539,51.0514797 L5.0258539,46.5338781 L0.755853983,46.5338781 C0.41913399,46.5338781 0.145853995,46.2447516 0.145853995,45.8885064 L0.145853995,44.5977631 C0.145853995,44.241518 0.41913399,43.9523915 0.755853983,43.9523915 L5.0258539,43.9523915 L5.0258539,38.7894182 L0.755853983,38.7894182 C0.41913399,38.7894182 0.145853995,38.5002917 0.145853995,38.1440465 L0.145853995,36.8533032 C0.145853995,36.4970581 0.41913399,36.2079316 0.755853983,36.2079316 L5.0258539,36.2079316 L5.0258539,31.0449583 L0.755853983,31.0449583 C0.41913399,31.0449583 0.145853995,30.7558318 0.145853995,30.3995866 L0.145853995,29.1088433 C0.145853995,28.7525982 0.41913399,28.4634716 0.755853983,28.4634716 L5.0258539,28.4634716 L5.0258539,23.3004984 L0.755853983,23.3004984 C0.41913399,23.3004984 0.145853995,23.0113719 0.145853995,22.6551267 L0.145853995,21.3643834 C0.145853995,21.0081382 0.41913399,20.7190117 0.755853983,20.7190117 L5.0258539,20.7190117 L5.0258539,15.5560385 L0.755853983,15.5560385 C0.41913399,15.5560385 0.145853995,15.266912 0.145853995,14.9106668 L0.145853995,13.6199235 C0.145853995,13.2636783 0.41913399,12.9745518 0.755853983,12.9745518 L5.0258539,12.9745518 L5.0258539,7.81157856 L0.755853983,7.81157856 C0.41913399,7.81157856 0.145853995,7.52245206 0.145853995,7.1662069 L0.145853995,5.87546358 C0.145853995,5.51921843 0.41913399,5.23009192 0.755853983,5.23009192 L5.0258539,5.23009192 L5.0258539,0.712490311 C5.0258539,0.356245156 5.2991339,0.0671186525 5.63585389,0.0671186525 L6.85585387,0.0671186525 C7.19257386,0.0671186525 7.46585386,0.356245156 7.46585386,0.712490311 L7.46585386,5.23009192 L12.3458538,5.23009192 L12.3458538,0.712490311 C12.3458538,0.356245156 12.6191338,0.0671186525 12.9558538,0.0671186525 L14.1758537,0.0671186525 C14.5125737,0.0671186525 14.7858537,0.356245156 14.7858537,0.712490311 L14.7858537,5.23009192 L19.6658536,5.23009192 L19.6658536,0.712490311 C19.6658536,0.356245156 19.9391336,0.0671186525 20.2758536,0.0671186525 L21.4958536,0.0671186525 C21.8325736,0.0671186525 22.1058536,0.356245156 22.1058536,0.712490311 L22.1058536,5.23009192 L26.9858535,5.23009192 L26.9858535,0.712490311 C26.9858535,0.356245156 27.2591335,0.0671186525 27.5958535,0.0671186525 L28.8158534,0.0671186525 C29.1525734,0.0671186525 29.4258534,0.356245156 29.4258534,0.712490311 L29.4258534,5.23009192 L34.3058533,5.23009192 L34.3058533,0.712490311 C34.3058533,0.356245156 34.5791333,0.0671186525 34.9158533,0.0671186525 L36.1358533,0.0671186525 C36.4725733,0.0671186525 36.7458533,0.356245156 36.7458533,0.712490311 L36.7458533,5.23009192 L41.6258532,5.23009192 L41.6258532,0.712490311 C41.6258532,0.356245156 41.8991332,0.0671186525 42.2358532,0.0671186525 L43.4558532,0.0671186525 C43.7925732,0.0671186525 44.0658532,0.356245156 44.0658532,0.712490311 L44.0658532,5.23009192 L48.9458531,5.23009192 L48.9458531,0.712490311 C48.9458531,0.356245156 49.2191331,0.0671186525 49.5558531,0.0671186525 L50.775853,0.0671186525 C51.112573,0.0671186525 51.385853,0.356245156 51.385853,0.712490311 L51.385853,5.23009192 L56.2658529,5.23009192 L56.2658529,46.5338781 Z M51.385853,43.9523915 L56.2658529,43.9523915 L56.2658529,38.7894182 L51.385853,38.7894182 L51.385853,43.9523915 Z M51.385853,36.2079316 L56.2658529,36.2079316 L56.2658529,31.0449583 L51.385853,31.0449583 L51.385853,36.2079316 Z M51.385853,28.4634716 L56.2658529,28.4634716 L56.2658529,23.3004984 L51.385853,23.3004984 L51.385853,28.4634716 Z M51.385853,20.7190117 L56.2658529,20.7190117 L56.2658529,15.5560385 L51.385853,15.5560385 L51.385853,20.7190117 Z M44.0658532,43.9523915 L48.9458531,43.9523915 L48.9458531,38.7894182 L44.0658532,38.7894182 L44.0658532,43.9523915 Z M44.0658532,36.2079316 L48.9458531,36.2079316 L48.9458531,31.0449583 L44.0658532,31.0449583 L44.0658532,36.2079316 Z M44.0658532,28.4634716 L48.9458531,28.4634716 L48.9458531,23.3004984 L44.0658532,23.3004984 L44.0658532,28.4634716 Z M44.0658532,20.7190117 L48.9458531,20.7190117 L48.9458531,15.5560385 L44.0658532,15.5560385 L44.0658532,20.7190117 Z M36.7458533,43.9523915 L41.6258532,43.9523915 L41.6258532,38.7894182 L36.7458533,38.7894182 L36.7458533,43.9523915 Z M36.7458533,36.2079316 L41.6258532,36.2079316 L41.6258532,31.0449583 L36.7458533,31.0449583 L36.7458533,36.2079316 Z M36.7458533,28.4634716 L41.6258532,28.4634716 L41.6258532,23.3004984 L36.7458533,23.3004984 L36.7458533,28.4634716 Z M36.7458533,20.7190117 L41.6258532,20.7190117 L41.6258532,15.5560385 L36.7458533,15.5560385 L36.7458533,20.7190117 Z M29.4258534,43.9523915 L34.3058533,43.9523915 L34.3058533,38.7894182 L29.4258534,38.7894182 L29.4258534,43.9523915 Z M29.4258534,36.2079316 L34.3058533,36.2079316 L34.3058533,31.0449583 L29.4258534,31.0449583 L29.4258534,36.2079316 Z M29.4258534,28.4634716 L34.3058533,28.4634716 L34.3058533,23.3004984 L29.4258534,23.3004984 L29.4258534,28.4634716 Z M29.4258534,20.7190117 L34.3058533,20.7190117 L34.3058533,15.5560385 L29.4258534,15.5560385 L29.4258534,20.7190117 Z M22.1058536,43.9523915 L26.9858535,43.9523915 L26.9858535,38.7894182 L22.1058536,38.7894182 L22.1058536,43.9523915 Z M22.1058536,36.2079316 L26.9858535,36.2079316 L26.9858535,31.0449583 L22.1058536,31.0449583 L22.1058536,36.2079316 Z M22.1058536,28.4634716 L26.9858535,28.4634716 L26.9858535,23.3004984 L22.1058536,23.3004984 L22.1058536,28.4634716 Z M22.1058536,20.7190117 L26.9858535,20.7190117 L26.9858535,15.5560385 L22.1058536,15.5560385 L22.1058536,20.7190117 Z M14.7858537,43.9523915 L19.6658536,43.9523915 L19.6658536,38.7894182 L14.7858537,38.7894182 L14.7858537,43.9523915 Z M14.7858537,36.2079316 L19.6658536,36.2079316 L19.6658536,31.0449583 L14.7858537,31.0449583 L14.7858537,36.2079316 Z M14.7858537,28.4634716 L19.6658536,28.4634716 L19.6658536,23.3004984 L14.7858537,23.3004984 L14.7858537,28.4634716 Z M14.7858537,20.7190117 L19.6658536,20.7190117 L19.6658536,15.5560385 L14.7858537,15.5560385 L14.7858537,20.7190117 Z M7.46585386,43.9523915 L12.3458538,43.9523915 L12.3458538,38.7894182 L7.46585386,38.7894182 L7.46585386,43.9523915 Z M7.46585386,36.2079316 L12.3458538,36.2079316 L12.3458538,31.0449583 L7.46585386,31.0449583 L7.46585386,36.2079316 Z M7.46585386,28.4634716 L12.3458538,28.4634716 L12.3458538,23.3004984 L7.46585386,23.3004984 L7.46585386,28.4634716 Z M7.46585386,20.7190117 L12.3458538,20.7190117 L12.3458538,15.5560385 L7.46585386,15.5560385 L7.46585386,20.7190117 Z M7.46585386,7.81157856 L7.46585386,12.9745518 L12.3458538,12.9745518 L12.3458538,7.81157856 L7.46585386,7.81157856 Z M14.7858537,7.81157856 L14.7858537,12.9745518 L19.6658536,12.9745518 L19.6658536,7.81157856 L14.7858537,7.81157856 Z M22.1058536,7.81157856 L22.1058536,12.9745518 L26.9858535,12.9745518 L26.9858535,7.81157856 L22.1058536,7.81157856 Z M29.4258534,7.81157856 L29.4258534,12.9745518 L34.3058533,12.9745518 L34.3058533,7.81157856 L29.4258534,7.81157856 Z M36.7458533,7.81157856 L36.7458533,12.9745518 L41.6258532,12.9745518 L41.6258532,7.81157856 L36.7458533,7.81157856 Z M44.0658532,7.81157856 L44.0658532,12.9745518 L48.9458531,12.9745518 L48.9458531,7.81157856 L44.0658532,7.81157856 Z M51.385853,7.81157856 L51.385853,12.9745518 L56.2658529,12.9745518 L56.2658529,7.81157856 L51.385853,7.81157856 Z" id="Shape" fill="#749ECF" opacity="0.278306159"></path>
                <path d="M47.1690324,23.7076532 C46.2487325,23.7076532 45.3981326,23.4391786 44.6636997,22.9990351 L36.960386,30.0137873 C37.3618072,30.7211147 37.6096299,31.5265385 37.6096299,32.399081 C37.6096299,35.0889901 35.4321459,37.2600203 32.7344924,37.2600203 C30.0368389,37.2600203 27.8593549,35.0889901 27.8593549,32.399081 C27.8593549,31.5033051 28.1187943,30.6746479 28.5408674,29.9557039 L25.6919476,26.7220379 C24.9717128,27.1402388 24.1443463,27.3958059 23.2498612,27.3958059 C22.3579576,27.3958059 21.5344633,27.1415295 20.81681,26.7259102 L14.0658293,32.4700719 C14.4814487,33.1864344 14.7370159,34.0073472 14.7370159,34.8966693 C14.7370159,37.5865784 12.5595319,39.7576086 9.86187835,39.7576086 C7.16422481,39.7576086 4.98674084,37.5865784 4.98674084,34.8966693 C4.98674084,32.2067602 7.16422481,30.0344392 9.86187835,30.0344392 C10.753782,30.0344392 11.5759855,30.2887157 12.2949295,30.704335 L19.0459102,24.9601733 C18.6302909,24.2438108 18.3747237,23.422898 18.3747237,22.5348666 C18.3747237,19.8449575 20.5522077,17.6739273 23.2511519,17.6739273 C25.9488055,17.6739273 28.1262895,19.8449575 28.1262895,22.5348666 C28.1262895,23.4203165 27.872013,24.237357 27.4602659,24.9511381 L30.3220931,28.1977115 C31.0358742,27.7898366 31.8529147,27.5381416 32.7370739,27.5381416 C33.6457572,27.5381416 34.4847403,27.8014533 35.2127196,28.2299801 L42.9302314,21.2023204 C42.5391362,20.5027376 42.2964764,19.7063489 42.2964764,18.8454231 C42.2964764,16.1555141 44.4739604,13.9844838 47.1716139,13.9844838 C49.8692675,13.9844838 52.0467514,16.1555141 52.0467514,18.8454231 C52.0454607,21.536623 49.8679767,23.7076532 47.1690324,23.7076532 Z M9.85929686,32.5333183 C8.5491924,32.5333183 7.48949213,33.5904371 7.48949213,34.8966693 C7.48949213,36.2029015 8.5491924,37.2600203 9.85929686,37.2600203 C11.1694013,37.2600203 12.2291016,36.2029015 12.2291016,34.8966693 C12.2303923,33.5904371 11.1694013,32.5333183 9.85929686,32.5333183 Z M23.2485705,20.1715156 C21.938466,20.1715156 20.877475,21.2286344 20.877475,22.5348666 C20.877475,23.8410988 21.9371752,24.8982176 23.2485705,24.8982176 C24.5586749,24.8982176 25.6183752,23.8410988 25.6183752,22.5348666 C25.6183752,21.2286344 24.5586749,20.1715156 23.2485705,20.1715156 Z M32.7344924,30.0370207 C31.4243879,30.0370207 30.3646877,31.0941395 30.3646877,32.4003717 C30.3646877,33.706604 31.4243879,34.7637227 32.7344924,34.7637227 C34.0445969,34.7637227 35.1042971,33.706604 35.1042971,32.4003717 C35.1042971,31.0941395 34.0445969,30.0370207 32.7344924,30.0370207 Z M47.1690324,16.4833629 C45.858928,16.4833629 44.7992277,17.5404816 44.7992277,18.8467139 C44.7992277,20.1529461 45.858928,21.2100649 47.1690324,21.2100649 C48.4791369,21.2100649 49.5388372,20.1529461 49.5388372,18.8467139 C49.5388372,17.5404816 48.4804276,16.4833629 47.1690324,16.4833629 Z" id="Shape" fill="#1658BD" transform="translate(28.516746, 26.871046) rotate(-9.000000) translate(-28.516746, -26.871046) "></path>
            </g>
        </g>
    </g>
</svg>