<?xml version="1.0" encoding="UTF-8"?>
<svg width="59px" height="53px" viewBox="0 0 59 53" version="1.1" xmlns="http://www.w3.org/2000/svg" xmlns:xlink="http://www.w3.org/1999/xlink">
    <g id="Master" stroke="none" stroke-width="1" fill="none" fill-rule="evenodd">
        <g id="Group-34-Copy-2" transform="translate(0.000000, -8.000000)">
            <rect id="Rectangle-29-Copy" x="1" y="0" width="70" height="70"></rect>
            <g id="_x35__2_" transform="translate(0.000000, 8.000000)">
                <path d="M6.14821438,14.0404214 L52.7167763,14.0404214 C54.0020686,14.0404214 55.0452043,15.082393 55.0452043,16.3688495 L55.0452043,50.1310569 C55.0452043,51.4175134 54.0020686,52.4594849 52.7167763,52.4594849 L6.14821438,52.4594849 C4.86175786,52.4594849 3.81978629,51.4175134 3.81978629,50.1310569 L3.81978629,16.3688495 C3.81978629,15.082393 4.86175786,14.0404214 6.14821438,14.0404214 Z" id="Shape" fill="#CCE1F4"></path>
                <path d="M58.5378465,17.5330635 L58.4214251,17.5330635 C57.882394,20.1898 55.53301,22.1899197 52.7167763,22.1899197 C49.9005425,22.1899197 47.5523227,20.1898 47.0121274,17.5330635 L35.1359799,17.5330635 C34.5969488,20.1898 32.2475649,22.1899197 29.4313311,22.1899197 C26.6150973,22.1899197 24.2668776,20.1898 23.7266823,17.5330635 L11.8505348,17.5330635 C11.3115037,20.1898 8.96211973,22.1899197 6.14588595,22.1899197 C3.32965217,22.1899197 0.981432441,20.1898 0.441237124,17.5330635 L0.324815719,17.5330635 C0.324815719,17.5330635 -0.0325979933,13.8820883 1.25735117,12.5246147 C3.61721304,8.68969365 14.2953843,1.23406689 14.2953843,1.23406689 C15.2430545,-0.190931104 16.5015699,0.0698528428 17.7880264,0.0698528428 L41.0723074,0.0698528428 C42.3587639,0.0698528428 43.4810662,0.138541472 44.5649495,1.23406689 C44.5649495,1.23406689 55.5073973,9.12045284 57.7508378,12.765607 C58.7520619,14.038093 58.5378465,17.5330635 58.5378465,17.5330635 Z" id="Shape" fill="#1658BD"></path>
                <path d="M41.0746358,22.1899197 C37.8602408,22.1899197 35.2535656,19.5844087 35.2535656,16.3688495 C35.2535656,14.1312301 31.7609234,0.0698528428 31.7609234,0.0698528428 L37.5819936,0.0698528428 C37.5819936,0.0698528428 45.7338204,12.1439167 46.5464418,14.3792077 C46.7722993,14.9997338 46.895706,15.6703211 46.895706,16.3688495 C46.895706,19.5832445 44.2890308,22.1899197 41.0746358,22.1899197 Z M17.7903548,22.1899197 C14.5759599,22.1899197 11.9692846,19.5844087 11.9692846,16.3688495 C11.9692846,15.7401739 12.069407,15.1347826 12.2533528,14.5678104 C13.0124204,12.2347254 21.282997,0.0698528428 21.282997,0.0698528428 L27.1040672,0.0698528428 C27.1040672,0.0698528428 23.6114251,13.8809241 23.6114251,16.3688495 C23.6114251,19.5832445 21.0047498,22.1899197 17.7903548,22.1899197 Z" id="Shape" fill="#749ECF"></path>
                <path d="M43.4030639,40.8173445 L36.4177796,40.8173445 C35.1313231,40.8173445 34.0893515,39.7753729 34.0893515,38.4889164 L34.0893515,31.5036321 C34.0893515,30.2171756 35.1313231,29.175204 36.4177796,29.175204 L43.4030639,29.175204 C44.6883562,29.175204 45.731492,30.2171756 45.731492,31.5036321 L45.731492,38.4889164 C45.731492,39.7742087 44.6895204,40.8173445 43.4030639,40.8173445 Z M43.4030639,32.6678462 C43.4030639,32.0252 42.881496,31.5036321 42.2388498,31.5036321 L37.5819936,31.5036321 C36.9393475,31.5036321 36.4177796,32.0252 36.4177796,32.6678462 L36.4177796,37.3247023 C36.4177796,37.9673485 36.9393475,38.4889164 37.5819936,38.4889164 L42.2388498,38.4889164 C42.881496,38.4889164 43.4030639,37.9673485 43.4030639,37.3247023 L43.4030639,32.6678462 Z M13.1334987,31.5036321 C13.1334987,30.2171756 14.1766344,29.175204 15.4619268,29.175204 L27.1040672,29.175204 C28.3905237,29.175204 29.4324953,30.2171756 29.4324953,31.5036321 L29.4324953,52.4594849 L13.1334987,52.4594849 L13.1334987,31.5036321 Z" id="Shape" fill="#749ECF"></path>
            </g>
        </g>
    </g>
</svg>