<?xml version="1.0" encoding="UTF-8"?>
<svg width="58px" height="55px" viewBox="0 0 58 55" version="1.1" xmlns="http://www.w3.org/2000/svg" xmlns:xlink="http://www.w3.org/1999/xlink">
    <g id="Master" stroke="none" stroke-width="1" fill="none" fill-rule="evenodd">
        <g id="Group-36-Copy-2" transform="translate(0.000000, -8.000000)">
            <rect id="Rectangle-29-Copy-3" x="0" y="0" width="70" height="70"></rect>
            <g id="_x37__2_" transform="translate(0.000000, 8.000000)">
                <path d="M10.9303495,0.670751557 L52.244757,0.670751557 C54.9289783,0.670751557 57.1052755,2.84704873 57.1052755,5.53127008 L57.1052755,49.2759368 C57.1052755,51.9601582 54.9289783,54.1364554 52.244757,54.1364554 L10.9303495,54.1364554 C8.24612812,54.1364554 6.06983095,51.9601582 6.06983095,49.2759368 L6.06983095,5.53127008 C6.06983095,2.8458336 8.24612812,0.670751557 10.9303495,0.670751557 Z" id="Shape" fill="#CCE1F4"></path>
                <path d="M32.195118,11.6069182 L33.4102477,11.6069182 C33.7456234,11.6069182 34.0178125,11.8791073 34.0178125,12.2144831 L34.0178125,42.5927239 C34.0178125,42.9280996 33.7456234,43.2002887 33.4102477,43.2002887 L32.195118,43.2002887 C31.8597423,43.2002887 31.5875532,42.9280996 31.5875532,42.5927239 L31.5875532,12.2144831 C31.5875532,11.8778922 31.8597423,11.6069182 32.195118,11.6069182 Z" id="Shape" fill="#749ECF"></path>
                <path d="M29.1667235,32.9286998 C26.9683704,38.4454022 21.5883311,42.3499079 15.2868839,42.3499079 C7.0315824,42.3499079 0.339364365,35.6576898 0.339364365,27.4023883 C0.339364365,19.1470868 7.0315824,12.4548688 15.2868839,12.4548688 C21.5883311,12.4548688 26.9683704,16.3593744 29.1667235,21.8771445 L29.1667235,32.9286998 Z" id="Shape" fill="#1658BD"></path>
                <path d="M20.6252837,31.3517365 C20.6252837,33.7038355 19.14975,35.5167561 16.3545639,35.8701581 L16.3545639,37.5464157 C16.3545639,37.8410954 16.1154036,38.0802557 15.8207239,38.0802557 L14.7530439,38.0802557 C14.4583643,38.0802557 14.2192039,37.8410954 14.2192039,37.5464157 L14.2192039,35.9448957 L11.016164,35.9448957 L11.016164,19.9296962 L14.2192039,19.9296962 L14.2192039,18.3281763 C14.2192039,18.0334966 14.4583643,17.7943363 14.7530439,17.7943363 L15.8207239,17.7943363 C16.1154036,17.7943363 16.3545639,18.0334966 16.3545639,18.3281763 L16.3545639,20.094119 C18.5988272,20.5799133 19.6430182,22.182501 19.6430182,23.9890155 C19.6430182,25.5446252 18.8945745,26.8322472 17.6560658,27.4152005 L17.6560658,27.4632461 C19.4091963,27.8764382 20.6252837,29.3829347 20.6252837,31.3517365 Z M14.7103367,21.7276693 L13.0970723,21.7276693 L13.0970723,26.8802928 L14.6633588,26.8802928 C16.5574231,26.8802928 17.5621099,25.8841474 17.5621099,24.2794244 C17.5621099,22.7964169 16.7207781,21.7276693 14.7103367,21.7276693 Z M15.4587804,28.6782659 L13.0970723,28.6782659 L13.0970723,34.145855 C13.0970723,34.145855 15.3744337,33.9686201 16.2552696,34.0497638 C17.6507274,33.7967237 18.4973976,32.9778131 18.4973976,31.3752255 C18.4973976,29.7235246 17.304799,28.6782659 15.4587804,28.6782659 Z" id="Shape" fill="#CCE1F4"></path>
            </g>
        </g>
    </g>
</svg>