<?xml version="1.0" encoding="UTF-8"?>
<svg width="62px" height="63px" viewBox="0 0 62 63" version="1.1" xmlns="http://www.w3.org/2000/svg" xmlns:xlink="http://www.w3.org/1999/xlink">
    <g id="Master" stroke="none" stroke-width="1" fill="none" fill-rule="evenodd">
        <g id="Group-34" transform="translate(0.000000, -3.000000)">
            <rect id="Rectangle-29-Copy" x="0" y="0" width="70" height="70"></rect>
            <g id="_x38_" transform="translate(0.000000, 3.000000)">
                <path d="M30.9520526,8.34694737 C43.7708947,8.34694737 54.1625789,18.7386316 54.1625789,31.5574737 C54.1625789,44.3763158 43.7708947,54.768 30.9520526,54.768 C18.1332105,54.768 7.74152632,44.3763158 7.74152632,31.5574737 C7.74152632,18.7386316 18.1332105,8.34694737 30.9520526,8.34694737 Z" id="Shape" fill="#CCE1F4"></path>
                <path d="M32.0672632,18.1451053 C34.6215263,18.0235263 37.1183158,17.4863684 39.4692105,16.569 C39.2072632,15.9224211 38.9276316,15.3001579 38.6303158,14.7044211 C36.9359474,11.3167895 34.8525263,9.16484211 32.6375789,8.43094737 C34.3949474,8.55805263 36.1025789,8.86089474 37.7306316,9.35715789 C38.7850526,10.5309474 39.7621053,11.9788421 40.6253158,13.7063684 C40.9381053,14.3319474 41.2321053,14.9840526 41.5073158,15.6582632 C42.8203684,14.9951053 44.0671053,14.1982105 45.2431053,13.2907895 C45.8399474,13.7583158 46.4135789,14.2534737 46.9617895,14.7762632 C45.5028421,15.9434211 43.9366842,16.9492105 42.2798947,17.7648947 C43.5177895,21.5327368 44.2251579,25.8808421 44.3246316,30.4389474 L54.1073158,30.4389474 C54.125,30.8114211 54.1636842,31.1783684 54.1636842,31.5541579 C54.1636842,31.9299474 54.125,32.298 54.1073158,32.6693684 L44.3246316,32.6693684 C44.2251579,37.2274737 43.5177895,41.5766842 42.2798947,45.3445263 C43.9366842,46.1602105 45.5028421,47.1671053 46.9617895,48.3331579 C46.4135789,48.8559474 45.8410526,49.3511053 45.2431053,49.8186316 C44.0671053,48.9112105 42.8203684,48.1143158 41.5073158,47.4511579 C41.2321053,48.1264737 40.9381053,48.7785789 40.6264211,49.4030526 C39.7621053,51.1305789 38.7861579,52.5784737 37.7317368,53.7522632 C36.1036842,54.2485263 34.3960526,54.5524737 32.6386842,54.6784737 C34.8536316,53.9445789 36.9381579,51.7937368 38.6314211,48.405 C38.9287368,47.8092632 39.2083684,47.187 39.4703158,46.5404211 C37.1205263,45.6230526 34.6226316,45.0847895 32.0683684,44.9643158 L32.0683684,54.7072105 C31.6958947,54.7248947 31.3300526,54.7635789 30.9531579,54.7635789 C30.5762632,54.7635789 30.2104211,54.7248947 29.8379474,54.7072105 L29.8379474,44.9643158 C27.2847895,45.0858947 24.7868947,45.6230526 22.436,46.5404211 C22.6979474,47.187 22.9775789,47.8092632 23.2748947,48.405 C24.9681579,51.7926316 27.0526842,53.9445789 29.2676316,54.6784737 C27.5102632,54.5524737 25.8026316,54.2485263 24.1745789,53.7522632 C23.1201579,52.5784737 22.1431053,51.1305789 21.2798947,49.4030526 C20.9671053,48.7774737 20.6742105,48.1264737 20.399,47.4511579 C19.0870526,48.1143158 17.8392105,48.9112105 16.6632105,49.8175263 C16.0663684,49.35 15.4927368,48.8548421 14.9445263,48.3320526 C16.4034737,47.1648947 17.9696316,46.1591053 19.6264211,45.3434211 C18.3885263,41.5755789 17.6811579,37.2274737 17.5816842,32.6682632 L7.799,32.6682632 C7.78131579,32.2957895 7.74263158,31.9299474 7.74263158,31.5530526 C7.74263158,31.1761579 7.78131579,30.8103158 7.799,30.4378421 L17.5816842,30.4378421 C17.6811579,25.8797368 18.3885263,21.5305263 19.6264211,17.7637895 C17.9696316,16.9481053 16.4034737,15.9412105 14.9445263,14.7740526 C15.4927368,14.2512632 16.0652632,13.7561053 16.6632105,13.2885789 C17.8392105,14.1948947 19.0859474,14.9928947 20.399,15.6560526 C20.6742105,14.9807368 20.9682105,14.3286316 21.281,13.7041579 C22.1453158,11.9766316 23.1212632,10.5287368 24.1756842,9.35494737 C25.8037368,8.85868421 27.5113684,8.55473684 29.2687368,8.42873684 C27.0537895,9.16263158 24.9692632,11.3145789 23.276,14.7022105 C22.9786842,15.2979474 22.6990526,15.9202105 22.4371053,16.5667895 C24.7868947,17.4841579 27.2847895,18.0224211 29.8390526,18.1428947 L29.8390526,8.4 C30.2115263,8.38231579 30.5784737,8.34363158 30.9542632,8.34363158 C31.3311579,8.34363158 31.697,8.38231579 32.0694737,8.4 L32.0694737,18.1451053 L32.0672632,18.1451053 Z M32.0672632,42.735 C34.8823684,42.8576842 37.6366842,43.4412632 40.2274211,44.4459474 C41.3514737,40.95 41.9958421,36.9157895 42.092,32.6715789 L32.0661579,32.6715789 L32.0661579,42.735 L32.0672632,42.735 Z M32.0672632,30.4411579 L42.0931053,30.4411579 C41.9969474,26.1969474 41.3525789,22.1627368 40.2285263,18.6667895 C37.6366842,19.6714737 34.8823684,20.2561579 32.0683684,20.3777368 L32.0683684,30.4411579 L32.0672632,30.4411579 Z M29.8368421,20.3788421 C27.0217368,20.2561579 24.2674211,19.6725789 21.6766842,18.6678947 C20.5526316,22.1638421 19.9082632,26.1980526 19.8121053,30.4422632 L29.8368421,30.4422632 L29.8368421,20.3788421 L29.8368421,20.3788421 Z M29.8368421,32.6726842 L19.811,32.6726842 C19.9071579,36.9168947 20.5515263,40.9511053 21.6755789,44.4470526 C24.2674211,43.4423684 27.0206316,42.8576842 29.8357368,42.7361053 L29.8357368,32.6726842 L29.8368421,32.6726842 Z" id="Shape" fill="#5387CE"></path>
                <path d="M30.9520526,62.5048421 C22.8294737,62.5048421 15.4684211,59.346 9.95205263,54.222 L9.95205263,56.4258947 C9.95205263,56.7309474 9.70447368,56.9785263 9.39942105,56.9785263 L8.29415789,56.9785263 C7.98910526,56.9785263 7.74152632,56.7309474 7.74152632,56.4258947 L7.74152632,52.0048421 L7.74152632,50.8995789 C7.74152632,50.5945263 7.98910526,50.3469474 8.29415789,50.3469474 L9.39942105,50.3469474 L13.8204737,50.3469474 C14.1255263,50.3469474 14.3731053,50.5945263 14.3731053,50.8995789 L14.3731053,52.0048421 C14.3731053,52.3098947 14.1255263,52.5574737 13.8204737,52.5574737 L11.4209474,52.5574737 C16.5493684,57.3344211 23.3898421,60.2943158 30.9520526,60.2943158 C46.8225263,60.2943158 59.6888947,47.4279474 59.6888947,31.5574737 C59.6888947,27.8393684 58.9594211,24.2981053 57.674,21.0375789 C58.3835789,20.6916316 58.9992105,20.1997895 59.4987895,19.5996316 C61.0417368,23.2790526 61.8983158,27.3176842 61.8983158,31.5585789 C61.8994211,48.6481579 48.0438421,62.5048421 30.9520526,62.5048421 Z M53.6099474,12.768 L52.5046842,12.768 L48.0836316,12.768 C47.7785789,12.768 47.531,12.5204211 47.531,12.2153684 L47.531,11.1101053 C47.531,10.8050526 47.7785789,10.5574737 48.0836316,10.5574737 L50.4831579,10.5574737 C45.3547368,5.78052632 38.5142632,2.82063158 30.9520526,2.82063158 C15.0815789,2.82063158 2.21521053,15.687 2.21521053,31.5574737 C2.21521053,35.2755789 2.94468421,38.8168421 4.23010526,42.0773684 C3.52052632,42.4233158 2.90489474,42.9151579 2.40531579,43.5153158 C0.862368421,39.8358947 0.00578947368,35.7972632 0.00578947368,31.5563684 C0.00578947368,14.4645789 13.8613684,0.609 30.9531579,0.609 C39.0757368,0.609 46.4367895,3.76784211 51.9531579,8.89184211 L51.9531579,6.68794737 C51.9531579,6.38289474 52.2007368,6.13531579 52.5057895,6.13531579 L53.6110526,6.13531579 C53.9161053,6.13531579 54.1636842,6.38289474 54.1636842,6.68794737 L54.1636842,11.109 L54.1636842,12.2142632 C54.1625789,12.5204211 53.915,12.768 53.6099474,12.768 Z" id="Shape" fill="#1658BD"></path>
            </g>
        </g>
    </g>
</svg>