<?xml version="1.0" encoding="UTF-8"?>
<svg width="1048px" height="653px" viewBox="0 0 1048 653" version="1.1" xmlns="http://www.w3.org/2000/svg" xmlns:xlink="http://www.w3.org/1999/xlink">
    <!-- Generator: Sketch 45.1 (43504) - http://www.bohemiancoding.com/sketch -->
    <title>Group 5</title>
    <desc>Created with Sketch.</desc>
    <defs>
        <rect id="path-1" x="0" y="0" width="49" height="58"></rect>
        <rect id="path-2" x="0" y="13" width="30" height="22"></rect>
        <rect id="path-3" x="0" y="0" width="49" height="58"></rect>
        <rect id="path-4" x="0" y="13" width="30" height="22"></rect>
        <rect id="path-5" x="0" y="0" width="49" height="58"></rect>
        <rect id="path-6" x="0" y="13" width="30" height="22"></rect>
        <polygon id="path-7" points="307.921693 2.9216926 313.921693 14.9216926 301.921693 14.9216926"></polygon>
        <circle id="path-8" cx="5.5" cy="11.5" r="5.5"></circle>
        <polygon id="path-9" points="307.921693 2.9216926 313.921693 14.9216926 301.921693 14.9216926"></polygon>
        <circle id="path-10" cx="5.5" cy="11.5" r="5.5"></circle>
        <polygon id="path-11" points="307.921693 2.9216926 313.921693 14.9216926 301.921693 14.9216926"></polygon>
        <circle id="path-12" cx="5.5" cy="11.5" r="5.5"></circle>
        <polygon id="path-13" points="307.921693 2.9216926 313.921693 14.9216926 301.921693 14.9216926"></polygon>
        <circle id="path-14" cx="5.5" cy="11.5" r="5.5"></circle>
        <polygon id="path-15" points="307.921693 2.9216926 313.921693 14.9216926 301.921693 14.9216926"></polygon>
        <circle id="path-16" cx="5.5" cy="11.5" r="5.5"></circle>
        <polygon id="path-17" points="307.921693 2.9216926 313.921693 14.9216926 301.921693 14.9216926"></polygon>
        <circle id="path-18" cx="5.5" cy="11.5" r="5.5"></circle>
        <polygon id="path-19" points="307.921693 2.9216926 313.921693 14.9216926 301.921693 14.9216926"></polygon>
        <circle id="path-20" cx="5.5" cy="11.5" r="5.5"></circle>
        <polygon id="path-21" points="307.921693 2.9216926 313.921693 14.9216926 301.921693 14.9216926"></polygon>
        <circle id="path-22" cx="5.5" cy="11.5" r="5.5"></circle>
        <polygon id="path-23" points="307.921693 2.9216926 313.921693 14.9216926 301.921693 14.9216926"></polygon>
        <circle id="path-24" cx="5.5" cy="11.5" r="5.5"></circle>
        <polygon id="path-25" points="307.921693 2.9216926 313.921693 14.9216926 301.921693 14.9216926"></polygon>
        <circle id="path-26" cx="5.5" cy="11.5" r="5.5"></circle>
        <polygon id="path-27" points="307.921693 2.9216926 313.921693 14.9216926 301.921693 14.9216926"></polygon>
        <circle id="path-28" cx="5.5" cy="11.5" r="5.5"></circle>
        <polygon id="path-29" points="307.921693 2.9216926 313.921693 14.9216926 301.921693 14.9216926"></polygon>
        <circle id="path-30" cx="5.5" cy="11.5" r="5.5"></circle>
    </defs>
    <g id="Master" stroke="none" stroke-width="1" fill="none" fill-rule="evenodd">
        <g id="Platform" transform="translate(-196.000000, -4071.000000)">
            <g id="Group-5" transform="translate(196.000000, 4071.000000)">
                <g id="Group" transform="translate(0.000000, 196.000000)">
                    <g id="flowchart_user-copy">
                        <ellipse id="Oval-5" fill="#C0CFDB" cx="40" cy="40.5" rx="40" ry="40.125"></ellipse>
                        <g id="Group-2" stroke-width="1" transform="translate(17.196262, 18.000000)">
                            <path d="M16.0167854,35.8679535 L9.2126662,39.5909677 C8.81338565,39.8093592 8.45454946,40.0778167 8.12066832,40.3704441 C12.0876583,43.7257318 17.2086034,45.7499535 22.8036942,45.7499535 C28.3574802,45.7499535 33.4457256,43.7559441 37.4015288,40.4464064 C37.036669,40.1373781 36.6408305,39.8594252 36.2019661,39.6401705 L28.9159566,35.986213 C27.9745495,35.5140384 27.3799312,34.5489724 27.3799312,33.4932696 L27.3799312,30.6256941 C27.5847346,30.3917648 27.8187956,30.0913686 28.0692065,29.7365903 C29.0622448,28.329562 29.8134773,26.7818309 30.334091,25.1581375 C31.268614,24.868963 31.9570287,24.0031658 31.9570287,22.9742224 L31.9570287,19.9132884 C31.9570287,19.2399865 31.6584289,18.6383309 31.1946094,18.2170856 L31.1946094,13.7922837 C31.1946094,13.7922837 32.1007353,6.90647711 22.8045548,6.90647711 C13.5083742,6.90647711 14.4145001,13.7922837 14.4145001,13.7922837 L14.4145001,18.2170856 C13.9498201,18.6383309 13.6520808,19.2399865 13.6520808,19.9132884 L13.6520808,22.9742224 C13.6520808,23.7804582 14.0745953,24.4900148 14.7070764,24.9000384 C15.4694957,28.2294299 17.4658984,30.6256941 17.4658984,30.6256941 L17.4658984,33.4224865 C17.4650379,34.4410715 16.909143,35.3793781 16.0167854,35.8679535 Z" id="Shape" fill="#FFFFFF"></path>
                            <path d="M23.1935091,0.00340635667 C10.6015429,-0.21239553 0.218527599,9.85260447 0.00339799231,22.4839205 C-0.118795624,29.6459535 3.06340152,36.0828922 8.13013402,40.3635384 C8.46143361,40.0735007 8.81682772,39.8076328 9.21180568,39.5918309 L16.0159249,35.8688167 C16.9082825,35.3802413 17.4641774,34.4419347 17.4641774,33.4216233 L17.4641774,30.6248309 C17.4641774,30.6248309 15.4669141,28.2285667 14.7053553,24.8991752 C14.0737348,24.4891516 13.6503597,23.7804582 13.6503597,22.9733592 L13.6503597,19.9124252 C13.6503597,19.2391233 13.9489596,18.6374677 14.4127791,18.2162224 L14.4127791,13.7914205 C14.4127791,13.7914205 13.5066532,6.9056139 22.8028337,6.9056139 C32.0990143,6.9056139 31.1928884,13.7914205 31.1928884,13.7914205 L31.1928884,18.2162224 C31.6575683,18.6374677 31.9553077,19.2391233 31.9553077,19.9124252 L31.9553077,22.9733592 C31.9553077,24.0023026 31.266893,24.8680998 30.33237,25.1572743 C29.8117563,26.7809677 29.0605237,28.3286988 28.0674855,29.7357271 C27.8170746,30.0905054 27.5830136,30.3909016 27.3782102,30.6248309 L27.3782102,33.4924064 C27.3782102,34.5481092 27.9728284,35.5140384 28.9142356,35.9853498 L36.2002451,39.6393073 C36.6373885,39.858562 37.0323664,40.1356516 37.3963657,40.4438167 C42.3099259,36.3332224 45.4843784,30.1871847 45.6022694,23.2659865 C45.8191201,10.6346705 35.7863357,0.219208243 23.1935091,0.00340635667 Z" id="Shape" fill="#6A7F91"></path>
                        </g>
                    </g>
                    <text id="User" font-family="SourceSansPro-Semibold, Source Sans Pro" font-size="15" font-weight="500" line-spacing="24" letter-spacing="0.1875" fill="#5C7C95">
                        <tspan x="25" y="101">User</tspan>
                    </text>
                </g>
                <g id="Group-Copy-3" transform="translate(942.000000, 196.000000)">
                    <g id="flowchart_broker2-copy-3" transform="translate(13.000000, 0.000000)">
                        <g id="Kravatte" stroke-width="1" transform="translate(36.635514, 54.000000)"></g>
                        <ellipse id="Oval-5" fill="#C0DBD2" cx="40" cy="40.125" rx="40" ry="40.125"></ellipse>
                        <g id="Group-3" opacity="0" stroke-width="1" transform="translate(16.448598, 17.250000)">
                            <path d="M17.6333149,35.26468 C18.0744656,34.7634175 18.3291938,34.1109231 18.3297761,33.4216698 L18.3297761,30.6248774 C18.3297761,30.6248774 16.3333733,28.2286132 15.570954,24.8992217 C14.9384729,24.4891981 14.5159584,23.7796415 14.5159584,22.9734057 L14.5159584,19.9124717 C14.5159584,19.2391698 14.8136978,18.6375142 15.2783777,18.2162689 L15.2783777,13.791467 C15.2783777,13.791467 14.3722518,6.90566038 23.6684324,6.90566038 C32.9646129,6.90566038 32.058487,13.791467 32.058487,13.791467 L32.058487,18.2162689 C32.5223065,18.6375142 32.8209064,19.2391698 32.8209064,19.9124717 L32.8209064,22.9734057 C32.8209064,24.0023491 32.1324916,24.8681462 31.1979686,25.1573208 C30.677355,26.7810142 29.9261224,28.3287453 28.9330841,29.7357736 C28.6826732,30.0905519 28.4486122,30.3909481 28.2438089,30.6248774 L28.2438089,33.4924528 C28.2438089,34.1751342 28.4924603,34.8199141 28.9227467,35.318017 C26.6208108,37.8569576 23.3055952,41.6500066 23.3055952,41.6500066 C23.3055952,41.6500066 19.8486843,37.6941811 17.6333149,35.26468 Z" id="Combined-Shape" fill="#FFFFFF"></path>
                            <path d="M23.9382989,0.0515431781 C11.3463327,-0.164258709 0.963317374,9.90074129 0.748187767,22.5320573 C0.62599415,29.6940903 3.80819129,36.131029 8.87492379,40.4116753 C9.20622339,40.1216375 9.5616175,39.8557696 9.95659546,39.6399677 L16.7607147,35.9169536 C17.6530723,35.4283781 18.2089672,34.4900715 18.2089672,33.4697602 L18.2089672,30.6729677 C18.2089672,30.6729677 16.2117039,28.2767036 15.4501451,24.947312 C14.8185246,24.5372885 14.3951495,23.8285951 14.3951495,23.021496 L14.3951495,19.960562 C14.3951495,19.2872602 14.6937494,18.6856045 15.1575688,18.2643592 L15.1575688,13.8395573 C15.1575688,13.8395573 14.2514429,6.95375073 23.5476235,6.95375073 C32.8438041,6.95375073 31.9376782,13.8395573 31.9376782,13.8395573 L31.9376782,18.2643592 C32.4023581,18.6856045 32.7000975,19.2872602 32.7000975,19.960562 L32.7000975,23.021496 C32.7000975,24.0504394 32.0116827,24.9162366 31.0771597,25.2054111 C30.5565461,26.8291045 29.8053135,28.3768356 28.8122752,29.7838639 C28.5618644,30.1386422 28.3278034,30.4390385 28.123,30.6729677 L28.123,33.5405432 C28.123,34.596246 28.7176182,35.5621753 29.6590254,36.0334866 L36.9450349,39.6874441 C37.3821782,39.9066988 37.7771562,40.1837885 38.1411555,40.4919536 C43.0547157,36.3813592 46.2291682,30.2353215 46.3470592,23.3141234 C46.5639099,10.6828073 36.5311255,0.267345065 23.9382989,0.0515431781 Z" id="Shape" fill="#6A7F91"></path>
                            <path d="M17.6759496,35.1902665 C17.4651637,35.4297743 17.2118172,35.6347557 16.9232977,35.7927232 L10.1191785,39.5157374 C9.71989799,39.7341289 9.3610618,40.0025864 9.02718065,40.2952138 C12.9941706,43.6505015 18.1151158,45.6747232 23.7102066,45.6747232 C29.2639925,45.6747232 34.352238,43.6807138 38.3080412,40.3711761 C37.9431814,40.0621478 37.5473429,39.7841949 37.1084785,39.5649402 L29.822469,35.9109827 C29.4898327,35.7441448 29.2004926,35.51577 28.9653814,35.2436035 C26.6634455,37.782544 23.3482299,41.575593 23.3482299,41.575593 C23.3482299,41.575593 19.891319,37.6197676 17.6759496,35.1902665 Z" id="Combined-Shape" fill-opacity="0.420855978" fill="#6A7F91"></path>
                            <polyline id="Path-25" stroke="#C0CFDB" stroke-width="1.5" points="17.4127902 35.4872099 23.0614353 41.3994984 29.1929823 35.4872099"></polyline>
                            <g id="Kravatte" transform="translate(19.679069, 38.844340)" fill="#C0CFDB">
                                <path d="M2.10073702,6.94587633 L2.35383301,3.04345749 L2.12533107,3.04345749 L0.562031105,0.158528709 L6.33404535,0.158528709 L4.90103655,3.04345749 L4.63796752,3.04345749 L4.83146025,7.06079065 C4.69936541,7.06305322 4.56699695,7.06418909 4.43436403,7.06418909 C3.64651825,7.06418909 2.86800405,7.02411098 2.10073702,6.94587633 Z" id="Combined-Shape"></path>
                            </g>
                        </g>
                        <g id="exchange" stroke-width="1" transform="translate(20.186916, 21.000000)">
                            <path d="M19.8776197,20.6998035 C20.6190508,18.9333079 21.2475818,17.5475306 21.7634667,16.5426419 C22.1503592,15.797214 22.5133674,15.1691266 22.8518984,14.6585502 C23.1900905,14.1479738 23.6014603,13.6495742 24.0849065,13.1634367 C24.5689457,12.6771288 25.1248072,12.3120786 25.7538464,12.0692227 C26.3822079,11.8261114 27.0833236,11.7045131 27.8575321,11.7045131 L31.0568195,11.7045131 L31.0568195,16.3724214 C31.0568195,16.5830895 31.1333002,16.7655721 31.2863464,16.9193581 C31.4393925,17.0733996 31.6208119,17.1502926 31.8300964,17.1502926 C32.0561507,17.1502926 32.2416355,17.0775721 32.3859579,16.9316201 L40.1242319,9.15214192 C40.2697401,9.0061048 40.3421554,8.8199607 40.3421554,8.59294323 C40.3421554,8.36592576 40.2697401,8.17969651 40.1242319,8.03314847 L32.4103505,0.277598253 C32.2173277,0.115637555 32.0231192,0.0349978166 31.8300117,0.0349978166 C31.6039574,0.0349978166 31.4189807,0.107803493 31.2735572,0.253840611 C31.1292348,0.399707424 31.0567348,0.585936681 31.0567348,0.812868996 L31.0567348,5.48043668 L27.8574474,5.48043668 C26.7609696,5.48043668 25.7293692,5.61446725 24.7618838,5.88184716 C23.7943984,6.14922707 22.9358324,6.48941266 22.1863551,6.90291485 C21.4366238,7.31624672 20.711285,7.87127293 20.0099153,8.56833406 C19.3086303,9.26505459 18.7120298,9.93793231 18.2206221,10.5862009 C17.729045,11.2342991 17.2129907,12.0446135 16.673052,13.0172293 C16.133198,13.9896747 15.6978592,14.8406921 15.3673744,15.569941 C15.0368049,16.2993603 14.6378855,17.1989148 14.1704468,18.26869 C13.4287617,20.0352707 12.8000613,21.4212183 12.2842611,22.4260218 C11.8974533,23.1714498 11.5344451,23.7997074 11.1961682,24.3101987 C10.857722,24.8207751 10.4463522,25.3190895 9.96282126,25.8052271 C9.47912091,26.2918755 8.92292056,26.6566703 8.29422021,26.8997817 C7.66568925,27.1428079 6.96423481,27.2645764 6.19053446,27.2645764 L0.774039136,27.2645764 C0.548238902,27.2645764 0.362754089,27.3368712 0.217838785,27.4830786 C0.0730928738,27.6287751 0.000338785047,27.8147489 0.000338785047,28.0419367 L0.000338785047,32.7102707 C0.000338785047,32.9370328 0.0733469626,33.1235175 0.218431659,33.2697249 C0.363601051,33.4155066 0.549170561,33.4883122 0.774632009,33.4883122 L6.19129673,33.4883122 C7.28777453,33.4883122 8.3192903,33.3542817 9.286691,33.0867314 C10.2539223,32.8191812 11.112573,32.4788253 11.8619655,32.0656638 C12.6117815,31.6521616 13.3371203,31.0969651 14.0384054,30.3999039 C14.739521,29.7034389 15.3362909,29.0303057 15.827868,28.3822926 C16.3192757,27.7338537 16.8352453,26.9237096 17.3753534,25.9513493 C17.9152074,24.9785633 18.3507155,24.1277162 18.681031,23.3985524 C19.0112617,22.6691332 19.4100964,21.7698341 19.8776197,20.6998035 Z" id="Shape" fill="#6A7F91" fill-rule="nonzero"></path>
                            <path d="M0.77370035,11.7042576 L6.19036507,11.7042576 C6.89969626,11.7042576 7.55651577,11.8218537 8.16116238,12.0570459 C8.765809,12.292238 9.27356308,12.5757118 9.68459404,12.9081485 C10.0957097,13.2405852 10.5067407,13.6982817 10.9178563,14.2816638 C11.3288873,14.8653865 11.6553914,15.3801354 11.8971992,15.8255699 C12.1388376,16.2714301 12.4370532,16.8590699 12.7917611,17.5883188 C14.0333236,14.6547183 15.1373394,12.4423624 16.1046554,10.9512511 C13.5253154,7.30458079 10.220552,5.4809476 6.19028037,5.4809476 L0.77370035,5.4809476 C0.547900117,5.4809476 0.362415304,5.55375328 0.2175,5.69979039 C0.0727540888,5.8454869 0,6.03171616 0,6.25873362 L0,10.9266419 C0,11.1537445 0.0724153037,11.3397183 0.2175,11.4855 C0.362754089,11.6315371 0.548238902,11.7042576 0.77370035,11.7042576 Z" id="Shape" fill="#FFFFFF" fill-rule="nonzero"></path>
                            <path d="M32.4109433,22.0618231 C32.2173277,21.8998624 32.023712,21.819393 31.8300964,21.819393 C31.6046349,21.819393 31.4190654,21.8919432 31.2742348,22.0378952 C31.1293195,22.1835917 31.0569042,22.3700764 31.0569042,22.5967533 L31.0569042,27.2650873 L27.8570239,27.2650873 C27.1474387,27.2650873 26.4907039,27.147321 25.8860572,26.9119585 C25.2814106,26.6770218 24.7735718,26.393548 24.3626256,26.0610262 C23.9519334,25.728845 23.5406484,25.2708079 23.1296174,24.6870852 C22.7183324,24.1036179 22.3916589,23.5887838 22.1499357,23.1428384 C21.908382,22.6978297 21.6101665,22.1095087 21.2554585,21.3807707 C20.0142348,24.2980218 18.9181805,26.5103777 17.9668721,28.0178384 C18.4019568,28.6498428 18.8533879,29.2131288 19.3209112,29.7071004 C19.7882652,30.2013275 20.2317348,30.6349258 20.6508119,31.0078952 C21.0699737,31.3803537 21.5455432,31.7049563 22.0774357,31.98 C22.6095824,32.2556397 23.0768516,32.4864891 23.4802599,32.673059 C23.8843458,32.8594585 24.3915917,33.0093275 25.0039457,33.1229214 C25.6163843,33.2360044 26.1322693,33.3216681 26.5514311,33.3776135 C26.9705082,33.434155 27.5429702,33.4749432 28.2683937,33.4994672 C28.9935631,33.5239061 29.5820327,33.5314847 30.0329556,33.5239061 C30.4848102,33.5157314 30.5413581,33.4872052 31.0573277,33.4872052 L31.0573277,38.1551987 C31.0573277,38.3658668 31.1338084,38.5482642 31.2868546,38.7021354 C31.4399007,38.8560917 31.6213201,38.9329847 31.8306046,38.9329847 C32.0566589,38.9329847 32.2421437,38.860179 32.3864661,38.7144825 L40.1247401,30.9350895 C40.2696554,30.7887969 40.3420707,30.6029083 40.3420707,30.3756354 C40.3420707,30.1486179 40.2696554,29.9623886 40.1241472,29.8167773 L32.4109433,22.0618231 Z" id="Shape" fill="#FFFFFF" fill-rule="nonzero"></path>
                        </g>
                    </g>
                    <text id="Fund-Manager-A" font-family="SourceSansPro-Semibold, Source Sans Pro" font-size="15" font-weight="500" line-spacing="24" letter-spacing="0.1875" fill="#5C7C95">
                        <tspan x="0" y="101">Fund Manager A</tspan>
                    </text>
                </g>
                <g id="Group-Copy" transform="translate(0.000000, 371.000000)">
                    <g id="flowchart_user-copy">
                        <ellipse id="Oval-5" fill="#C0CFDB" cx="40" cy="40.5" rx="40" ry="40.125"></ellipse>
                        <g id="Group-2" stroke-width="1" transform="translate(17.196262, 18.000000)">
                            <path d="M16.0167854,35.8679535 L9.2126662,39.5909677 C8.81338565,39.8093592 8.45454946,40.0778167 8.12066832,40.3704441 C12.0876583,43.7257318 17.2086034,45.7499535 22.8036942,45.7499535 C28.3574802,45.7499535 33.4457256,43.7559441 37.4015288,40.4464064 C37.036669,40.1373781 36.6408305,39.8594252 36.2019661,39.6401705 L28.9159566,35.986213 C27.9745495,35.5140384 27.3799312,34.5489724 27.3799312,33.4932696 L27.3799312,30.6256941 C27.5847346,30.3917648 27.8187956,30.0913686 28.0692065,29.7365903 C29.0622448,28.329562 29.8134773,26.7818309 30.334091,25.1581375 C31.268614,24.868963 31.9570287,24.0031658 31.9570287,22.9742224 L31.9570287,19.9132884 C31.9570287,19.2399865 31.6584289,18.6383309 31.1946094,18.2170856 L31.1946094,13.7922837 C31.1946094,13.7922837 32.1007353,6.90647711 22.8045548,6.90647711 C13.5083742,6.90647711 14.4145001,13.7922837 14.4145001,13.7922837 L14.4145001,18.2170856 C13.9498201,18.6383309 13.6520808,19.2399865 13.6520808,19.9132884 L13.6520808,22.9742224 C13.6520808,23.7804582 14.0745953,24.4900148 14.7070764,24.9000384 C15.4694957,28.2294299 17.4658984,30.6256941 17.4658984,30.6256941 L17.4658984,33.4224865 C17.4650379,34.4410715 16.909143,35.3793781 16.0167854,35.8679535 Z" id="Shape" fill="#FFFFFF"></path>
                            <path d="M23.1935091,0.00340635667 C10.6015429,-0.21239553 0.218527599,9.85260447 0.00339799231,22.4839205 C-0.118795624,29.6459535 3.06340152,36.0828922 8.13013402,40.3635384 C8.46143361,40.0735007 8.81682772,39.8076328 9.21180568,39.5918309 L16.0159249,35.8688167 C16.9082825,35.3802413 17.4641774,34.4419347 17.4641774,33.4216233 L17.4641774,30.6248309 C17.4641774,30.6248309 15.4669141,28.2285667 14.7053553,24.8991752 C14.0737348,24.4891516 13.6503597,23.7804582 13.6503597,22.9733592 L13.6503597,19.9124252 C13.6503597,19.2391233 13.9489596,18.6374677 14.4127791,18.2162224 L14.4127791,13.7914205 C14.4127791,13.7914205 13.5066532,6.9056139 22.8028337,6.9056139 C32.0990143,6.9056139 31.1928884,13.7914205 31.1928884,13.7914205 L31.1928884,18.2162224 C31.6575683,18.6374677 31.9553077,19.2391233 31.9553077,19.9124252 L31.9553077,22.9733592 C31.9553077,24.0023026 31.266893,24.8680998 30.33237,25.1572743 C29.8117563,26.7809677 29.0605237,28.3286988 28.0674855,29.7357271 C27.8170746,30.0905054 27.5830136,30.3909016 27.3782102,30.6248309 L27.3782102,33.4924064 C27.3782102,34.5481092 27.9728284,35.5140384 28.9142356,35.9853498 L36.2002451,39.6393073 C36.6373885,39.858562 37.0323664,40.1356516 37.3963657,40.4438167 C42.3099259,36.3332224 45.4843784,30.1871847 45.6022694,23.2659865 C45.8191201,10.6346705 35.7863357,0.219208243 23.1935091,0.00340635667 Z" id="Shape" fill="#6A7F91"></path>
                        </g>
                    </g>
                    <text id="User" font-family="SourceSansPro-Semibold, Source Sans Pro" font-size="15" font-weight="500" line-spacing="24" letter-spacing="0.1875" fill="#5C7C95">
                        <tspan x="25" y="101">User</tspan>
                    </text>
                </g>
                <g id="Group-Copy-4" transform="translate(941.000000, 371.000000)">
                    <g id="flowchart_broker2-copy-4" transform="translate(14.000000, 0.000000)">
                        <g id="Kravatte" stroke-width="1" transform="translate(36.635514, 54.000000)"></g>
                        <ellipse id="Oval-5" fill="#DBCBC0" cx="40" cy="40.125" rx="40" ry="40.125"></ellipse>
                        <g id="Group-3" opacity="0" stroke-width="1" transform="translate(16.448598, 17.250000)">
                            <path d="M17.6333149,35.26468 C18.0744656,34.7634175 18.3291938,34.1109231 18.3297761,33.4216698 L18.3297761,30.6248774 C18.3297761,30.6248774 16.3333733,28.2286132 15.570954,24.8992217 C14.9384729,24.4891981 14.5159584,23.7796415 14.5159584,22.9734057 L14.5159584,19.9124717 C14.5159584,19.2391698 14.8136978,18.6375142 15.2783777,18.2162689 L15.2783777,13.791467 C15.2783777,13.791467 14.3722518,6.90566038 23.6684324,6.90566038 C32.9646129,6.90566038 32.058487,13.791467 32.058487,13.791467 L32.058487,18.2162689 C32.5223065,18.6375142 32.8209064,19.2391698 32.8209064,19.9124717 L32.8209064,22.9734057 C32.8209064,24.0023491 32.1324916,24.8681462 31.1979686,25.1573208 C30.677355,26.7810142 29.9261224,28.3287453 28.9330841,29.7357736 C28.6826732,30.0905519 28.4486122,30.3909481 28.2438089,30.6248774 L28.2438089,33.4924528 C28.2438089,34.1751342 28.4924603,34.8199141 28.9227467,35.318017 C26.6208108,37.8569576 23.3055952,41.6500066 23.3055952,41.6500066 C23.3055952,41.6500066 19.8486843,37.6941811 17.6333149,35.26468 Z" id="Combined-Shape" fill="#FFFFFF"></path>
                            <path d="M23.9382989,0.0515431781 C11.3463327,-0.164258709 0.963317374,9.90074129 0.748187767,22.5320573 C0.62599415,29.6940903 3.80819129,36.131029 8.87492379,40.4116753 C9.20622339,40.1216375 9.5616175,39.8557696 9.95659546,39.6399677 L16.7607147,35.9169536 C17.6530723,35.4283781 18.2089672,34.4900715 18.2089672,33.4697602 L18.2089672,30.6729677 C18.2089672,30.6729677 16.2117039,28.2767036 15.4501451,24.947312 C14.8185246,24.5372885 14.3951495,23.8285951 14.3951495,23.021496 L14.3951495,19.960562 C14.3951495,19.2872602 14.6937494,18.6856045 15.1575688,18.2643592 L15.1575688,13.8395573 C15.1575688,13.8395573 14.2514429,6.95375073 23.5476235,6.95375073 C32.8438041,6.95375073 31.9376782,13.8395573 31.9376782,13.8395573 L31.9376782,18.2643592 C32.4023581,18.6856045 32.7000975,19.2872602 32.7000975,19.960562 L32.7000975,23.021496 C32.7000975,24.0504394 32.0116827,24.9162366 31.0771597,25.2054111 C30.5565461,26.8291045 29.8053135,28.3768356 28.8122752,29.7838639 C28.5618644,30.1386422 28.3278034,30.4390385 28.123,30.6729677 L28.123,33.5405432 C28.123,34.596246 28.7176182,35.5621753 29.6590254,36.0334866 L36.9450349,39.6874441 C37.3821782,39.9066988 37.7771562,40.1837885 38.1411555,40.4919536 C43.0547157,36.3813592 46.2291682,30.2353215 46.3470592,23.3141234 C46.5639099,10.6828073 36.5311255,0.267345065 23.9382989,0.0515431781 Z" id="Shape" fill="#6A7F91"></path>
                            <path d="M17.6759496,35.1902665 C17.4651637,35.4297743 17.2118172,35.6347557 16.9232977,35.7927232 L10.1191785,39.5157374 C9.71989799,39.7341289 9.3610618,40.0025864 9.02718065,40.2952138 C12.9941706,43.6505015 18.1151158,45.6747232 23.7102066,45.6747232 C29.2639925,45.6747232 34.352238,43.6807138 38.3080412,40.3711761 C37.9431814,40.0621478 37.5473429,39.7841949 37.1084785,39.5649402 L29.822469,35.9109827 C29.4898327,35.7441448 29.2004926,35.51577 28.9653814,35.2436035 C26.6634455,37.782544 23.3482299,41.575593 23.3482299,41.575593 C23.3482299,41.575593 19.891319,37.6197676 17.6759496,35.1902665 Z" id="Combined-Shape" fill-opacity="0.420855978" fill="#6A7F91"></path>
                            <polyline id="Path-25" stroke="#C0CFDB" stroke-width="1.5" points="17.4127902 35.4872099 23.0614353 41.3994984 29.1929823 35.4872099"></polyline>
                            <g id="Kravatte" transform="translate(19.679069, 38.844340)" fill="#C0CFDB">
                                <path d="M2.10073702,6.94587633 L2.35383301,3.04345749 L2.12533107,3.04345749 L0.562031105,0.158528709 L6.33404535,0.158528709 L4.90103655,3.04345749 L4.63796752,3.04345749 L4.83146025,7.06079065 C4.69936541,7.06305322 4.56699695,7.06418909 4.43436403,7.06418909 C3.64651825,7.06418909 2.86800405,7.02411098 2.10073702,6.94587633 Z" id="Combined-Shape"></path>
                            </g>
                        </g>
                        <g id="exchange" stroke-width="1" transform="translate(20.186916, 21.000000)">
                            <path d="M19.8776197,20.6998035 C20.6190508,18.9333079 21.2475818,17.5475306 21.7634667,16.5426419 C22.1503592,15.797214 22.5133674,15.1691266 22.8518984,14.6585502 C23.1900905,14.1479738 23.6014603,13.6495742 24.0849065,13.1634367 C24.5689457,12.6771288 25.1248072,12.3120786 25.7538464,12.0692227 C26.3822079,11.8261114 27.0833236,11.7045131 27.8575321,11.7045131 L31.0568195,11.7045131 L31.0568195,16.3724214 C31.0568195,16.5830895 31.1333002,16.7655721 31.2863464,16.9193581 C31.4393925,17.0733996 31.6208119,17.1502926 31.8300964,17.1502926 C32.0561507,17.1502926 32.2416355,17.0775721 32.3859579,16.9316201 L40.1242319,9.15214192 C40.2697401,9.0061048 40.3421554,8.8199607 40.3421554,8.59294323 C40.3421554,8.36592576 40.2697401,8.17969651 40.1242319,8.03314847 L32.4103505,0.277598253 C32.2173277,0.115637555 32.0231192,0.0349978166 31.8300117,0.0349978166 C31.6039574,0.0349978166 31.4189807,0.107803493 31.2735572,0.253840611 C31.1292348,0.399707424 31.0567348,0.585936681 31.0567348,0.812868996 L31.0567348,5.48043668 L27.8574474,5.48043668 C26.7609696,5.48043668 25.7293692,5.61446725 24.7618838,5.88184716 C23.7943984,6.14922707 22.9358324,6.48941266 22.1863551,6.90291485 C21.4366238,7.31624672 20.711285,7.87127293 20.0099153,8.56833406 C19.3086303,9.26505459 18.7120298,9.93793231 18.2206221,10.5862009 C17.729045,11.2342991 17.2129907,12.0446135 16.673052,13.0172293 C16.133198,13.9896747 15.6978592,14.8406921 15.3673744,15.569941 C15.0368049,16.2993603 14.6378855,17.1989148 14.1704468,18.26869 C13.4287617,20.0352707 12.8000613,21.4212183 12.2842611,22.4260218 C11.8974533,23.1714498 11.5344451,23.7997074 11.1961682,24.3101987 C10.857722,24.8207751 10.4463522,25.3190895 9.96282126,25.8052271 C9.47912091,26.2918755 8.92292056,26.6566703 8.29422021,26.8997817 C7.66568925,27.1428079 6.96423481,27.2645764 6.19053446,27.2645764 L0.774039136,27.2645764 C0.548238902,27.2645764 0.362754089,27.3368712 0.217838785,27.4830786 C0.0730928738,27.6287751 0.000338785047,27.8147489 0.000338785047,28.0419367 L0.000338785047,32.7102707 C0.000338785047,32.9370328 0.0733469626,33.1235175 0.218431659,33.2697249 C0.363601051,33.4155066 0.549170561,33.4883122 0.774632009,33.4883122 L6.19129673,33.4883122 C7.28777453,33.4883122 8.3192903,33.3542817 9.286691,33.0867314 C10.2539223,32.8191812 11.112573,32.4788253 11.8619655,32.0656638 C12.6117815,31.6521616 13.3371203,31.0969651 14.0384054,30.3999039 C14.739521,29.7034389 15.3362909,29.0303057 15.827868,28.3822926 C16.3192757,27.7338537 16.8352453,26.9237096 17.3753534,25.9513493 C17.9152074,24.9785633 18.3507155,24.1277162 18.681031,23.3985524 C19.0112617,22.6691332 19.4100964,21.7698341 19.8776197,20.6998035 Z" id="Shape" fill="#6A7F91" fill-rule="nonzero"></path>
                            <path d="M0.77370035,11.7042576 L6.19036507,11.7042576 C6.89969626,11.7042576 7.55651577,11.8218537 8.16116238,12.0570459 C8.765809,12.292238 9.27356308,12.5757118 9.68459404,12.9081485 C10.0957097,13.2405852 10.5067407,13.6982817 10.9178563,14.2816638 C11.3288873,14.8653865 11.6553914,15.3801354 11.8971992,15.8255699 C12.1388376,16.2714301 12.4370532,16.8590699 12.7917611,17.5883188 C14.0333236,14.6547183 15.1373394,12.4423624 16.1046554,10.9512511 C13.5253154,7.30458079 10.220552,5.4809476 6.19028037,5.4809476 L0.77370035,5.4809476 C0.547900117,5.4809476 0.362415304,5.55375328 0.2175,5.69979039 C0.0727540888,5.8454869 0,6.03171616 0,6.25873362 L0,10.9266419 C0,11.1537445 0.0724153037,11.3397183 0.2175,11.4855 C0.362754089,11.6315371 0.548238902,11.7042576 0.77370035,11.7042576 Z" id="Shape" fill="#FFFFFF" fill-rule="nonzero"></path>
                            <path d="M32.4109433,22.0618231 C32.2173277,21.8998624 32.023712,21.819393 31.8300964,21.819393 C31.6046349,21.819393 31.4190654,21.8919432 31.2742348,22.0378952 C31.1293195,22.1835917 31.0569042,22.3700764 31.0569042,22.5967533 L31.0569042,27.2650873 L27.8570239,27.2650873 C27.1474387,27.2650873 26.4907039,27.147321 25.8860572,26.9119585 C25.2814106,26.6770218 24.7735718,26.393548 24.3626256,26.0610262 C23.9519334,25.728845 23.5406484,25.2708079 23.1296174,24.6870852 C22.7183324,24.1036179 22.3916589,23.5887838 22.1499357,23.1428384 C21.908382,22.6978297 21.6101665,22.1095087 21.2554585,21.3807707 C20.0142348,24.2980218 18.9181805,26.5103777 17.9668721,28.0178384 C18.4019568,28.6498428 18.8533879,29.2131288 19.3209112,29.7071004 C19.7882652,30.2013275 20.2317348,30.6349258 20.6508119,31.0078952 C21.0699737,31.3803537 21.5455432,31.7049563 22.0774357,31.98 C22.6095824,32.2556397 23.0768516,32.4864891 23.4802599,32.673059 C23.8843458,32.8594585 24.3915917,33.0093275 25.0039457,33.1229214 C25.6163843,33.2360044 26.1322693,33.3216681 26.5514311,33.3776135 C26.9705082,33.434155 27.5429702,33.4749432 28.2683937,33.4994672 C28.9935631,33.5239061 29.5820327,33.5314847 30.0329556,33.5239061 C30.4848102,33.5157314 30.5413581,33.4872052 31.0573277,33.4872052 L31.0573277,38.1551987 C31.0573277,38.3658668 31.1338084,38.5482642 31.2868546,38.7021354 C31.4399007,38.8560917 31.6213201,38.9329847 31.8306046,38.9329847 C32.0566589,38.9329847 32.2421437,38.860179 32.3864661,38.7144825 L40.1247401,30.9350895 C40.2696554,30.7887969 40.3420707,30.6029083 40.3420707,30.3756354 C40.3420707,30.1486179 40.2696554,29.9623886 40.1241472,29.8167773 L32.4109433,22.0618231 Z" id="Shape" fill="#FFFFFF" fill-rule="nonzero"></path>
                        </g>
                    </g>
                    <text id="Fund-Manager-B" font-family="SourceSansPro-Semibold, Source Sans Pro" font-size="15" font-weight="500" line-spacing="24" letter-spacing="0.1875" fill="#5C7C95">
                        <tspan x="0" y="101">Fund Manager B</tspan>
                    </text>
                </g>
                <g id="Group-Copy-2" transform="translate(0.000000, 546.000000)">
                    <g id="flowchart_user-copy">
                        <ellipse id="Oval-5" fill="#C0CFDB" cx="40" cy="40.5" rx="40" ry="40.125"></ellipse>
                        <g id="Group-2" stroke-width="1" transform="translate(17.196262, 18.000000)">
                            <path d="M16.0167854,35.8679535 L9.2126662,39.5909677 C8.81338565,39.8093592 8.45454946,40.0778167 8.12066832,40.3704441 C12.0876583,43.7257318 17.2086034,45.7499535 22.8036942,45.7499535 C28.3574802,45.7499535 33.4457256,43.7559441 37.4015288,40.4464064 C37.036669,40.1373781 36.6408305,39.8594252 36.2019661,39.6401705 L28.9159566,35.986213 C27.9745495,35.5140384 27.3799312,34.5489724 27.3799312,33.4932696 L27.3799312,30.6256941 C27.5847346,30.3917648 27.8187956,30.0913686 28.0692065,29.7365903 C29.0622448,28.329562 29.8134773,26.7818309 30.334091,25.1581375 C31.268614,24.868963 31.9570287,24.0031658 31.9570287,22.9742224 L31.9570287,19.9132884 C31.9570287,19.2399865 31.6584289,18.6383309 31.1946094,18.2170856 L31.1946094,13.7922837 C31.1946094,13.7922837 32.1007353,6.90647711 22.8045548,6.90647711 C13.5083742,6.90647711 14.4145001,13.7922837 14.4145001,13.7922837 L14.4145001,18.2170856 C13.9498201,18.6383309 13.6520808,19.2399865 13.6520808,19.9132884 L13.6520808,22.9742224 C13.6520808,23.7804582 14.0745953,24.4900148 14.7070764,24.9000384 C15.4694957,28.2294299 17.4658984,30.6256941 17.4658984,30.6256941 L17.4658984,33.4224865 C17.4650379,34.4410715 16.909143,35.3793781 16.0167854,35.8679535 Z" id="Shape" fill="#FFFFFF"></path>
                            <path d="M23.1935091,0.00340635667 C10.6015429,-0.21239553 0.218527599,9.85260447 0.00339799231,22.4839205 C-0.118795624,29.6459535 3.06340152,36.0828922 8.13013402,40.3635384 C8.46143361,40.0735007 8.81682772,39.8076328 9.21180568,39.5918309 L16.0159249,35.8688167 C16.9082825,35.3802413 17.4641774,34.4419347 17.4641774,33.4216233 L17.4641774,30.6248309 C17.4641774,30.6248309 15.4669141,28.2285667 14.7053553,24.8991752 C14.0737348,24.4891516 13.6503597,23.7804582 13.6503597,22.9733592 L13.6503597,19.9124252 C13.6503597,19.2391233 13.9489596,18.6374677 14.4127791,18.2162224 L14.4127791,13.7914205 C14.4127791,13.7914205 13.5066532,6.9056139 22.8028337,6.9056139 C32.0990143,6.9056139 31.1928884,13.7914205 31.1928884,13.7914205 L31.1928884,18.2162224 C31.6575683,18.6374677 31.9553077,19.2391233 31.9553077,19.9124252 L31.9553077,22.9733592 C31.9553077,24.0023026 31.266893,24.8680998 30.33237,25.1572743 C29.8117563,26.7809677 29.0605237,28.3286988 28.0674855,29.7357271 C27.8170746,30.0905054 27.5830136,30.3909016 27.3782102,30.6248309 L27.3782102,33.4924064 C27.3782102,34.5481092 27.9728284,35.5140384 28.9142356,35.9853498 L36.2002451,39.6393073 C36.6373885,39.858562 37.0323664,40.1356516 37.3963657,40.4438167 C42.3099259,36.3332224 45.4843784,30.1871847 45.6022694,23.2659865 C45.8191201,10.6346705 35.7863357,0.219208243 23.1935091,0.00340635667 Z" id="Shape" fill="#6A7F91"></path>
                        </g>
                    </g>
                    <text id="User" font-family="SourceSansPro-Semibold, Source Sans Pro" font-size="15" font-weight="500" line-spacing="24" letter-spacing="0.1875" fill="#5C7C95">
                        <tspan x="25" y="101">User</tspan>
                    </text>
                </g>
                <g id="Group-Copy-5" transform="translate(942.000000, 546.000000)">
                    <g id="flowchart_broker2-copy-5" transform="translate(13.000000, 0.000000)">
                        <g id="Kravatte" stroke-width="1" transform="translate(36.635514, 54.000000)"></g>
                        <ellipse id="Oval-5" fill="#DADCB6" cx="40" cy="40.125" rx="40" ry="40.125"></ellipse>
                        <g id="Group-3" opacity="0" stroke-width="1" transform="translate(16.448598, 17.250000)">
                            <path d="M17.6333149,35.26468 C18.0744656,34.7634175 18.3291938,34.1109231 18.3297761,33.4216698 L18.3297761,30.6248774 C18.3297761,30.6248774 16.3333733,28.2286132 15.570954,24.8992217 C14.9384729,24.4891981 14.5159584,23.7796415 14.5159584,22.9734057 L14.5159584,19.9124717 C14.5159584,19.2391698 14.8136978,18.6375142 15.2783777,18.2162689 L15.2783777,13.791467 C15.2783777,13.791467 14.3722518,6.90566038 23.6684324,6.90566038 C32.9646129,6.90566038 32.058487,13.791467 32.058487,13.791467 L32.058487,18.2162689 C32.5223065,18.6375142 32.8209064,19.2391698 32.8209064,19.9124717 L32.8209064,22.9734057 C32.8209064,24.0023491 32.1324916,24.8681462 31.1979686,25.1573208 C30.677355,26.7810142 29.9261224,28.3287453 28.9330841,29.7357736 C28.6826732,30.0905519 28.4486122,30.3909481 28.2438089,30.6248774 L28.2438089,33.4924528 C28.2438089,34.1751342 28.4924603,34.8199141 28.9227467,35.318017 C26.6208108,37.8569576 23.3055952,41.6500066 23.3055952,41.6500066 C23.3055952,41.6500066 19.8486843,37.6941811 17.6333149,35.26468 Z" id="Combined-Shape" fill="#FFFFFF"></path>
                            <path d="M23.9382989,0.0515431781 C11.3463327,-0.164258709 0.963317374,9.90074129 0.748187767,22.5320573 C0.62599415,29.6940903 3.80819129,36.131029 8.87492379,40.4116753 C9.20622339,40.1216375 9.5616175,39.8557696 9.95659546,39.6399677 L16.7607147,35.9169536 C17.6530723,35.4283781 18.2089672,34.4900715 18.2089672,33.4697602 L18.2089672,30.6729677 C18.2089672,30.6729677 16.2117039,28.2767036 15.4501451,24.947312 C14.8185246,24.5372885 14.3951495,23.8285951 14.3951495,23.021496 L14.3951495,19.960562 C14.3951495,19.2872602 14.6937494,18.6856045 15.1575688,18.2643592 L15.1575688,13.8395573 C15.1575688,13.8395573 14.2514429,6.95375073 23.5476235,6.95375073 C32.8438041,6.95375073 31.9376782,13.8395573 31.9376782,13.8395573 L31.9376782,18.2643592 C32.4023581,18.6856045 32.7000975,19.2872602 32.7000975,19.960562 L32.7000975,23.021496 C32.7000975,24.0504394 32.0116827,24.9162366 31.0771597,25.2054111 C30.5565461,26.8291045 29.8053135,28.3768356 28.8122752,29.7838639 C28.5618644,30.1386422 28.3278034,30.4390385 28.123,30.6729677 L28.123,33.5405432 C28.123,34.596246 28.7176182,35.5621753 29.6590254,36.0334866 L36.9450349,39.6874441 C37.3821782,39.9066988 37.7771562,40.1837885 38.1411555,40.4919536 C43.0547157,36.3813592 46.2291682,30.2353215 46.3470592,23.3141234 C46.5639099,10.6828073 36.5311255,0.267345065 23.9382989,0.0515431781 Z" id="Shape" fill="#6A7F91"></path>
                            <path d="M17.6759496,35.1902665 C17.4651637,35.4297743 17.2118172,35.6347557 16.9232977,35.7927232 L10.1191785,39.5157374 C9.71989799,39.7341289 9.3610618,40.0025864 9.02718065,40.2952138 C12.9941706,43.6505015 18.1151158,45.6747232 23.7102066,45.6747232 C29.2639925,45.6747232 34.352238,43.6807138 38.3080412,40.3711761 C37.9431814,40.0621478 37.5473429,39.7841949 37.1084785,39.5649402 L29.822469,35.9109827 C29.4898327,35.7441448 29.2004926,35.51577 28.9653814,35.2436035 C26.6634455,37.782544 23.3482299,41.575593 23.3482299,41.575593 C23.3482299,41.575593 19.891319,37.6197676 17.6759496,35.1902665 Z" id="Combined-Shape" fill-opacity="0.420855978" fill="#6A7F91"></path>
                            <polyline id="Path-25" stroke="#C0CFDB" stroke-width="1.5" points="17.4127902 35.4872099 23.0614353 41.3994984 29.1929823 35.4872099"></polyline>
                            <g id="Kravatte" transform="translate(19.679069, 38.844340)" fill="#C0CFDB">
                                <path d="M2.10073702,6.94587633 L2.35383301,3.04345749 L2.12533107,3.04345749 L0.562031105,0.158528709 L6.33404535,0.158528709 L4.90103655,3.04345749 L4.63796752,3.04345749 L4.83146025,7.06079065 C4.69936541,7.06305322 4.56699695,7.06418909 4.43436403,7.06418909 C3.64651825,7.06418909 2.86800405,7.02411098 2.10073702,6.94587633 Z" id="Combined-Shape"></path>
                            </g>
                        </g>
                        <g id="exchange" stroke-width="1" transform="translate(20.186916, 21.000000)">
                            <path d="M19.8776197,20.6998035 C20.6190508,18.9333079 21.2475818,17.5475306 21.7634667,16.5426419 C22.1503592,15.797214 22.5133674,15.1691266 22.8518984,14.6585502 C23.1900905,14.1479738 23.6014603,13.6495742 24.0849065,13.1634367 C24.5689457,12.6771288 25.1248072,12.3120786 25.7538464,12.0692227 C26.3822079,11.8261114 27.0833236,11.7045131 27.8575321,11.7045131 L31.0568195,11.7045131 L31.0568195,16.3724214 C31.0568195,16.5830895 31.1333002,16.7655721 31.2863464,16.9193581 C31.4393925,17.0733996 31.6208119,17.1502926 31.8300964,17.1502926 C32.0561507,17.1502926 32.2416355,17.0775721 32.3859579,16.9316201 L40.1242319,9.15214192 C40.2697401,9.0061048 40.3421554,8.8199607 40.3421554,8.59294323 C40.3421554,8.36592576 40.2697401,8.17969651 40.1242319,8.03314847 L32.4103505,0.277598253 C32.2173277,0.115637555 32.0231192,0.0349978166 31.8300117,0.0349978166 C31.6039574,0.0349978166 31.4189807,0.107803493 31.2735572,0.253840611 C31.1292348,0.399707424 31.0567348,0.585936681 31.0567348,0.812868996 L31.0567348,5.48043668 L27.8574474,5.48043668 C26.7609696,5.48043668 25.7293692,5.61446725 24.7618838,5.88184716 C23.7943984,6.14922707 22.9358324,6.48941266 22.1863551,6.90291485 C21.4366238,7.31624672 20.711285,7.87127293 20.0099153,8.56833406 C19.3086303,9.26505459 18.7120298,9.93793231 18.2206221,10.5862009 C17.729045,11.2342991 17.2129907,12.0446135 16.673052,13.0172293 C16.133198,13.9896747 15.6978592,14.8406921 15.3673744,15.569941 C15.0368049,16.2993603 14.6378855,17.1989148 14.1704468,18.26869 C13.4287617,20.0352707 12.8000613,21.4212183 12.2842611,22.4260218 C11.8974533,23.1714498 11.5344451,23.7997074 11.1961682,24.3101987 C10.857722,24.8207751 10.4463522,25.3190895 9.96282126,25.8052271 C9.47912091,26.2918755 8.92292056,26.6566703 8.29422021,26.8997817 C7.66568925,27.1428079 6.96423481,27.2645764 6.19053446,27.2645764 L0.774039136,27.2645764 C0.548238902,27.2645764 0.362754089,27.3368712 0.217838785,27.4830786 C0.0730928738,27.6287751 0.000338785047,27.8147489 0.000338785047,28.0419367 L0.000338785047,32.7102707 C0.000338785047,32.9370328 0.0733469626,33.1235175 0.218431659,33.2697249 C0.363601051,33.4155066 0.549170561,33.4883122 0.774632009,33.4883122 L6.19129673,33.4883122 C7.28777453,33.4883122 8.3192903,33.3542817 9.286691,33.0867314 C10.2539223,32.8191812 11.112573,32.4788253 11.8619655,32.0656638 C12.6117815,31.6521616 13.3371203,31.0969651 14.0384054,30.3999039 C14.739521,29.7034389 15.3362909,29.0303057 15.827868,28.3822926 C16.3192757,27.7338537 16.8352453,26.9237096 17.3753534,25.9513493 C17.9152074,24.9785633 18.3507155,24.1277162 18.681031,23.3985524 C19.0112617,22.6691332 19.4100964,21.7698341 19.8776197,20.6998035 Z" id="Shape" fill="#6A7F91" fill-rule="nonzero"></path>
                            <path d="M0.77370035,11.7042576 L6.19036507,11.7042576 C6.89969626,11.7042576 7.55651577,11.8218537 8.16116238,12.0570459 C8.765809,12.292238 9.27356308,12.5757118 9.68459404,12.9081485 C10.0957097,13.2405852 10.5067407,13.6982817 10.9178563,14.2816638 C11.3288873,14.8653865 11.6553914,15.3801354 11.8971992,15.8255699 C12.1388376,16.2714301 12.4370532,16.8590699 12.7917611,17.5883188 C14.0333236,14.6547183 15.1373394,12.4423624 16.1046554,10.9512511 C13.5253154,7.30458079 10.220552,5.4809476 6.19028037,5.4809476 L0.77370035,5.4809476 C0.547900117,5.4809476 0.362415304,5.55375328 0.2175,5.69979039 C0.0727540888,5.8454869 0,6.03171616 0,6.25873362 L0,10.9266419 C0,11.1537445 0.0724153037,11.3397183 0.2175,11.4855 C0.362754089,11.6315371 0.548238902,11.7042576 0.77370035,11.7042576 Z" id="Shape" fill="#FFFFFF" fill-rule="nonzero"></path>
                            <path d="M32.4109433,22.0618231 C32.2173277,21.8998624 32.023712,21.819393 31.8300964,21.819393 C31.6046349,21.819393 31.4190654,21.8919432 31.2742348,22.0378952 C31.1293195,22.1835917 31.0569042,22.3700764 31.0569042,22.5967533 L31.0569042,27.2650873 L27.8570239,27.2650873 C27.1474387,27.2650873 26.4907039,27.147321 25.8860572,26.9119585 C25.2814106,26.6770218 24.7735718,26.393548 24.3626256,26.0610262 C23.9519334,25.728845 23.5406484,25.2708079 23.1296174,24.6870852 C22.7183324,24.1036179 22.3916589,23.5887838 22.1499357,23.1428384 C21.908382,22.6978297 21.6101665,22.1095087 21.2554585,21.3807707 C20.0142348,24.2980218 18.9181805,26.5103777 17.9668721,28.0178384 C18.4019568,28.6498428 18.8533879,29.2131288 19.3209112,29.7071004 C19.7882652,30.2013275 20.2317348,30.6349258 20.6508119,31.0078952 C21.0699737,31.3803537 21.5455432,31.7049563 22.0774357,31.98 C22.6095824,32.2556397 23.0768516,32.4864891 23.4802599,32.673059 C23.8843458,32.8594585 24.3915917,33.0093275 25.0039457,33.1229214 C25.6163843,33.2360044 26.1322693,33.3216681 26.5514311,33.3776135 C26.9705082,33.434155 27.5429702,33.4749432 28.2683937,33.4994672 C28.9935631,33.5239061 29.5820327,33.5314847 30.0329556,33.5239061 C30.4848102,33.5157314 30.5413581,33.4872052 31.0573277,33.4872052 L31.0573277,38.1551987 C31.0573277,38.3658668 31.1338084,38.5482642 31.2868546,38.7021354 C31.4399007,38.8560917 31.6213201,38.9329847 31.8306046,38.9329847 C32.0566589,38.9329847 32.2421437,38.860179 32.3864661,38.7144825 L40.1247401,30.9350895 C40.2696554,30.7887969 40.3420707,30.6029083 40.3420707,30.3756354 C40.3420707,30.1486179 40.2696554,29.9623886 40.1241472,29.8167773 L32.4109433,22.0618231 Z" id="Shape" fill="#FFFFFF" fill-rule="nonzero"></path>
                        </g>
                    </g>
                    <text id="Fund-Manager-C" font-family="SourceSansPro-Semibold, Source Sans Pro" font-size="15" font-weight="500" line-spacing="24" letter-spacing="0.1875" fill="#5C7C95">
                        <tspan x="0" y="101">Fund Manager C</tspan>
                    </text>
                </g>
                <path d="M525.5,81.5 L525.5,596.814467" id="Line" stroke="#6A7F91" stroke-width="3" stroke-linecap="square"></path>
                <g id="Group-3" transform="translate(500.000000, 196.000000)">
                    <g id="Rectangle">
                        <use fill="#FFFFFF" fill-rule="evenodd" xlink:href="#path-1"></use>
                        <rect stroke="#FFFFFF" stroke-width="1" x="0.5" y="0.5" width="48" height="57"></rect>
                    </g>
                    <g id="contract" transform="translate(33.000000, 30.000000)">
                        <g>
                            <path d="M31.0119048,0 L0,0 L0,54 L40,54 L40,9.06870229 L31.0119048,9.06870229 L31.0119048,1.11022302e-16 Z" id="Combined-Shape" fill="#E0C0D8"></path>
                            <polygon id="XMLID_1239_" fill="#59607D" fill-rule="nonzero" transform="translate(35.619048, 4.609756) scale(-1, 1) translate(-35.619048, -4.609756) " points="40.2857143 0 30.952381 9.2195122 40.2857143 9.2195122"></polygon>
                            <path d="M20,43.0682927 C19.1146667,43.0682927 18.1638667,43.2879805 17.3333333,43.1907805 L17.3333333,50.0487805 L20,48.7317073 L22.6666667,50.0487805 L22.6666667,43.1907805 C21.836,43.2879805 20.8853333,43.0682927 20,43.0682927 Z" id="XMLID_1240_" fill="#B07FA5" fill-rule="nonzero"></path>
                            <path d="M16.4658667,30.8320244 C15.4541333,31.4102195 15.1570667,32.7834 14.5717333,33.7826634 C14.0042667,34.7513707 12.9333333,35.6783268 12.9333333,36.8780488 C12.9333333,38.077639 14.0042667,39.0047268 14.5717333,39.9734341 C15.1570667,40.9728293 15.4541333,42.345878 16.4658667,42.9240732 C16.7317333,43.0759317 17.0244,43.1546927 17.3333333,43.1906488 C18.1638667,43.2878488 19.1146667,43.068161 20,43.068161 C20.8853333,43.068161 21.836,43.2878488 22.6666667,43.1906488 C22.9754667,43.1546927 23.2682667,43.0759317 23.5341333,42.9240732 C24.5458667,42.345878 24.8429333,40.9728293 25.4282667,39.9734341 C25.9957333,39.0047268 27.0666667,38.0777707 27.0666667,36.8780488 C27.0666667,35.6783268 25.9957333,34.7513707 25.4282667,33.7826634 C24.8429333,32.7832683 24.5457333,31.4100878 23.5341333,30.8318927 C22.5534667,30.271478 21.2144,30.6878049 20,30.6878049 C18.7856,30.6878049 17.4465333,30.271478 16.4658667,30.8320244 Z M24,36.8780488 C24,39.0600439 22.2090667,40.8292683 20,40.8292683 C17.7909333,40.8292683 16,39.0600439 16,36.8780488 C16,34.695922 17.7909333,32.9268293 20,32.9268293 C22.2090667,32.9268293 24,34.695922 24,36.8780488 Z" id="XMLID_1241_" fill="#59607D" fill-rule="nonzero"></path>
                            <ellipse id="XMLID_1244_" fill="#B07FA5" fill-rule="nonzero" cx="20" cy="36.8780488" rx="4" ry="3.95121951"></ellipse>
                            <rect id="Rectangle-14" fill="#FFFFFF" x="9.22948552" y="14.0152672" width="21.541029" height="2.0610687"></rect>
                            <rect id="Rectangle-14-Copy" fill="#FFFFFF" x="9.22948552" y="18.5496183" width="21.541029" height="2.0610687"></rect>
                            <rect id="Rectangle-14-Copy-2" fill="#FFFFFF" x="9.22948552" y="23.0839695" width="21.541029" height="2.0610687"></rect>
                        </g>
                    </g>
                    <g id="Group-2" transform="translate(10.000000, 12.000000)">
                        <g id="Rectangle-24">
                            <use fill="#FFFFFF" fill-rule="evenodd" xlink:href="#path-2"></use>
                            <rect stroke="#6A7F91" stroke-width="3" x="1.5" y="14.5" width="27" height="19"></rect>
                        </g>
                        <circle id="Oval-14" fill="#6A7F91" cx="15" cy="22" r="2"></circle>
                        <rect id="Rectangle-27" fill="#6A7F91" x="14" y="23" width="2" height="5"></rect>
                        <path d="M23.9925018,13.9665146 C23.9925018,4.65550486 20.9920819,-1.40213767e-12 14.9912422,-2.61479727e-12 C8.9904024,-3.82881589e-12 5.99948934,4.65550486 6.01850299,13.9665146" id="Path-41" stroke="#6A7F91" stroke-width="3"></path>
                    </g>
                </g>
                <g id="Group-3-Copy-3" transform="translate(500.000000, 371.000000)">
                    <g id="Rectangle">
                        <use fill="#FFFFFF" fill-rule="evenodd" xlink:href="#path-3"></use>
                        <rect stroke="#FFFFFF" stroke-width="1" x="0.5" y="0.5" width="48" height="57"></rect>
                    </g>
                    <g id="contract" transform="translate(33.000000, 30.000000)">
                        <g>
                            <path d="M31.0119048,0 L0,0 L0,54 L40,54 L40,9.06870229 L31.0119048,9.06870229 L31.0119048,1.11022302e-16 Z" id="Combined-Shape" fill="#E0C0D8"></path>
                            <polygon id="XMLID_1239_" fill="#59607D" fill-rule="nonzero" transform="translate(35.619048, 4.609756) scale(-1, 1) translate(-35.619048, -4.609756) " points="40.2857143 0 30.952381 9.2195122 40.2857143 9.2195122"></polygon>
                            <path d="M20,43.0682927 C19.1146667,43.0682927 18.1638667,43.2879805 17.3333333,43.1907805 L17.3333333,50.0487805 L20,48.7317073 L22.6666667,50.0487805 L22.6666667,43.1907805 C21.836,43.2879805 20.8853333,43.0682927 20,43.0682927 Z" id="XMLID_1240_" fill="#B07FA5" fill-rule="nonzero"></path>
                            <path d="M16.4658667,30.8320244 C15.4541333,31.4102195 15.1570667,32.7834 14.5717333,33.7826634 C14.0042667,34.7513707 12.9333333,35.6783268 12.9333333,36.8780488 C12.9333333,38.077639 14.0042667,39.0047268 14.5717333,39.9734341 C15.1570667,40.9728293 15.4541333,42.345878 16.4658667,42.9240732 C16.7317333,43.0759317 17.0244,43.1546927 17.3333333,43.1906488 C18.1638667,43.2878488 19.1146667,43.068161 20,43.068161 C20.8853333,43.068161 21.836,43.2878488 22.6666667,43.1906488 C22.9754667,43.1546927 23.2682667,43.0759317 23.5341333,42.9240732 C24.5458667,42.345878 24.8429333,40.9728293 25.4282667,39.9734341 C25.9957333,39.0047268 27.0666667,38.0777707 27.0666667,36.8780488 C27.0666667,35.6783268 25.9957333,34.7513707 25.4282667,33.7826634 C24.8429333,32.7832683 24.5457333,31.4100878 23.5341333,30.8318927 C22.5534667,30.271478 21.2144,30.6878049 20,30.6878049 C18.7856,30.6878049 17.4465333,30.271478 16.4658667,30.8320244 Z M24,36.8780488 C24,39.0600439 22.2090667,40.8292683 20,40.8292683 C17.7909333,40.8292683 16,39.0600439 16,36.8780488 C16,34.695922 17.7909333,32.9268293 20,32.9268293 C22.2090667,32.9268293 24,34.695922 24,36.8780488 Z" id="XMLID_1241_" fill="#59607D" fill-rule="nonzero"></path>
                            <ellipse id="XMLID_1244_" fill="#B07FA5" fill-rule="nonzero" cx="20" cy="36.8780488" rx="4" ry="3.95121951"></ellipse>
                            <rect id="Rectangle-14" fill="#FFFFFF" x="9.22948552" y="14.0152672" width="21.541029" height="2.0610687"></rect>
                            <rect id="Rectangle-14-Copy" fill="#FFFFFF" x="9.22948552" y="18.5496183" width="21.541029" height="2.0610687"></rect>
                            <rect id="Rectangle-14-Copy-2" fill="#FFFFFF" x="9.22948552" y="23.0839695" width="21.541029" height="2.0610687"></rect>
                        </g>
                    </g>
                    <g id="Group-2" transform="translate(10.000000, 12.000000)">
                        <g id="Rectangle-24">
                            <use fill="#FFFFFF" fill-rule="evenodd" xlink:href="#path-4"></use>
                            <rect stroke="#6A7F91" stroke-width="3" x="1.5" y="14.5" width="27" height="19"></rect>
                        </g>
                        <circle id="Oval-14" fill="#6A7F91" cx="15" cy="22" r="2"></circle>
                        <rect id="Rectangle-27" fill="#6A7F91" x="14" y="23" width="2" height="5"></rect>
                        <path d="M23.9925018,13.9665146 C23.9925018,4.65550486 20.9920819,-1.40213767e-12 14.9912422,-2.61479727e-12 C8.9904024,-3.82881589e-12 5.99948934,4.65550486 6.01850299,13.9665146" id="Path-41" stroke="#6A7F91" stroke-width="3"></path>
                    </g>
                </g>
                <g id="Group-3-Copy-4" transform="translate(500.000000, 546.000000)">
                    <g id="Rectangle">
                        <use fill="#FFFFFF" fill-rule="evenodd" xlink:href="#path-5"></use>
                        <rect stroke="#FFFFFF" stroke-width="1" x="0.5" y="0.5" width="48" height="57"></rect>
                    </g>
                    <g id="contract" transform="translate(33.000000, 30.000000)">
                        <g>
                            <path d="M31.0119048,0 L0,0 L0,54 L40,54 L40,9.06870229 L31.0119048,9.06870229 L31.0119048,1.11022302e-16 Z" id="Combined-Shape" fill="#E0C0D8"></path>
                            <polygon id="XMLID_1239_" fill="#59607D" fill-rule="nonzero" transform="translate(35.619048, 4.609756) scale(-1, 1) translate(-35.619048, -4.609756) " points="40.2857143 0 30.952381 9.2195122 40.2857143 9.2195122"></polygon>
                            <path d="M20,43.0682927 C19.1146667,43.0682927 18.1638667,43.2879805 17.3333333,43.1907805 L17.3333333,50.0487805 L20,48.7317073 L22.6666667,50.0487805 L22.6666667,43.1907805 C21.836,43.2879805 20.8853333,43.0682927 20,43.0682927 Z" id="XMLID_1240_" fill="#B07FA5" fill-rule="nonzero"></path>
                            <path d="M16.4658667,30.8320244 C15.4541333,31.4102195 15.1570667,32.7834 14.5717333,33.7826634 C14.0042667,34.7513707 12.9333333,35.6783268 12.9333333,36.8780488 C12.9333333,38.077639 14.0042667,39.0047268 14.5717333,39.9734341 C15.1570667,40.9728293 15.4541333,42.345878 16.4658667,42.9240732 C16.7317333,43.0759317 17.0244,43.1546927 17.3333333,43.1906488 C18.1638667,43.2878488 19.1146667,43.068161 20,43.068161 C20.8853333,43.068161 21.836,43.2878488 22.6666667,43.1906488 C22.9754667,43.1546927 23.2682667,43.0759317 23.5341333,42.9240732 C24.5458667,42.345878 24.8429333,40.9728293 25.4282667,39.9734341 C25.9957333,39.0047268 27.0666667,38.0777707 27.0666667,36.8780488 C27.0666667,35.6783268 25.9957333,34.7513707 25.4282667,33.7826634 C24.8429333,32.7832683 24.5457333,31.4100878 23.5341333,30.8318927 C22.5534667,30.271478 21.2144,30.6878049 20,30.6878049 C18.7856,30.6878049 17.4465333,30.271478 16.4658667,30.8320244 Z M24,36.8780488 C24,39.0600439 22.2090667,40.8292683 20,40.8292683 C17.7909333,40.8292683 16,39.0600439 16,36.8780488 C16,34.695922 17.7909333,32.9268293 20,32.9268293 C22.2090667,32.9268293 24,34.695922 24,36.8780488 Z" id="XMLID_1241_" fill="#59607D" fill-rule="nonzero"></path>
                            <ellipse id="XMLID_1244_" fill="#B07FA5" fill-rule="nonzero" cx="20" cy="36.8780488" rx="4" ry="3.95121951"></ellipse>
                            <rect id="Rectangle-14" fill="#FFFFFF" x="9.22948552" y="14.0152672" width="21.541029" height="2.0610687"></rect>
                            <rect id="Rectangle-14-Copy" fill="#FFFFFF" x="9.22948552" y="18.5496183" width="21.541029" height="2.0610687"></rect>
                            <rect id="Rectangle-14-Copy-2" fill="#FFFFFF" x="9.22948552" y="23.0839695" width="21.541029" height="2.0610687"></rect>
                        </g>
                    </g>
                    <g id="Group-2" transform="translate(10.000000, 12.000000)">
                        <g id="Rectangle-24">
                            <use fill="#FFFFFF" fill-rule="evenodd" xlink:href="#path-6"></use>
                            <rect stroke="#6A7F91" stroke-width="3" x="1.5" y="14.5" width="27" height="19"></rect>
                        </g>
                        <circle id="Oval-14" fill="#6A7F91" cx="15" cy="22" r="2"></circle>
                        <rect id="Rectangle-27" fill="#6A7F91" x="14" y="23" width="2" height="5"></rect>
                        <path d="M23.9925018,13.9665146 C23.9925018,4.65550486 20.9920819,-1.40213767e-12 14.9912422,-2.61479727e-12 C8.9904024,-3.82881589e-12 5.99948934,4.65550486 6.01850299,13.9665146" id="Path-41" stroke="#6A7F91" stroke-width="3"></path>
                    </g>
                </g>
                <g id="Group-4" transform="translate(282.500000, 244.000000) scale(1, -1) translate(-282.500000, -244.000000) translate(122.000000, 196.000000)">
                    <g id="Arrow" transform="translate(4.000000, 50.000000)">
                        <path d="M305,11 C223.574975,60.2843758 83.484711,54.2714457 5,11" id="Path-40" stroke="#6A7F91" stroke-width="2"></path>
                        <g id="Triangle-7-Copy-4" transform="translate(307.921693, 8.921693) rotate(59.000000) translate(-307.921693, -8.921693) ">
                            <use fill="#FFFFFF" fill-rule="evenodd" xlink:href="#path-7"></use>
                            <path stroke="#6A7F91" stroke-width="2" d="M307.921693,5.15776058 L303.539727,13.9216926 L312.303659,13.9216926 L307.921693,5.15776058 Z"></path>
                        </g>
                        <g id="Oval-11-Copy-3">
                            <use fill="#FFFFFF" fill-rule="evenodd" xlink:href="#path-8"></use>
                            <circle stroke="#6A7F91" stroke-width="2" cx="5.5" cy="11.5" r="4.5"></circle>
                        </g>
                    </g>
                    <g id="Arrow-Copy" transform="translate(158.500000, 23.000000) rotate(-180.000000) translate(-158.500000, -23.000000) ">
                        <path d="M305,11 C223.574975,60.2843758 83.484711,54.2714457 5,11" id="Path-40" stroke="#6A7F91" stroke-width="2"></path>
                        <g id="Triangle-7-Copy-4" transform="translate(307.921693, 8.921693) rotate(59.000000) translate(-307.921693, -8.921693) ">
                            <use fill="#FFFFFF" fill-rule="evenodd" xlink:href="#path-9"></use>
                            <path stroke="#6A7F91" stroke-width="2" d="M307.921693,5.15776058 L303.539727,13.9216926 L312.303659,13.9216926 L307.921693,5.15776058 Z"></path>
                        </g>
                        <g id="Oval-11-Copy-3">
                            <use fill="#FFFFFF" fill-rule="evenodd" xlink:href="#path-10"></use>
                            <circle stroke="#6A7F91" stroke-width="2" cx="5.5" cy="11.5" r="4.5"></circle>
                        </g>
                    </g>
                </g>
                <g id="Group-4-Copy-3" transform="translate(763.500000, 244.000000) scale(1, -1) translate(-763.500000, -244.000000) translate(603.000000, 196.000000)">
                    <g id="Arrow" transform="translate(4.000000, 50.000000)">
                        <path d="M305,11 C223.574975,60.2843758 83.484711,54.2714457 5,11" id="Path-40" stroke="#6A7F91" stroke-width="2"></path>
                        <g id="Triangle-7-Copy-4" transform="translate(307.921693, 8.921693) rotate(59.000000) translate(-307.921693, -8.921693) ">
                            <use fill="#FFFFFF" fill-rule="evenodd" xlink:href="#path-11"></use>
                            <path stroke="#6A7F91" stroke-width="2" d="M307.921693,5.15776058 L303.539727,13.9216926 L312.303659,13.9216926 L307.921693,5.15776058 Z"></path>
                        </g>
                        <g id="Oval-11-Copy-3">
                            <use fill="#FFFFFF" fill-rule="evenodd" xlink:href="#path-12"></use>
                            <circle stroke="#6A7F91" stroke-width="2" cx="5.5" cy="11.5" r="4.5"></circle>
                        </g>
                    </g>
                    <g id="Arrow-Copy" transform="translate(158.500000, 23.000000) rotate(-180.000000) translate(-158.500000, -23.000000) ">
                        <path d="M305,11 C223.574975,60.2843758 83.484711,54.2714457 5,11" id="Path-40" stroke="#6A7F91" stroke-width="2"></path>
                        <g id="Triangle-7-Copy-4" transform="translate(307.921693, 8.921693) rotate(59.000000) translate(-307.921693, -8.921693) ">
                            <use fill="#FFFFFF" fill-rule="evenodd" xlink:href="#path-13"></use>
                            <path stroke="#6A7F91" stroke-width="2" d="M307.921693,5.15776058 L303.539727,13.9216926 L312.303659,13.9216926 L307.921693,5.15776058 Z"></path>
                        </g>
                        <g id="Oval-11-Copy-3">
                            <use fill="#FFFFFF" fill-rule="evenodd" xlink:href="#path-14"></use>
                            <circle stroke="#6A7F91" stroke-width="2" cx="5.5" cy="11.5" r="4.5"></circle>
                        </g>
                    </g>
                </g>
                <g id="Group-4-Copy-4" transform="translate(763.500000, 407.000000) scale(1, -1) translate(-763.500000, -407.000000) translate(603.000000, 359.000000)">
                    <g id="Arrow" transform="translate(4.000000, 50.000000)">
                        <path d="M305,11 C223.574975,60.2843758 83.484711,54.2714457 5,11" id="Path-40" stroke="#6A7F91" stroke-width="2"></path>
                        <g id="Triangle-7-Copy-4" transform="translate(307.921693, 8.921693) rotate(59.000000) translate(-307.921693, -8.921693) ">
                            <use fill="#FFFFFF" fill-rule="evenodd" xlink:href="#path-15"></use>
                            <path stroke="#6A7F91" stroke-width="2" d="M307.921693,5.15776058 L303.539727,13.9216926 L312.303659,13.9216926 L307.921693,5.15776058 Z"></path>
                        </g>
                        <g id="Oval-11-Copy-3">
                            <use fill="#FFFFFF" fill-rule="evenodd" xlink:href="#path-16"></use>
                            <circle stroke="#6A7F91" stroke-width="2" cx="5.5" cy="11.5" r="4.5"></circle>
                        </g>
                    </g>
                    <g id="Arrow-Copy" transform="translate(158.500000, 23.000000) rotate(-180.000000) translate(-158.500000, -23.000000) ">
                        <path d="M305,11 C223.574975,60.2843758 83.484711,54.2714457 5,11" id="Path-40" stroke="#6A7F91" stroke-width="2"></path>
                        <g id="Triangle-7-Copy-4" transform="translate(307.921693, 8.921693) rotate(59.000000) translate(-307.921693, -8.921693) ">
                            <use fill="#FFFFFF" fill-rule="evenodd" xlink:href="#path-17"></use>
                            <path stroke="#6A7F91" stroke-width="2" d="M307.921693,5.15776058 L303.539727,13.9216926 L312.303659,13.9216926 L307.921693,5.15776058 Z"></path>
                        </g>
                        <g id="Oval-11-Copy-3">
                            <use fill="#FFFFFF" fill-rule="evenodd" xlink:href="#path-18"></use>
                            <circle stroke="#6A7F91" stroke-width="2" cx="5.5" cy="11.5" r="4.5"></circle>
                        </g>
                    </g>
                </g>
                <g id="Group-4-Copy-5" transform="translate(763.500000, 591.000000) scale(1, -1) translate(-763.500000, -591.000000) translate(603.000000, 543.000000)">
                    <g id="Arrow" transform="translate(4.000000, 50.000000)">
                        <path d="M305,11 C223.574975,60.2843758 83.484711,54.2714457 5,11" id="Path-40" stroke="#6A7F91" stroke-width="2"></path>
                        <g id="Triangle-7-Copy-4" transform="translate(307.921693, 8.921693) rotate(59.000000) translate(-307.921693, -8.921693) ">
                            <use fill="#FFFFFF" fill-rule="evenodd" xlink:href="#path-19"></use>
                            <path stroke="#6A7F91" stroke-width="2" d="M307.921693,5.15776058 L303.539727,13.9216926 L312.303659,13.9216926 L307.921693,5.15776058 Z"></path>
                        </g>
                        <g id="Oval-11-Copy-3">
                            <use fill="#FFFFFF" fill-rule="evenodd" xlink:href="#path-20"></use>
                            <circle stroke="#6A7F91" stroke-width="2" cx="5.5" cy="11.5" r="4.5"></circle>
                        </g>
                    </g>
                    <g id="Arrow-Copy" transform="translate(158.500000, 23.000000) rotate(-180.000000) translate(-158.500000, -23.000000) ">
                        <path d="M305,11 C223.574975,60.2843758 83.484711,54.2714457 5,11" id="Path-40" stroke="#6A7F91" stroke-width="2"></path>
                        <g id="Triangle-7-Copy-4" transform="translate(307.921693, 8.921693) rotate(59.000000) translate(-307.921693, -8.921693) ">
                            <use fill="#FFFFFF" fill-rule="evenodd" xlink:href="#path-21"></use>
                            <path stroke="#6A7F91" stroke-width="2" d="M307.921693,5.15776058 L303.539727,13.9216926 L312.303659,13.9216926 L307.921693,5.15776058 Z"></path>
                        </g>
                        <g id="Oval-11-Copy-3">
                            <use fill="#FFFFFF" fill-rule="evenodd" xlink:href="#path-22"></use>
                            <circle stroke="#6A7F91" stroke-width="2" cx="5.5" cy="11.5" r="4.5"></circle>
                        </g>
                    </g>
                </g>
                <g id="flowchart_cryptofund-copy" transform="translate(443.000000, 562.000000)">
                    <ellipse id="Oval-5" fill="#DADCB6" cx="28.5" cy="29" rx="28.5" ry="28.7314815"></ellipse>
                    <g id="Group-3" stroke-width="1" transform="translate(11.719626, 12.888889)">
                        <g id="bitcoin" transform="translate(11.698318, 0.655185)" fill="#6A7F91">
                            <path d="M0.139444484,24.3922339 L7.71117194,18.0494185 L6.58707853,22.6812301 C8.43984898,23.0907336 14.101092,24.9334993 14.9245456,21.5550954 C15.707793,18.2442687 10.4378788,17.3416322 8.32697752,16.8208792 L8.32697752,15.7244444 L5.56477419,11.7398903 L4.14360212,12.1041124 L5.04310316,8.45098328 C5.04310316,7.83672803 4.83723977,7.12009689 3.80792286,6.91534514 L1.85222071,6.40346576 L2.57274256,3.53694123 L6.27828346,4.45832411 C6.79294192,4.56069999 7.41053207,4.76545174 8.02812222,4.86782762 L9.16037083,0.465664947 L11.8365948,1.18229608 L10.7043462,5.48208288 C11.424868,5.68683463 12.1453899,5.7892105 12.8659117,5.99396226 L13.8952286,1.69417546 L16.5714526,2.41080659 L15.439204,6.81296926 C19.0418132,7.9391039 21.6151055,9.67949379 21.1004471,12.9555218 C20.791652,15.310167 19.45354,16.5386775 17.6007695,16.948181 C20.0711301,18.1766915 21.3063104,20.1218332 20.0711301,23.5002371 C18.6300865,27.697648 15.1304089,28.0047756 10.4984828,27.1857686 L9.36623421,31.6903072 L6.69001022,30.8713001 L7.82225883,26.4691375 C7.10173699,26.2643857 6.38121515,26.059634 5.66069331,25.9572581 L4.5284447,30.3594208 L1.85222071,29.6427896 L2.98446932,25.1382511 C2.36687917,24.9334993 1.74928902,24.8311235 1.02876718,24.6263717 L0.139444484,24.3922339 Z M10.0867561,8.65573503 L8.74864406,14.0816565 C10.2926194,14.49116 15.0274773,16.0267981 15.7479991,12.9555218 C16.4685209,9.78186967 11.6307314,9.06523854 10.0867561,8.65573503 Z" id="Combined-Shape"></path>
                        </g>
                        <g id="ethereum" fill="#FFFFFF">
                            <polygon id="Path-21" points="0.693280626 16.3796296 10.1649919 22.6427698 20.0474157 16.3526202 10.1677626 4.16093826e-13"></polygon>
                            <polygon id="Path-22" points="0.561880235 18.1748381 10.2660074 32.4354049 19.99604 18.1748381 10.2660074 24.5605086"></polygon>
                        </g>
                    </g>
                </g>
                <g id="flowchart_etf-copy" transform="translate(443.000000, 384.000000)">
                    <ellipse id="Oval-5" fill="#DBCBC0" cx="28.5" cy="29" rx="28.5" ry="28.7314815"></ellipse>
                    <g id="Group-Copy" stroke-width="1" transform="translate(14.915888, 11.277778)">
                        <path d="M5.72771402,4.1838932 C3.52212508,4.1838932 1.73414198,5.96911809 1.73414198,8.17572017 L1.73414198,28.0532405 C1.73414198,30.2578657 3.51548945,32.0450675 5.72771402,32.0450675 L21.4405103,32.0450675 C23.6460992,32.0450675 25.4340823,30.2598426 25.4340823,28.0532405 L25.4340823,8.17572017 C25.4340823,5.97109501 23.6527348,4.1838932 21.4405103,4.1838932 L5.72771402,4.1838932 Z" id="Shape" fill="#FFFFFF"></path>
                        <path d="M12.6206999,10.113653 L5.10608471,10.113653 C4.78642454,10.113653 4.52803738,9.84347958 4.52803738,9.50923821 C4.52803738,9.17499683 4.78642454,8.90482343 5.10608471,8.90482343 L12.6206999,8.90482343 C12.9403601,8.90482343 13.1987473,9.17499683 13.1987473,9.50923821 C13.1987473,9.84347958 12.9403601,10.113653 12.6206999,10.113653 Z" id="Shape" fill="#6A7F91" opacity="0.812386775"></path>
                        <path d="M12.6206999,13.485746 L5.10608471,13.485746 C4.78642454,13.485746 4.52803738,13.2155726 4.52803738,12.8813312 C4.52803738,12.5470899 4.78642454,12.2769165 5.10608471,12.2769165 L12.6206999,12.2769165 C12.9403601,12.2769165 13.1987473,12.5470899 13.1987473,12.8813312 C13.1987473,13.2155726 12.9403601,13.485746 12.6206999,13.485746 Z" id="Shape-Copy-2" fill="#6A7F91" opacity="0.812386775"></path>
                        <path d="M17.0331279,28.5585864 L5.51071784,28.5585864 C5.02057224,28.5585864 4.6243786,28.288413 4.6243786,27.9541717 C4.6243786,27.6199303 5.02057224,27.3497569 5.51071784,27.3497569 L17.0331279,27.3497569 C17.5232735,27.3497569 17.9194671,27.6199303 17.9194671,27.9541717 C17.9194671,28.288413 17.5232735,28.5585864 17.0331279,28.5585864 Z" id="Shape" fill="#6A7F91" opacity="0.812386775"></path>
                        <path d="M21.8694571,17.0747057 L5.10608471,17.0747057 C4.78642454,17.0747057 4.52803738,16.8045323 4.52803738,16.4702909 C4.52803738,16.1360495 4.78642454,15.8658761 5.10608471,15.8658761 L21.8694571,15.8658761 C22.1891173,15.8658761 22.4475045,16.1360495 22.4475045,16.4702909 C22.4475045,16.8045323 22.1891173,17.0747057 21.8694571,17.0747057 Z" id="Shape-Copy" fill="#6A7F91" opacity="0.812386775"></path>
                        <path d="M21.9657984,20.7011943 L5.20242593,20.7011943 C4.88276576,20.7011943 4.6243786,20.4310209 4.6243786,20.0967795 C4.6243786,19.7625382 4.88276576,19.4923648 5.20242593,19.4923648 L21.9657984,19.4923648 C22.2854585,19.4923648 22.5438457,19.7625382 22.5438457,20.0967795 C22.5438457,20.4310209 22.2854585,20.7011943 21.9657984,20.7011943 Z" id="Shape" fill="#6A7F91" opacity="0.812386775"></path>
                        <path d="M21.9657984,24.9320978 L5.20242593,24.9320978 C4.88276576,24.9320978 4.6243786,24.6619244 4.6243786,24.327683 C4.6243786,23.9934416 4.88276576,23.7232682 5.20242593,23.7232682 L21.9657984,23.7232682 C22.2854585,23.7232682 22.5438457,23.9934416 22.5438457,24.327683 C22.5438457,24.6619244 22.2854585,24.9320978 21.9657984,24.9320978 Z" id="Shape" fill="#6A7F91" opacity="0.812386775"></path>
                        <path d="M15.5246996,3.84202794 C15.5246996,3.28589269 15.9815235,2.83505599 16.5254962,2.83505599 L20.3456653,2.83505599 C20.89839,2.83505599 21.3464619,3.28279295 21.3464619,3.84202794 L21.3464619,12.9513351 L18.4355808,10.3791316 L15.5246996,12.9513351 L15.5246996,3.84202794 Z" id="Rectangle-9" fill="#6A7F91"></path>
                    </g>
                </g>
                <g id="flowchart_realestate-copy" transform="translate(443.000000, 215.000000)">
                    <ellipse id="Oval-5" fill="#C0DBD2" cx="28.5" cy="29" rx="28.5" ry="28.7314815"></ellipse>
                    <g id="Group-2" stroke-width="1" transform="translate(12.785047, 13.962963)">
                        <path d="M3.19626168,11.2777778 L15.7149533,2.02511687 L28.7663551,11.2777778 L28.7663551,24.4554892 C28.7663551,26.6687559 26.9683158,28.462963 24.771028,28.462963 L7.19158879,28.462963 C4.98503056,28.462963 3.19626168,26.6724803 3.19626168,24.4554892 L3.19626168,11.2777778 Z" id="Rectangle" fill="#FFFFFF"></path>
                        <path d="M29.3181591,13.7697506 L15.9578954,3.61640785 L2.5975238,13.7697506 C1.88446965,14.3116985 0.86855104,14.1709567 0.32857772,13.4553298 C-0.211503572,12.7398113 -0.0711385823,11.7204898 0.641915567,11.1785419 L14.8676914,0.367537529 C15.5125065,-0.12251251 16.4033923,-0.12251251 17.0480995,0.367537529 L31.2738753,11.1785419 C31.9869295,11.7204898 32.1271865,12.7398113 31.5872132,13.4553298 C31.0471319,14.1709567 30.0312133,14.3116985 29.3181591,13.7697506 Z" id="XMLID_991_" fill="#6A7F91"></path>
                        <path d="M11.1869159,22.2627472 C11.1869159,20.0516819 12.9680206,18.2592593 15.18399,18.2592593 L16.7786269,18.2592593 C18.9861499,18.2592593 20.7757009,20.0599886 20.7757009,22.2627472 L20.7757009,28.462963 L11.1869159,28.462963 L11.1869159,22.2627472 Z" id="Rectangle-2" fill="#6A7F91"></path>
                    </g>
                </g>
                <g id="Group-4-Copy" transform="translate(282.500000, 413.000000) scale(1, -1) translate(-282.500000, -413.000000) translate(122.000000, 365.000000)">
                    <g id="Arrow" transform="translate(4.000000, 50.000000)">
                        <path d="M305,11 C223.574975,60.2843758 83.484711,54.2714457 5,11" id="Path-40" stroke="#6A7F91" stroke-width="2"></path>
                        <g id="Triangle-7-Copy-4" transform="translate(307.921693, 8.921693) rotate(59.000000) translate(-307.921693, -8.921693) ">
                            <use fill="#FFFFFF" fill-rule="evenodd" xlink:href="#path-23"></use>
                            <path stroke="#6A7F91" stroke-width="2" d="M307.921693,5.15776058 L303.539727,13.9216926 L312.303659,13.9216926 L307.921693,5.15776058 Z"></path>
                        </g>
                        <g id="Oval-11-Copy-3">
                            <use fill="#FFFFFF" fill-rule="evenodd" xlink:href="#path-24"></use>
                            <circle stroke="#6A7F91" stroke-width="2" cx="5.5" cy="11.5" r="4.5"></circle>
                        </g>
                    </g>
                    <g id="Arrow-Copy" transform="translate(158.500000, 23.000000) rotate(-180.000000) translate(-158.500000, -23.000000) ">
                        <path d="M305,11 C223.574975,60.2843758 83.484711,54.2714457 5,11" id="Path-40" stroke="#6A7F91" stroke-width="2"></path>
                        <g id="Triangle-7-Copy-4" transform="translate(307.921693, 8.921693) rotate(59.000000) translate(-307.921693, -8.921693) ">
                            <use fill="#FFFFFF" fill-rule="evenodd" xlink:href="#path-25"></use>
                            <path stroke="#6A7F91" stroke-width="2" d="M307.921693,5.15776058 L303.539727,13.9216926 L312.303659,13.9216926 L307.921693,5.15776058 Z"></path>
                        </g>
                        <g id="Oval-11-Copy-3">
                            <use fill="#FFFFFF" fill-rule="evenodd" xlink:href="#path-26"></use>
                            <circle stroke="#6A7F91" stroke-width="2" cx="5.5" cy="11.5" r="4.5"></circle>
                        </g>
                    </g>
                </g>
                <g id="Group-4-Copy-2" transform="translate(282.500000, 588.000000) scale(1, -1) translate(-282.500000, -588.000000) translate(122.000000, 540.000000)">
                    <g id="Arrow" transform="translate(4.000000, 50.000000)">
                        <path d="M305,11 C223.574975,60.2843758 83.484711,54.2714457 5,11" id="Path-40" stroke="#6A7F91" stroke-width="2"></path>
                        <g id="Triangle-7-Copy-4" transform="translate(307.921693, 8.921693) rotate(59.000000) translate(-307.921693, -8.921693) ">
                            <use fill="#FFFFFF" fill-rule="evenodd" xlink:href="#path-27"></use>
                            <path stroke="#6A7F91" stroke-width="2" d="M307.921693,5.15776058 L303.539727,13.9216926 L312.303659,13.9216926 L307.921693,5.15776058 Z"></path>
                        </g>
                        <g id="Oval-11-Copy-3">
                            <use fill="#FFFFFF" fill-rule="evenodd" xlink:href="#path-28"></use>
                            <circle stroke="#6A7F91" stroke-width="2" cx="5.5" cy="11.5" r="4.5"></circle>
                        </g>
                    </g>
                    <g id="Arrow-Copy" transform="translate(158.500000, 23.000000) rotate(-180.000000) translate(-158.500000, -23.000000) ">
                        <path d="M305,11 C223.574975,60.2843758 83.484711,54.2714457 5,11" id="Path-40" stroke="#6A7F91" stroke-width="2"></path>
                        <g id="Triangle-7-Copy-4" transform="translate(307.921693, 8.921693) rotate(59.000000) translate(-307.921693, -8.921693) ">
                            <use fill="#FFFFFF" fill-rule="evenodd" xlink:href="#path-29"></use>
                            <path stroke="#6A7F91" stroke-width="2" d="M307.921693,5.15776058 L303.539727,13.9216926 L312.303659,13.9216926 L307.921693,5.15776058 Z"></path>
                        </g>
                        <g id="Oval-11-Copy-3">
                            <use fill="#FFFFFF" fill-rule="evenodd" xlink:href="#path-30"></use>
                            <circle stroke="#6A7F91" stroke-width="2" cx="5.5" cy="11.5" r="4.5"></circle>
                        </g>
                    </g>
                </g>
                <text id="ETH" font-family="SourceSansPro-Semibold, Source Sans Pro" font-size="16" font-weight="500" line-spacing="24" letter-spacing="0.200000003" fill="#5C7C95">
                    <tspan x="268" y="213">ETH</tspan>
                </text>
                <text id="ETH-Copy-5" font-family="SourceSansPro-Semibold, Source Sans Pro" font-size="16" font-weight="500" line-spacing="24" letter-spacing="0.200000003" fill="#5C7C95">
                    <tspan x="268" y="213">ETH</tspan>
                </text>
                <rect id="Rectangle-17" fill="#FFFFFF" x="518" y="119" width="15" height="34"></rect>
                <g id="contract" transform="translate(481.000000, 0.000000)">
                    <g>
                        <path d="M68.2261905,0 L0,0 L0,120 L88,120 L88,20.1526718 L68.2261905,20.1526718 L68.2261905,2.22044605e-16 Z" id="Combined-Shape" fill="#E0C0D8"></path>
                        <polygon id="XMLID_1239_" fill="#59607D" fill-rule="nonzero" transform="translate(78.361905, 10.243902) scale(-1, 1) translate(-78.361905, -10.243902) " points="88.6285714 0 68.0952381 20.4878049 88.6285714 20.4878049"></polygon>
                        <path d="M44,95.7073171 C42.0522667,95.7073171 39.9605067,96.1955122 38.1333333,95.9795122 L38.1333333,111.219512 L44,108.292683 L49.8666667,111.219512 L49.8666667,95.9795122 C48.0392,96.1955122 45.9477333,95.7073171 44,95.7073171 Z" id="XMLID_1240_" fill="#B07FA5" fill-rule="nonzero"></path>
                        <path d="M36.2249067,68.5156098 C33.9990933,69.8004878 33.3455467,72.852 32.0578133,75.0725854 C30.8093867,77.2252683 28.4533333,79.2851707 28.4533333,81.9512195 C28.4533333,84.6169756 30.8093867,86.6771707 32.0578133,88.8298537 C33.3455467,91.0507317 33.9990933,94.1019512 36.2249067,95.3868293 C36.8098133,95.7242927 37.45368,95.8993171 38.1333333,95.9792195 C39.9605067,96.1952195 42.0522667,95.7070244 44,95.7070244 C45.9477333,95.7070244 48.0392,96.1952195 49.8666667,95.9792195 C50.5460267,95.8993171 51.1901867,95.7242927 51.7750933,95.3868293 C54.0009067,94.1019512 54.6544533,91.0507317 55.9421867,88.8298537 C57.1906133,86.6771707 59.5466667,84.6172683 59.5466667,81.9512195 C59.5466667,79.2851707 57.1906133,77.2252683 55.9421867,75.0725854 C54.6544533,72.8517073 54.0006133,69.8001951 51.7750933,68.5153171 C49.6176267,67.2699512 46.67168,68.195122 44,68.195122 C41.32832,68.195122 38.3823733,67.2699512 36.2249067,68.5156098 Z M52.8,81.9512195 C52.8,86.8000976 48.8599467,90.7317073 44,90.7317073 C39.1400533,90.7317073 35.2,86.8000976 35.2,81.9512195 C35.2,77.1020488 39.1400533,73.1707317 44,73.1707317 C48.8599467,73.1707317 52.8,77.1020488 52.8,81.9512195 Z" id="XMLID_1241_" fill="#59607D" fill-rule="nonzero"></path>
                        <ellipse id="XMLID_1244_" fill="#B07FA5" fill-rule="nonzero" cx="44" cy="81.9512195" rx="8.8" ry="8.7804878"></ellipse>
                        <rect id="Rectangle-14" fill="#FFFFFF" x="20.3048681" y="31.1450382" width="47.3902637" height="4.58015267"></rect>
                        <rect id="Rectangle-14-Copy" fill="#FFFFFF" x="20.3048681" y="41.221374" width="47.3902637" height="4.58015267"></rect>
                        <rect id="Rectangle-14-Copy-2" fill="#FFFFFF" x="20.3048681" y="51.2977099" width="47.3902637" height="4.58015267"></rect>
                    </g>
                </g>
                <text id="Parent-Smart-Contrac" font-family="SourceSansPro-Semibold, Source Sans Pro" font-size="16" font-weight="500" line-spacing="24" letter-spacing="0.200000003" fill="#5C7C95">
                    <tspan x="445.512" y="141">Parent Smart Contract</tspan>
                </text>
                <text id="ETH-Copy" font-family="SourceSansPro-Semibold, Source Sans Pro" font-size="16" font-weight="500" line-spacing="24" letter-spacing="0.200000003" fill="#5C7C95">
                    <tspan x="749" y="213">ETH</tspan>
                </text>
                <text id="ETH-Copy-3" font-family="SourceSansPro-Semibold, Source Sans Pro" font-size="16" font-weight="500" line-spacing="24" letter-spacing="0.200000003" fill="#5C7C95">
                    <tspan x="749" y="376">ETH</tspan>
                </text>
                <text id="ETH-Copy-4" font-family="SourceSansPro-Semibold, Source Sans Pro" font-size="16" font-weight="500" line-spacing="24" letter-spacing="0.200000003" fill="#5C7C95">
                    <tspan x="749" y="560">ETH</tspan>
                </text>
                <text id="PoA-Token" font-family="SourceSansPro-Semibold, Source Sans Pro" font-size="16" font-weight="500" line-spacing="24" letter-spacing="0.200000003" fill="#70B49D">
                    <tspan x="245" y="280">PoA-Token</tspan>
                </text>
                <text id="Security-paper" font-family="SourceSansPro-Semibold, Source Sans Pro" font-size="16" font-weight="500" line-spacing="24" letter-spacing="0.200000003" fill="#70B49E">
                    <tspan x="712" y="280">Security paper</tspan>
                </text>
                <text id="Security-paper" font-family="SourceSansPro-Semibold, Source Sans Pro" font-size="16" font-weight="500" line-spacing="24" letter-spacing="0.200000003" fill="#B79177">
                    <tspan x="712" y="442">Security paper</tspan>
                </text>
                <text id="Dividends" font-family="SourceSansPro-Semibold, Source Sans Pro" font-size="16" font-weight="500" line-spacing="24" letter-spacing="0.200000003" fill="#A3A663">
                    <tspan x="728" y="627">Dividends</tspan>
                </text>
                <text id="PoA-Token" font-family="SourceSansPro-Semibold, Source Sans Pro" font-size="16" font-weight="500" line-spacing="24" letter-spacing="0.200000003" fill="#B79177">
                    <tspan x="245" y="450">PoA-Token</tspan>
                </text>
                <text id="PoA-Token" font-family="SourceSansPro-Semibold, Source Sans Pro" font-size="16" font-weight="500" line-spacing="24" letter-spacing="0.200000003" fill="#A3A663">
                    <tspan x="245" y="626">PoA-Token</tspan>
                </text>
                <text id="ETH" font-family="SourceSansPro-Semibold, Source Sans Pro" font-size="16" font-weight="500" line-spacing="24" letter-spacing="0.200000003" fill="#5C7C95">
                    <tspan x="268" y="381">ETH</tspan>
                </text>
                <text id="ETH-Copy-2" font-family="SourceSansPro-Semibold, Source Sans Pro" font-size="16" font-weight="500" line-spacing="24" letter-spacing="0.200000003" fill="#5C7C95">
                    <tspan x="268" y="557">ETH</tspan>
                </text>
            </g>
        </g>
    </g>
</svg>