<?xml version="1.0" encoding="UTF-8"?>
<svg width="80px" height="81px" viewBox="0 0 80 81" version="1.1" xmlns="http://www.w3.org/2000/svg" xmlns:xlink="http://www.w3.org/1999/xlink">
    <!-- Generator: Sketch 44 (41411) - http://www.bohemiancoding.com/sketch -->
    <title>flowchart_cryptofund copy 2</title>
    <desc>Created with Sketch.</desc>
    <defs>
        <filter x="-19.7%" y="-10.5%" width="140.3%" height="131.6%" filterUnits="objectBoundingBox" id="filter-1">
            <feOffset dx="0" dy="3" in="SourceAlpha" result="shadowOffsetOuter1"></feOffset>
            <feGaussianBlur stdDeviation="2.5" in="shadowOffsetOuter1" result="shadowBlurOuter1"></feGaussianBlur>
            <feColorMatrix values="0 0 0 0 0.152941176   0 0 0 0 0.250980392   0 0 0 0 0.368627451  0 0 0 0.269389719 0" type="matrix" in="shadowBlurOuter1" result="shadowMatrixOuter1"></feColorMatrix>
            <feMerge>
                <feMergeNode in="shadowMatrixOuter1"></feMergeNode>
                <feMergeNode in="SourceGraphic"></feMergeNode>
            </feMerge>
        </filter>
    </defs>
    <g id="Master-(version-for-CodeRiver)" stroke="none" stroke-width="1" fill="none" fill-rule="evenodd">
        <g id="Home" transform="translate(-581.000000, -1384.000000)">
            <g id="flowchart_etf-copy-3" transform="translate(581.000000, 1384.000000)">
                <ellipse id="Oval-5" fill-opacity="0.270000011" fill="#C0CFDB" cx="40" cy="40.5" rx="40" ry="40.125"></ellipse>
                <g id="Group-Copy" filter="url(#filter-1)" stroke-width="1" transform="translate(17.196262, 11.250000)">
                    <path d="M7.71014573,7.02988735 C5.05971454,7.02988735 2.91111553,9.1784177 2.91111553,11.8306156 L2.91111553,49.0422367 C2.91111553,51.6936057 5.0642496,53.8429649 7.71014573,53.8429649 L37.8973309,53.8429649 C40.5477621,53.8429649 42.6963611,51.6944346 42.6963611,49.0422367 L42.6963611,11.8306156 C42.6963611,9.17924658 40.543227,7.02988735 37.8973309,7.02988735 L7.71014573,7.02988735 Z" id="Shape" fill="#FFFFFF"></path>
                    <path d="M21.1864519,16.9932257 L8.57161795,16.9932257 C8.03500232,16.9932257 7.60124611,16.5392732 7.60124611,15.9776721 C7.60124611,15.4160709 8.03500232,14.9621185 8.57161795,14.9621185 L21.1864519,14.9621185 C21.7230675,14.9621185 22.1568238,15.4160709 22.1568238,15.9776721 C22.1568238,16.5392732 21.7230675,16.9932257 21.1864519,16.9932257 Z" id="Shape" fill="#437FC6" opacity="0.812386775"></path>
                    <path d="M21.1864519,22.659105 L8.57161795,22.659105 C8.03500232,22.659105 7.60124611,22.2051526 7.60124611,21.6435514 C7.60124611,21.0819503 8.03500232,20.6279978 8.57161795,20.6279978 L21.1864519,20.6279978 C21.7230675,20.6279978 22.1568238,21.0819503 22.1568238,21.6435514 C22.1568238,22.2051526 21.7230675,22.659105 21.1864519,22.659105 Z" id="Shape-Copy-2" fill="#437FC6" opacity="0.812386775"></path>
                    <path d="M28.5936236,47.9848878 L9.25087824,47.9848878 C8.42806761,47.9848878 7.76297475,47.5309354 7.76297475,46.9693342 C7.76297475,46.4077331 8.42806761,45.9537806 9.25087824,45.9537806 L28.5936236,45.9537806 C29.4164343,45.9537806 30.0815271,46.4077331 30.0815271,46.9693342 C30.0815271,47.5309354 29.4164343,47.9848878 28.5936236,47.9848878 Z" id="Shape" fill="#437FC6" opacity="0.812386775"></path>
                    <path d="M36.7124014,28.6893694 L8.57161795,28.6893694 C8.03500232,28.6893694 7.60124611,28.2354169 7.60124611,27.6738158 C7.60124611,27.1122146 8.03500232,26.6582622 8.57161795,26.6582622 L36.7124014,26.6582622 C37.249017,26.6582622 37.6827732,27.1122146 37.6827732,27.6738158 C37.6827732,28.2354169 37.249017,28.6893694 36.7124014,28.6893694 Z" id="Shape-Copy" fill="#437FC6" opacity="0.812386775"></path>
                    <path d="M36.87413,34.782691 L8.73334659,34.782691 C8.19673096,34.782691 7.76297475,34.3287385 7.76297475,33.7671374 C7.76297475,33.2055363 8.19673096,32.7515838 8.73334659,32.7515838 L36.87413,32.7515838 C37.4107457,32.7515838 37.8445019,33.2055363 37.8445019,33.7671374 C37.8445019,34.3287385 37.4107457,34.782691 36.87413,34.782691 Z" id="Shape" fill="#437FC6" opacity="0.812386775"></path>
                    <path d="M36.87413,41.8915662 L8.73334659,41.8915662 C8.19673096,41.8915662 7.76297475,41.4376138 7.76297475,40.8760126 C7.76297475,40.3144115 8.19673096,39.860459 8.73334659,39.860459 L36.87413,39.860459 C37.4107457,39.860459 37.8445019,40.3144115 37.8445019,40.8760126 C37.8445019,41.4376138 37.4107457,41.8915662 36.87413,41.8915662 Z" id="Shape" fill="#437FC6" opacity="0.812386775"></path>
                    <path d="M26.0614152,5.95877651 C26.0614152,5.29866319 26.6007767,4.76353561 27.2597806,4.76353561 L34.6360805,4.76353561 C35.2979195,4.76353561 35.8344459,5.29088011 35.8344459,5.95877651 L35.8344459,21.7611737 L30.9479306,17.4392899 L26.0614152,21.7611737 L26.0614152,5.95877651 Z" id="Rectangle-9" fill="#437FC6"></path>
                </g>
            </g>
        </g>
    </g>
</svg>