<?xml version="1.0" encoding="UTF-8"?>
<svg width="209px" height="80px" viewBox="0 0 209 80" version="1.1" xmlns="http://www.w3.org/2000/svg" xmlns:xlink="http://www.w3.org/1999/xlink">
    <!-- Generator: Sketch 44 (41411) - http://www.bohemiancoding.com/sketch -->
    <title>trezor</title>
    <desc>Created with Sketch.</desc>
    <defs>
        <filter x="-2.9%" y="-43.8%" width="105.8%" height="225.0%" filterUnits="objectBoundingBox" id="filter-1">
            <feOffset dx="0" dy="9" in="SourceAlpha" result="shadowOffsetOuter1"></feOffset>
            <feGaussianBlur stdDeviation="8.5" in="shadowOffsetOuter1" result="shadowBlurOuter1"></feGaussianBlur>
            <feColorMatrix values="0 0 0 0 0.414603028   0 0 0 0 0.499707015   0 0 0 0 0.569276148  0 0 0 0.318812274 0" type="matrix" in="shadowBlurOuter1" result="shadowMatrixOuter1"></feColorMatrix>
            <feMerge>
                <feMergeNode in="shadowMatrixOuter1"></feMergeNode>
                <feMergeNode in="SourceGraphic"></feMergeNode>
            </feMerge>
        </filter>
    </defs>
    <g id="Master-(version-for-CodeRiver)" stroke="none" stroke-width="1" fill="none" fill-rule="evenodd" opacity="0.836220562">
        <g id="Home" transform="translate(-777.000000, -3067.000000)" fill="#FFFFFF">
            <g id="PARTNER-SECTION" transform="translate(195.000000, 2991.000000)">
                <g id="Partner-Logos-Copy" filter="url(#filter-1)" transform="translate(0.000000, 83.241159)">
                    <g id="trezor" transform="translate(599.009346, 0.000000)">
                        <g id="trezor-text" transform="translate(43.714244, 11.076923)">
                            <path d="M127.205666,16.2781963 L131.377367,24.5434483 C131.162553,24.5434483 131.012182,24.5825995 130.866108,24.5825995 L123.755741,24.5825995 C123.452414,24.6271176 123.161732,24.4431645 123.068334,24.1475862 C122.136038,21.9464191 121.169372,19.7583024 120.23278,17.5571353 C120.099595,17.2482759 119.962113,17.0960212 119.601225,17.122122 C118.935299,17.1569231 118.265077,17.122122 117.530411,17.122122 L117.530411,24.5260477 L110.398562,24.5260477 L110.398562,0.830875332 C110.484916,0.811677518 110.572486,0.798595439 110.660636,0.791724138 C115.008486,0.791724138 119.356336,0.700371353 123.699889,0.839575597 C126.926406,0.94397878 129.49559,2.42737401 130.711442,5.59427056 C131.927293,8.76116711 131.639441,11.8236605 129.349516,14.4685411 C128.682854,15.1277283 127.966027,15.7328119 127.205666,16.2781963 L127.205666,16.2781963 Z M117.530411,10.8144297 L121.173668,10.8144297 C121.636887,10.8192078 122.099674,10.7842821 122.557075,10.7100265 C123.37224,10.6046801 124.012784,9.95252617 124.112334,9.12657825 C124.217371,8.37794017 123.796378,7.65545222 123.098408,7.3865252 C122.669541,7.21472409 122.214633,7.11907045 121.753668,7.10376658 C120.567891,7.06461538 119.382114,7.10376658 118.196337,7.10376658 L117.526115,7.10376658 L117.530411,10.8144297 Z" id="Shape"></path>
                            <path d="M28.4510453,17.0960212 L28.4510453,24.5260477 L21.3492708,24.5260477 L21.3492708,0.843925729 C21.4248266,0.820149934 21.5025501,0.804118974 21.5812707,0.796074271 C25.9119354,0.796074271 30.2426,0.735172414 34.5732646,0.826525199 C39.3851142,0.930928382 42.6631868,4.74164456 42.3065943,9.59639257 C42.2005056,12.3974093 40.5969645,14.9178786 38.1220037,16.1737931 L42.3495573,24.5303979 C42.1304463,24.5303979 41.9671871,24.5608488 41.8082242,24.5608488 L34.6935609,24.5608488 C34.4008878,24.5979619 34.1252925,24.4131613 34.0448204,24.1258355 C33.1082283,21.9246684 32.1458584,19.7322016 31.2092662,17.5310345 C31.1280231,17.2333905 30.8409116,17.0433113 30.5390443,17.087321 C29.8645261,17.122122 29.1943042,17.0960212 28.4510453,17.0960212 Z M28.4510453,10.8144297 L29.8473409,10.8144297 C31.0116367,10.792679 32.1802287,10.8144297 33.3402282,10.7230769 C33.804315,10.7232546 34.2487442,10.5333741 34.5724224,10.1966271 C34.8961006,9.85988007 35.0715083,9.40489721 35.0587459,8.93517241 C35.0587459,7.95639257 34.4572647,7.22557029 33.2929689,7.15161804 C31.6947475,7.04721485 30.0836371,7.12551724 28.4596379,7.12551724 L28.4510453,10.8144297 Z" id="Shape"></path>
                            <path d="M96.1219765,25.0132626 C92.2295339,24.9219098 88.947165,23.877878 86.3264255,21.1764456 C83.8818341,18.6577188 82.8893901,15.5734748 83.0268715,12.102069 C83.0792392,9.20024119 84.2062713,6.4242063 86.1846478,4.32403183 C88.0148576,2.38438653 90.4157617,1.09640402 93.0286446,0.652519894 C96.0296082,0.0128013506 99.1547282,0.380847654 101.930566,1.70090186 C106.153824,3.77156499 108.400786,7.22557029 108.705822,11.9628647 C109.135452,18.5141645 104.667306,23.9561804 98.1841977,24.830557 C97.4194574,24.9219098 96.6504207,24.9697613 96.1219765,25.0132626 Z M101.496641,12.7197878 C101.526715,8.61761273 98.0896793,5.89442971 94.2530885,6.9732626 C91.954571,7.62143236 90.4766458,9.58334218 90.2704237,12.2934748 C89.9524979,16.4130504 93.3465704,19.384191 97.2991611,18.4532626 C99.7996044,17.8703448 101.475159,15.5821751 101.496641,12.7241379 L101.496641,12.7197878 Z" id="Shape"></path>
                            <polygon id="Shape" points="51.4619974 15.7257294 51.4619974 18.2531565 62.1039184 18.2531565 62.1039184 24.5260477 44.3430378 24.5260477 44.3430378 0.826525199 62.0996221 0.826525199 62.0996221 7.05156499 51.4748863 7.05156499 51.4748863 9.35278515 61.8547333 9.35278515 61.8547333 15.7257294"></polygon>
                            <path d="M72.6728023,7.06461538 L63.7880657,7.06461538 L63.7880657,0.822175066 L82.1461312,0.822175066 L82.1461312,3.23649867 C82.1461312,4.31533156 82.3652422,5.47246684 82.0430201,6.44254642 C81.7207981,7.41262599 80.8486503,8.15649867 80.2085025,8.99607427 L73.5019871,17.8137931 C73.4117649,17.9312467 73.3301353,18.0574005 73.1969502,18.2488064 L82.3093904,18.2488064 L82.3093904,24.5173475 L63.7579917,24.5173475 L63.7579917,23.4820159 L63.7579917,19.3580902 C63.7679013,19.0377555 63.8710299,18.7275195 64.054436,18.466313 C66.8012001,14.8122016 69.557989,11.1682405 72.3248025,7.53442971 C72.4322098,7.41262599 72.5181357,7.28647215 72.6728023,7.06461538 Z" id="Shape"></path>
                            <polygon id="Shape" points="13.4226079 24.5260477 6.28646309 24.5260477 6.28646309 7.08201592 0.0138734379 7.08201592 0.0138734379 0.822175066 19.6651235 0.822175066 19.6651235 7.06026525 13.4226079 7.06026525"></polygon>
                        </g>
                        <g id="terzor-logo">
                            <path d="M4.12933842,16.6397652 C4.12933842,14.9176816 4.07761021,13.2413793 4.12933842,11.5685987 C4.37221035,5.42214824 9.11909807,0.454331142 15.1302095,0.0557256684 C21.141321,-0.342879805 26.4774726,3.95631641 27.4966947,10.0190756 C27.6229731,10.7398987 27.6898791,11.4702604 27.6967104,12.2024945 C27.7277474,13.6639765 27.6967104,15.1289802 27.6967104,16.6327219 C28.1864041,16.7489362 28.6692008,16.8334556 29.1382032,16.9848863 C29.7036153,17.1610145 30.2586043,17.3703132 30.800403,17.6117388 C31.2196924,17.7889225 31.4769799,18.2244444 31.4349357,18.6858401 C31.4211415,26.4170213 31.4211415,34.1493764 31.4349357,41.8829054 C31.4873386,42.188816 31.2890022,42.480851 30.9900731,42.537931 C26.0172679,44.2987528 21.0513599,46.0595745 16.0820032,47.802788 C15.8656116,47.8739038 15.6328253,47.8739038 15.4164336,47.802788 C10.5217955,46.044314 5.62945648,44.2834923 0.739416459,42.5203228 C0.508775856,42.472391 0.356474936,42.2468738 0.394561733,42.0096845 L0.394561733,18.5590609 C0.372843663,18.1199012 0.649903376,17.7232126 1.0635799,17.6011739 C1.93951091,17.2771827 2.83958174,17.0236244 3.73275549,16.7454145 C3.83966045,16.6925899 3.96035961,16.6749817 4.12933842,16.6397652 Z M4.84663625,30.5432135 L4.84663625,37.8118855 C4.8083805,38.0498865 4.96035414,38.276471 5.19149098,38.3260455 C8.60210422,39.5621423 12.0092689,40.819369 15.4198822,42.0554659 C15.6225379,42.1239674 15.8414135,42.1239674 16.0440692,42.0554659 C19.3270862,40.829934 22.596309,39.5903155 25.8896717,38.3577403 C26.1603417,38.3009764 26.3404661,38.0382016 26.3000488,37.7590609 C26.2862546,33.195011 26.2862546,28.6309611 26.3000488,24.0669112 C26.3000488,22.7286867 26.3000488,22.7251651 25.003395,22.4821717 C22.661776,22.1024002 20.2944938,21.9116411 17.9235275,21.9116654 C14.8086721,21.8040557 11.6903085,21.885196 8.58486149,22.1546588 C7.51926038,22.2567865 6.46400492,22.4751284 5.40874946,22.6723404 C5.23699655,22.6904389 5.08013075,22.7799943 4.975076,22.9199267 C4.87002125,23.0598591 4.82605756,23.2378076 4.85353335,23.4118855 C4.86043044,25.7819516 4.84663625,28.1625825 4.84663625,30.5432135 Z M8.89867929,16.0763023 C13.5113087,15.7667307 18.1388643,15.7667307 22.7514937,16.0763023 C22.7514937,14.4598679 22.8721928,12.8751284 22.7273538,11.3150404 C22.3602824,7.96153838 19.6868663,5.36216717 16.388924,5.15216434 C12.8989941,4.97256053 9.79875013,7.22641233 9.1987029,10.6247982 C8.87453946,12.3680117 8.98834152,14.1957447 8.89867929,16.0763023 Z" id="Shape"></path>
                        </g>
                    </g>
                </g>
            </g>
        </g>
    </g>
</svg>