<?xml version="1.0" encoding="UTF-8"?>
<svg width="253px" height="76px" viewBox="0 0 253 76" version="1.1" xmlns="http://www.w3.org/2000/svg" xmlns:xlink="http://www.w3.org/1999/xlink">
    <!-- Generator: Sketch 44 (41411) - http://www.bohemiancoding.com/sketch -->
    <title>cubits</title>
    <desc>Created with Sketch.</desc>
    <defs>
        <filter x="-2.9%" y="-43.8%" width="105.8%" height="225.0%" filterUnits="objectBoundingBox" id="filter-1">
            <feOffset dx="0" dy="9" in="SourceAlpha" result="shadowOffsetOuter1"></feOffset>
            <feGaussianBlur stdDeviation="8.5" in="shadowOffsetOuter1" result="shadowBlurOuter1"></feGaussianBlur>
            <feColorMatrix values="0 0 0 0 0.414603028   0 0 0 0 0.499707015   0 0 0 0 0.569276148  0 0 0 0.318812274 0" type="matrix" in="shadowBlurOuter1" result="shadowMatrixOuter1"></feColorMatrix>
            <feMerge>
                <feMergeNode in="shadowMatrixOuter1"></feMergeNode>
                <feMergeNode in="SourceGraphic"></feMergeNode>
            </feMerge>
        </filter>
    </defs>
    <g id="Master-(version-for-CodeRiver)" stroke="none" stroke-width="1" fill="none" fill-rule="evenodd" opacity="0.836220562">
        <g id="Home" transform="translate(-179.000000, -3068.000000)">
            <g id="PARTNER-SECTION" transform="translate(195.000000, 2991.000000)">
                <g id="Partner-Logos-Copy" filter="url(#filter-1)" transform="translate(0.000000, 83.241159)">
                    <g id="cubits" transform="translate(0.000000, 2.220408)">
                        <g id="Layer_1" transform="translate(0.280374, 0.000000)">
                            <g id="Group" transform="translate(58.864593, 7.523404)" fill="#FFFFFF">
                                <path d="M18.647912,25.0655489 C17.072904,25.7979745 15.258745,26.1659574 13.2021769,26.1659574 C11.3311083,26.1659574 9.60057613,25.8524085 8.01557638,25.2222128 C6.42688402,24.5948936 5.05279762,23.7058043 3.88897294,22.5547234 C2.72536548,21.4036426 1.81242126,20.0248681 1.15014029,18.4203915 C0.487859318,16.8159149 0.156827439,15.0496851 0.156827439,13.1179404 C0.156827439,11.1419404 0.492855206,9.35026383 1.16664844,7.74600851 C1.83892119,6.14131064 2.77032847,4.77537021 3.9576121,3.64774468 C5.14315803,2.51989787 6.53744519,1.65315745 8.1356949,1.04862979 C9.73285856,0.443880851 11.4564399,0.142059574 13.3057873,0.142059574 C15.0178564,0.142059574 16.7001673,0.448970213 18.3570644,1.06566809 C20.0107033,1.68170213 21.3532939,2.58340426 22.3800575,3.77055319 L18.4091954,7.81571064 C17.8605166,7.04765957 17.1415432,6.47897872 16.2522751,6.10745532 C15.3608349,5.73571064 14.4465874,5.54873191 13.5117048,5.54873191 C12.4834207,5.54873191 11.5437593,5.73947234 10.6877248,6.12449362 C9.83147304,6.5075234 9.09425375,7.03748085 8.47715298,7.71237447 C7.86200713,8.38682553 7.38196746,9.18386383 7.03920611,10.0999489 C6.69818245,11.0197957 6.52593292,12.0250553 6.52593292,13.118383 C6.52593292,14.2358298 6.69818245,15.2579064 7.03920611,16.1877106 C7.38218468,17.1179574 7.85527354,17.9149957 8.46064483,18.5772766 C9.06601612,19.2404426 9.79150594,19.7582298 10.6340733,20.1295319 C11.4801161,20.502383 12.4032693,20.6884766 13.4096149,20.6884766 C14.5736568,20.6884766 15.5882564,20.4563574 16.4558032,19.9894638 C17.3237845,19.5263319 18.0192989,18.9218043 18.5460393,18.1776511 L22.6194257,22.0851745 C21.545527,23.3384851 20.2231372,24.3331234 18.647912,25.0655489 Z" id="Shape"></path>
                                <path d="M53.4901033,20.2518979 C53.0000719,21.4733447 52.2978238,22.5206468 51.3850968,23.3929191 C50.4719354,24.2647489 49.3684958,24.9445106 48.0810772,25.4330894 C46.7904004,25.9203404 45.3572322,26.1659574 43.7822242,26.1659574 C42.1852778,26.1659574 40.7458104,25.9205617 39.4666459,25.4330894 C38.1890018,24.9445106 37.1055458,24.2649702 36.2143228,23.3929191 C35.3230999,22.5206468 34.6393149,21.4731234 34.1594924,20.2518979 C33.6811904,19.032 33.4403017,17.6764596 33.4403017,16.1874894 L33.4403017,0.803012766 L39.2624661,0.803012766 L39.2624661,15.7009021 C39.2624661,16.3751319 39.3478306,17.0137362 39.5200802,17.6184851 C39.6908092,18.2230128 39.9516814,18.7631489 40.3057378,19.2402213 C40.6604459,19.7168511 41.1287561,20.095234 41.7104512,20.3747064 C42.2923635,20.6539574 42.9946116,20.7933617 43.8174126,20.7933617 C44.6380415,20.7933617 45.3405068,20.6539574 45.9222019,20.3747064 C46.505852,20.095234 46.9772031,19.7168511 47.3436407,19.2402213 C47.7096438,18.7631489 47.9702988,18.2230128 48.1310361,17.6184851 C48.2913389,17.0137362 48.3717075,16.3751319 48.3717075,15.7009021 L48.3717075,0.803012766 L54.2273226,0.803012766 L54.2273226,16.1874894 C54.2275398,17.6766809 53.9801348,19.0322213 53.4901033,20.2518979 Z" id="Shape"></path>
                                <path d="M86.4147425,18.3170553 C86.4147425,19.6661787 86.1532187,20.7984511 85.6286504,21.7165277 C85.1016929,22.6363745 84.4061784,23.3741106 83.5384144,23.932834 C82.6708676,24.4902298 81.6821162,24.8914043 80.5756356,25.1368 C79.4682862,25.3806468 78.3333508,25.5010213 77.1697433,25.5010213 L67.5133436,25.5010213 L67.5133436,0.803012766 L77.1697433,0.803012766 C78.1041916,0.803012766 79.0638365,0.903914894 80.0458543,1.09974468 C81.026786,1.29911489 81.9162713,1.63611915 82.7158306,2.11142128 C83.5151726,2.58871489 84.1674618,3.23550638 84.6690055,4.04980426 C85.170332,4.86410213 85.4212125,5.89613617 85.4212125,7.15320851 C85.4212125,8.52578723 85.0569471,9.66049362 84.3262442,10.5548936 C83.595324,11.4492936 82.6356791,12.0965277 81.449916,12.4915064 L81.449916,12.5596596 C82.1339182,12.6773787 82.779691,12.8922383 83.3848451,13.2071149 C83.9902164,13.5202213 84.5150019,13.9207319 84.9598531,14.4095319 C85.4047043,14.8965617 85.7587607,15.4690043 86.0215879,16.12 C86.2837634,16.7703319 86.4147425,17.5032 86.4147425,18.3170553 Z M79.7732526,7.95577872 C79.7732526,7.11957447 79.458946,6.5075234 78.8298986,6.12449362 C78.2010683,5.73969362 77.271616,5.54873191 76.0391521,5.54873191 L73.1617379,5.54873191 L73.1617379,10.641634 L76.3134916,10.641634 C77.4086771,10.641634 78.2584125,10.4150468 78.8637837,9.96054468 C79.4682862,9.50714894 79.7732526,8.83955745 79.7732526,7.95577872 Z M80.558693,17.7583319 C80.558693,16.736034 80.1824809,16.0259574 79.4287535,15.6292085 C78.6758949,15.2340085 77.6715042,15.0361872 76.4155814,15.0361872 L73.1617379,15.0361872 L73.1617379,20.6882553 L76.4505527,20.6882553 C76.9069162,20.6882553 77.3804395,20.6470979 77.8704709,20.5652255 C78.3613712,20.4853447 78.8064396,20.3401872 79.2076312,20.1290894 C79.6057817,19.9213106 79.9302972,19.6248 80.1822637,19.24 C80.4337958,18.8569702 80.558693,18.3628596 80.558693,17.7583319 Z" id="Shape"></path>
                                <polygon id="Shape" points="98.8445117 25.5012426 98.8445117 0.803012766 104.734881 0.803012766 104.734881 25.5012426"></polygon>
                                <polygon id="Shape" points="127.851072 5.89613617 127.851072 25.5014638 121.995891 25.5014638 121.995891 5.89613617 115.146529 5.89613617 115.146529 0.803012766 134.699782 0.803012766 134.699782 5.89613617"></polygon>
                                <path d="M157.915891,7.22313191 C157.412827,6.5728 156.757279,6.05479149 155.947728,5.67131915 C155.135353,5.28629787 154.354257,5.09577872 153.600312,5.09577872 C153.212371,5.09577872 152.817696,5.12941277 152.419762,5.19977872 C152.020309,5.26948085 151.660605,5.40379574 151.341519,5.59962553 C151.022,5.79877447 150.752656,6.05479149 150.537181,6.3685617 C150.319969,6.6834383 150.211145,7.08306383 150.211145,7.57252766 C150.211145,7.99162553 150.29651,8.33880851 150.466805,8.61828085 C150.639489,8.89819574 150.889717,9.14292766 151.221401,9.35070638 C151.551998,9.56025532 151.944936,9.75298723 152.403254,9.92646809 C152.858097,10.1001702 153.373108,10.2813957 153.944811,10.4681532 C154.76544,10.7476255 155.621909,11.0543149 156.513132,11.3917617 C157.402835,11.7285447 158.211734,12.1770723 158.943958,12.7351319 C159.672923,13.2927489 160.278294,13.9857872 160.758551,14.812034 C161.238591,15.6362894 161.477524,16.6652255 161.477524,17.8984 C161.477524,19.3170043 161.221431,20.5435404 160.706637,21.577566 C160.193147,22.6129191 159.502628,23.4681532 158.634864,24.1426043 C157.767317,24.8170553 156.774222,25.3180255 155.656663,25.6415319 C154.53715,25.9685787 153.382883,26.1303319 152.197771,26.1303319 C150.461809,26.1303319 148.784711,25.8218723 147.163002,25.2051745 C145.540859,24.5906894 144.196531,23.7135489 143.123067,22.5722043 L146.958605,18.5967489 C147.550944,19.3389106 148.333126,19.9626894 149.303197,20.4618894 C150.272834,20.962417 151.239647,21.2126809 152.197554,21.2126809 C152.630241,21.2126809 153.053371,21.1653277 153.462817,21.0732766 C153.874217,20.9796766 154.235442,20.8281021 154.543449,20.6198809 C154.851239,20.408783 155.094952,20.1295319 155.278931,19.7823489 C155.461172,19.4329532 155.553487,19.013634 155.553487,18.5250553 C155.553487,18.0617021 155.439885,17.6665021 155.210726,17.3396766 C154.98135,17.0139574 154.657269,16.7176681 154.235659,16.450366 C153.811226,16.1830638 153.286006,15.9389957 152.660651,15.7177191 C152.031821,15.4962213 151.318278,15.2579064 150.520456,15.0021106 C149.743052,14.7469787 148.983678,14.4440511 148.2432,14.0964255 C147.50055,13.7454809 146.838487,13.2989447 146.256574,12.7526128 C145.674662,12.2053957 145.206569,11.5446638 144.852295,10.7648851 C144.497587,9.98488511 144.320559,9.03737872 144.320559,7.92015319 C144.320559,6.54934468 144.594899,5.37547234 145.14336,4.39742979 C145.691387,3.42005106 146.410578,2.61925106 147.300281,1.99104681 C148.189549,1.36262128 149.196111,0.904357447 150.313235,0.612714894 C151.433618,0.322842553 152.562254,0.1768 153.703706,0.1768 C155.073448,0.1768 156.472731,0.432153191 157.898948,0.943302128 C159.325166,1.45577872 160.575658,2.2123234 161.649774,3.21182979 L157.915891,7.22313191 Z" id="Shape"></path>
                            </g>
                            <g id="Group">
                                <polyline id="Shape" fill-opacity="0.495499321" fill="#FFFFFF" points="1.62322149 20.7995798 12.5388099 39.9883852 34.3676408 39.9883852 26.1821224 25.5970263 20.7248802 25.5970263 17.9956381 20.7995798"></polyline>
                                <polyline id="Shape" fill-opacity="0.495499321" fill="#FFFFFF" points="17.9956381 20.7995798 1.62322149 20.7995798 12.5388099 1.61133468 34.3676408 1.61133468 26.1821224 16.0021333 20.7248802 16.0021333 17.9956381 20.7995798"></polyline>
                                <path d="M34.3687447,40.7797657 C34.0986908,40.7797657 33.8367785,40.6385778 33.6927129,40.3840754 L25.7321245,26.3884067 L20.7250182,26.3884067 C20.4464086,26.3884067 20.1890501,26.2379744 20.0499523,25.9927165 L17.5456402,21.5909603 L1.62322149,21.5909603 C1.19281872,21.5909603 0.843556318,21.2365899 0.843556318,20.7997199 C0.843556318,20.3628498 1.19281872,20.0083394 1.62322149,20.0083394 L17.5455022,20.0083394 L20.0498144,15.6065832 C20.1889121,15.3624458 20.4462706,15.2108929 20.7248802,15.2108929 L25.7319865,15.2108929 L33.6925749,1.21578451 C33.9078453,0.836622222 34.38489,0.7072 34.7574733,0.92626532 C35.1300567,1.14477037 35.257839,1.62856296 35.0427066,2.00716498 L26.8571883,16.3976835 C26.7180905,16.6429414 26.460732,16.7933737 26.1821224,16.7933737 L21.1750161,16.7933737 L18.8960479,20.7995798 L21.1750161,24.8057859 L26.1821224,24.8057859 C26.460732,24.8057859 26.7180905,24.9560781 26.8571883,25.201336 L35.0427066,39.5926949 C35.257839,39.9707367 35.1300567,40.4550896 34.7574733,40.6735946 C34.6346588,40.7455892 34.5006668,40.7797657 34.3687447,40.7797657 Z" id="Shape" fill="#FFFFFF"></path>
                                <path d="M20.7248802,16.0021333 L23.4530183,20.7995798" id="Shape" stroke="#383857" stroke-width="2"></path>
                                <path d="M12.5378439,41.0433724 C12.3617638,41.0433724 12.1830618,40.9981306 12.0191251,40.9021845 C11.685594,40.7065104 11.4988883,40.352 11.4994403,39.9872646 C11.4994403,39.8079785 11.5440123,39.6267313 11.6385381,39.4607515 L22.25261,20.7995798 L11.6384001,2.13882828 L13.4392197,1.08384108 L24.0532915,19.7445926 L45.2833671,19.7445926 L45.2833671,21.8547071 L24.0528775,21.8547071 L13.4392197,40.5158788 C13.2464423,40.8549818 12.8971799,41.0433724 12.5378439,41.0433724 Z" id="Shape" fill="#FFFFFF"></path>
                                <path d="M34.3676408,41.5710061 L12.5388099,41.5710061 C11.9820048,41.5710061 11.4667358,41.2691609 11.1886782,40.7797657 L0.272951807,21.5909603 C-0.00565774726,21.1025455 -0.00565774726,20.4987152 0.272951807,20.0081993 L11.1886782,0.819954209 C11.4668738,0.329998653 11.9820048,0.0287138047 12.5388099,0.0287138047 L34.3382481,0.0287138047 C34.9066447,0.0394989899 35.4243976,0.302825589 35.7177725,0.819954209 L46.6334988,20.0081993 C46.9116944,20.4987152 46.9116944,21.1024054 46.6334988,21.5909603 L35.7177725,40.7797657 C35.4395769,41.2691609 34.9249979,41.5710061 34.3676408,41.5710061 Z M13.4392197,38.4056242 L33.467093,38.4056242 L43.4824096,20.7995798 L33.467093,3.19395556 L13.4392197,3.19395556 L3.42348907,20.7995798 L13.4392197,38.4056242 Z" id="Shape" fill="#FFFFFF"></path>
                            </g>
                        </g>
                    </g>
                </g>
            </g>
        </g>
    </g>
</svg>