<svg xmlns="http://www.w3.org/2000/svg" viewBox="0 0 497.78 125.07"><path fill="#ffffff" d="M74.34,51.88v71.2H52.7V71.2H35v51.88H11.89V71.2H0V51.88H11.89V38.48c0-12.22,3.3-21.81,9.75-28.74C27.59,3.46,36,0,45.76,0a31.64,31.64,0,0,1,24,11.4L52.37,26.6c-1.32-1.49-3.63-3.47-6.61-3.47-3.63,0-10.74,0-10.74,15.36V51.88Z"/><path fill="#ffffff" d="M108.53,58.15c5.62-5,13.05-8.26,20.32-8.26,19.16,0,34.86,16.85,34.86,37.83v35.36H143.56V87.72c0-10.24-7.27-19.33-17.18-19.33s-17.19,9.09-17.19,19.33v35.36H88.38V51.88h16.85Z"/><path fill="#ffffff" d="M274.28,51.88l-37,71.2h-2.81l-16.85-32-16.73,32h-2.64l-37.33-71.2H181.4l18.17,34.53,7.76-14.87-10.2-19.66h20.48l18.17,34.53,18-34.53Z"/><path fill="#ffffff" d="M338.11,111.84a37.31,37.31,0,0,1-28.58,13.22,37.83,37.83,0,1,1,37.83-37.83A31.4,31.4,0,0,1,346.7,94H293.5a21,21,0,0,0,4.13,6.94,17,17,0,0,0,12.72,5.78,17.59,17.59,0,0,0,12.23-5.24ZM327.37,81.48a19.56,19.56,0,0,0-4.46-8.09,17.07,17.07,0,0,0-12.56-5.62,17.43,17.43,0,0,0-12.72,5.62,24.21,24.21,0,0,0-4.46,8.09Z"/><path fill="#ffffff" d="M376.1,60c5.29-6.94,14.7-9.91,24.12-9.91a36.92,36.92,0,0,1,12.06,2L404.19,70.4c-12.06-5.29-24.28,2-26.43,13.38v39.3H357.1V51.88h16Z"/><path fill="#ffffff" d="M470.69,123.08l-23.8-28.91-4.79,5v24H419V.17h23.13V74.84l21.15-23h28.25L462.59,81.61l35.19,41.46Z"/></svg>
