<?xml version="1.0" encoding="UTF-8"?>
<svg width="278px" height="79px" viewBox="0 0 278 79" version="1.1" xmlns="http://www.w3.org/2000/svg" xmlns:xlink="http://www.w3.org/1999/xlink">
    <!-- Generator: Sketch 44 (41411) - http://www.bohemiancoding.com/sketch -->
    <title>transistor</title>
    <desc>Created with Sketch.</desc>
    <defs>
        <filter x="-2.9%" y="-43.8%" width="105.8%" height="225.0%" filterUnits="objectBoundingBox" id="filter-1">
            <feOffset dx="0" dy="9" in="SourceAlpha" result="shadowOffsetOuter1"></feOffset>
            <feGaussianBlur stdDeviation="8.5" in="shadowOffsetOuter1" result="shadowBlurOuter1"></feGaussianBlur>
            <feColorMatrix values="0 0 0 0 0.414603028   0 0 0 0 0.499707015   0 0 0 0 0.569276148  0 0 0 0.318812274 0" type="matrix" in="shadowBlurOuter1" result="shadowMatrixOuter1"></feColorMatrix>
            <feMerge>
                <feMergeNode in="shadowMatrixOuter1"></feMergeNode>
                <feMergeNode in="SourceGraphic"></feMergeNode>
            </feMerge>
        </filter>
    </defs>
    <g id="Master-(version-for-CodeRiver)" stroke="none" stroke-width="1" fill="none" fill-rule="evenodd" opacity="0.836220562">
        <g id="Home" transform="translate(-466.000000, -3067.000000)" fill="#FFFFFF">
            <g id="PARTNER-SECTION" transform="translate(195.000000, 2991.000000)">
                <g id="Partner-Logos-Copy" filter="url(#filter-1)" transform="translate(0.000000, 83.241159)">
                    <g id="transistor" transform="translate(287.009346, 0.000000)">
                        <g id="Ebene_2">
                            <g>
                                <g id="Layer_1">
                                    <path d="M30.5741276,20.0267883 L37.2535799,20.0267883 L37.2535799,26.2996582 L25.1479334,26.2996582 L25.1479334,46.062683 C33.4087277,45.358836 40.632432,40.1502545 43.9886747,32.4777503 C47.3449173,24.805246 46.2991995,15.8907049 41.2612513,9.22699747 L30.5741276,20.0267883 Z" id="Shape"></path>
                                    <path d="M5.44969433,9.22699747 C0.414150219,15.8882255 -0.630497392,24.7992294 2.72509402,32.4682548 C6.08068542,40.1372802 13.302071,45.3428821 21.5595692,46.0452584 L21.5595692,26.2892034 L9.53655509,26.2892034 C9.48146683,25.2716045 9.45047968,24.2226413 9.45047968,23.1701931 C9.45047968,22.117745 9.48146683,21.0792365 9.55032716,20.0337582 L16.129932,20.0337582 L5.44969433,9.22699747 Z" id="Shape"></path>
                                    <path d="M23.5409898,0.184302264 C17.807404,0.175721291 12.2849226,2.37323414 8.09217411,6.33171469 L21.6197865,20.0239955 L25.4656361,20.0239955 L38.9829195,6.34216947 C34.7957531,2.3779149 29.2743909,0.176129508 23.5409898,0.184302264 Z" id="Shape"></path>
                                    <path d="M90.7749989,44 L90.7749989,36.9 L95.5449989,36.9 L95.5449989,38.11 L92.1549989,38.11 L92.1549989,39.94 L94.9749989,39.94 L94.9749989,41.06 L92.1549989,41.06 L92.1549989,44 L90.7749989,44 Z M97.514999,44 L97.514999,36.9 L98.894999,36.9 L98.894999,44 L97.514999,44 Z M102.754999,39.45 L102.754999,44 L101.374999,44 L101.374999,36.9 L102.444999,36.9 L106.144999,41.56 L106.144999,36.91 L107.524999,36.91 L107.524999,44 L106.404999,44 L102.754999,39.45 Z M115.314999,38.11 L113.044999,38.11 L113.044999,44 L111.674999,44 L111.674999,38.11 L109.404999,38.11 L109.404999,36.9 L115.314999,36.9 L115.314999,38.11 Z M122.124999,42.79 L122.124999,44 L117.194999,44 L117.194999,36.9 L122.034999,36.9 L122.034999,38.11 L118.574999,38.11 L118.574999,39.82 L121.564999,39.82 L121.564999,40.94 L118.574999,40.94 L118.574999,42.79 L122.124999,42.79 Z M123.625,40.4 C123.625,39.9666645 123.703332,39.5383354 123.86,39.115 C124.016667,38.6916645 124.244998,38.313335 124.545,37.98 C124.845001,37.646665 125.211664,37.3766677 125.645,37.17 C126.078335,36.9633323 126.571663,36.86 127.125,36.86 C127.778336,36.86 128.34333,37.0033319 128.82,37.29 C129.296669,37.5766681 129.651665,37.9499977 129.885,38.41 L128.825,39.14 C128.731666,38.939999 128.618334,38.7716674 128.485,38.635 C128.351666,38.4983327 128.208334,38.3900004 128.055,38.31 C127.901665,38.2299996 127.741667,38.1716669 127.575,38.135 C127.408332,38.0983332 127.245,38.08 127.085,38.08 C126.738331,38.08 126.436667,38.1499993 126.18,38.29 C125.923332,38.4300007 125.71,38.6116655 125.54,38.835 C125.369999,39.0583345 125.241667,39.3116652 125.155,39.595 C125.068332,39.8783348 125.025,40.1599986 125.025,40.44 C125.025,40.7533349 125.074999,41.0549986 125.175,41.345 C125.275,41.6350014 125.416665,41.8899989 125.6,42.11 C125.783334,42.3300011 126.003332,42.506666 126.26,42.64 C126.516667,42.773334 126.798331,42.84 127.105,42.84 C127.265,42.84 127.431665,42.8200002 127.605,42.78 C127.778334,42.7399998 127.943332,42.6766671 128.1,42.59 C128.256667,42.5033329 128.401666,42.3916673 128.535,42.255 C128.668334,42.1183326 128.774999,41.9533343 128.855,41.76 L129.985,42.41 C129.871666,42.676668 129.710001,42.9116657 129.5,43.115 C129.289998,43.3183344 129.053334,43.4899993 128.79,43.63 C128.526665,43.7700007 128.245001,43.8766663 127.945,43.95 C127.644998,44.0233337 127.351668,44.06 127.065,44.06 C126.55833,44.06 126.095002,43.9533344 125.675,43.74 C125.254997,43.5266656 124.893334,43.2483351 124.59,42.905 C124.286665,42.561665 124.05,42.1716689 123.88,41.735 C123.709999,41.2983311 123.625,40.8533356 123.625,40.4 Z M137.885,36.9 L137.885,44 L136.515,44 L136.515,40.97 L133.295,40.97 L133.295,44 L131.915,44 L131.915,36.9 L133.295,36.9 L133.295,39.77 L136.515,39.77 L136.515,36.9 L137.885,36.9 Z M149.735,36.9 L149.735,44 L148.365,44 L148.365,40.97 L145.145,40.97 L145.145,44 L143.765,44 L143.765,36.9 L145.145,36.9 L145.145,39.77 L148.365,39.77 L148.365,36.9 L149.735,36.9 Z M155.215,42.83 C155.541668,42.83 155.816666,42.763334 156.04,42.63 C156.263334,42.496666 156.443333,42.3233344 156.58,42.11 C156.716667,41.8966656 156.813333,41.651668 156.87,41.375 C156.926667,41.098332 156.955,40.8133348 156.955,40.52 L156.955,36.9 L158.325,36.9 L158.325,40.52 C158.325,41.0066691 158.266667,41.4633312 158.15,41.89 C158.033333,42.3166688 157.850001,42.6899984 157.6,43.01 C157.349999,43.3300016 157.028335,43.5833324 156.635,43.77 C156.241665,43.9566676 155.771669,44.05 155.225,44.05 C154.65833,44.05 154.176669,43.9516677 153.78,43.755 C153.383331,43.5583324 153.061668,43.2983349 152.815,42.975 C152.568332,42.651665 152.390001,42.2766688 152.28,41.85 C152.169999,41.4233312 152.115,40.9800023 152.115,40.52 L152.115,36.9 L153.495,36.9 L153.495,40.52 C153.495,40.8200015 153.523333,41.108332 153.58,41.385 C153.636667,41.6616681 153.733333,41.9066656 153.87,42.12 C154.006667,42.3333344 154.184999,42.5049993 154.405,42.635 C154.625001,42.7650006 154.894998,42.83 155.215,42.83 Z M166.435,42.17 C166.435,42.4700015 166.375001,42.7333322 166.255,42.96 C166.135,43.1866678 165.970001,43.3766659 165.76,43.53 C165.549999,43.6833341 165.306668,43.7999996 165.03,43.88 C164.753332,43.9600004 164.458335,44 164.145,44 L160.715,44 L160.715,36.9 L164.515,36.9 C164.761668,36.9 164.984999,36.9533328 165.185,37.06 C165.385001,37.1666672 165.554999,37.3049992 165.695,37.475 C165.835001,37.6450009 165.943333,37.8383323 166.02,38.055 C166.096667,38.2716677 166.135,38.4899989 166.135,38.71 C166.135,39.0566684 166.048334,39.3816652 165.875,39.685 C165.701666,39.9883349 165.448335,40.2133326 165.115,40.36 C165.521669,40.4800006 165.843332,40.6949984 166.08,41.005 C166.316668,41.3150015 166.435,41.703331 166.435,42.17 Z M165.045,41.91 C165.045,41.7833327 165.023334,41.6616673 164.98,41.545 C164.936667,41.4283328 164.878334,41.3266671 164.805,41.24 C164.731666,41.1533329 164.645001,41.0850003 164.545,41.035 C164.445,40.9849998 164.335001,40.96 164.215,40.96 L162.095,40.96 L162.095,42.83 L164.145,42.83 C164.271667,42.83 164.39,42.8066669 164.5,42.76 C164.610001,42.7133331 164.705,42.6483337 164.785,42.565 C164.865001,42.4816663 164.928333,42.3833339 164.975,42.27 C165.021667,42.1566661 165.045,42.0366673 165.045,41.91 Z M162.095,38.08 L162.095,39.87 L163.935,39.87 C164.168335,39.87 164.366666,39.7900008 164.53,39.63 C164.693334,39.4699992 164.775,39.2500014 164.775,38.97 C164.775,38.6966653 164.700001,38.4800008 164.55,38.32 C164.399999,38.1599992 164.215001,38.08 163.995,38.08 L162.095,38.08 Z M177.635,42.17 C177.635,42.4700015 177.575001,42.7333322 177.455,42.96 C177.335,43.1866678 177.170001,43.3766659 176.96,43.53 C176.749999,43.6833341 176.506668,43.7999996 176.23,43.88 C175.953332,43.9600004 175.658335,44 175.345,44 L171.915,44 L171.915,36.9 L175.715,36.9 C175.961668,36.9 176.184999,36.9533328 176.385,37.06 C176.585001,37.1666672 176.755,37.3049992 176.895,37.475 C177.035001,37.6450009 177.143333,37.8383323 177.22,38.055 C177.296667,38.2716677 177.335,38.4899989 177.335,38.71 C177.335,39.0566684 177.248335,39.3816652 177.075,39.685 C176.901666,39.9883349 176.648335,40.2133326 176.315,40.36 C176.721669,40.4800006 177.043333,40.6949984 177.28,41.005 C177.516668,41.3150015 177.635,41.703331 177.635,42.17 Z M176.245,41.91 C176.245,41.7833327 176.223334,41.6616673 176.18,41.545 C176.136667,41.4283328 176.078334,41.3266671 176.005,41.24 C175.931667,41.1533329 175.845001,41.0850003 175.745,41.035 C175.645,40.9849998 175.535001,40.96 175.415,40.96 L173.295,40.96 L173.295,42.83 L175.345,42.83 C175.471668,42.83 175.59,42.8066669 175.7,42.76 C175.810001,42.7133331 175.905,42.6483337 175.985,42.565 C176.065001,42.4816663 176.128333,42.3833339 176.175,42.27 C176.221667,42.1566661 176.245,42.0366673 176.245,41.91 Z M173.295,38.08 L173.295,39.87 L175.135,39.87 C175.368335,39.87 175.566666,39.7900008 175.73,39.63 C175.893335,39.4699992 175.975,39.2500014 175.975,38.97 C175.975,38.6966653 175.900001,38.4800008 175.75,38.32 C175.6,38.1599992 175.415001,38.08 175.195,38.08 L173.295,38.08 Z M184.645,42.79 L184.645,44 L179.715,44 L179.715,36.9 L184.555,36.9 L184.555,38.11 L181.095,38.11 L181.095,39.82 L184.085,39.82 L184.085,40.94 L181.095,40.94 L181.095,42.79 L184.645,42.79 Z M186.725001,44 L186.725001,36.9 L189.865001,36.9 C190.191669,36.9 190.493333,36.9683327 190.770001,37.105 C191.046669,37.2416674 191.285,37.4216656 191.485001,37.645 C191.685002,37.8683344 191.841667,38.1216652 191.955001,38.405 C192.068334,38.6883348 192.125001,38.9733319 192.125001,39.26 C192.125001,39.7200023 192.010002,40.1383315 191.780001,40.515 C191.549999,40.8916685 191.238336,41.1633325 190.845001,41.33 L192.465001,44 L190.915001,44 L189.465001,41.62 L188.105001,41.62 L188.105001,44 L186.725001,44 Z M188.105001,40.41 L189.835001,40.41 C189.961668,40.41 190.08,40.3800003 190.190001,40.32 C190.300001,40.2599997 190.395,40.1783339 190.475001,40.075 C190.555001,39.9716661 190.618334,39.8500007 190.665001,39.71 C190.711667,39.5699993 190.735001,39.4200008 190.735001,39.26 C190.735001,39.0933325 190.708334,38.9400007 190.655001,38.8 C190.601667,38.6599993 190.530001,38.5383339 190.440001,38.435 C190.35,38.3316662 190.246668,38.251667 190.130001,38.195 C190.013333,38.138333 189.895001,38.11 189.775001,38.11 L188.105001,38.11 L188.105001,40.41 Z M194.375001,44 L194.375001,36.9 L195.755001,36.9 L195.755001,42.79 L199.375001,42.79 L199.375001,44 L194.375001,44 Z M201.215001,44 L201.215001,36.9 L202.595001,36.9 L202.595001,44 L201.215001,44 Z M206.455001,39.45 L206.455001,44 L205.075001,44 L205.075001,36.9 L206.145001,36.9 L209.845001,41.56 L209.845001,36.91 L211.225001,36.91 L211.225001,44 L210.105001,44 L206.455001,39.45 Z" id="Fintech-Hub-Berlin"></path>
                                    <path d="M74.3515321,11.7852539 L67.3930393,11.7852539 L67.3930393,30.0603332 L63.1934202,30.0603332 L63.1934202,11.7852539 L56.2349274,11.7852539 L56.2349274,8.03095067 L74.3515321,8.03095067 L74.3515321,11.7852539 Z M77.0490976,30.0603332 L77.0490976,8.03095067 L86.6745018,8.03095067 C87.6758758,8.03095067 88.6006002,8.24296842 89.4487027,8.6670103 C90.2968052,9.09105218 91.0273885,9.64953798 91.6404747,10.3424845 C92.2535608,11.0354309 92.7338044,11.821448 93.0812199,12.7005592 C93.4286354,13.5796704 93.6023405,14.4639396 93.6023405,15.3533933 C93.6023405,16.7806562 93.2498212,18.0786186 92.5447722,19.2473194 C91.8397231,20.4160201 90.8843449,21.25892 89.6786088,21.7760443 L94.6445817,30.0603332 L89.8931879,30.0603332 L85.4483357,22.6758359 L81.2793708,22.6758359 L81.2793708,30.0603332 L77.0490976,30.0603332 Z M81.2793708,18.9215327 L86.5825393,18.9215327 C86.9708272,18.9215327 87.3335644,18.8284518 87.6707618,18.642287 C88.0079592,18.4561223 88.2991707,18.2027352 88.5444052,17.8821182 C88.7896396,17.5615012 88.9837806,17.1840061 89.1268341,16.7496218 C89.2698875,16.3152374 89.3414131,15.8498326 89.3414131,15.3533933 C89.3414131,14.8362691 89.2596696,14.3605219 89.0961799,13.9261375 C88.9326903,13.4917532 88.7130044,13.1142581 88.4371156,12.7936411 C88.1612269,12.4730241 87.8444704,12.2248082 87.4868369,12.0489859 C87.1292033,11.8731637 86.7664661,11.7852539 86.3986144,11.7852539 L81.2793708,11.7852539 L81.2793708,18.9215327 Z M103.289053,8.03095067 L107.02886,8.03095067 L115.305481,30.0603332 L110.952591,30.0603332 L108.929417,24.5685012 L101.327187,24.5685012 L99.3346672,30.0603332 L94.9817774,30.0603332 L103.289053,8.03095067 Z M108.163063,21.5588532 L105.158956,12.9022367 L102.032233,21.5588532 L108.163063,21.5588532 Z M121.926778,15.942912 L121.926778,30.0603332 L117.696505,30.0603332 L117.696505,8.03095067 L120.9765,8.03095067 L132.318536,22.4896721 L132.318536,8.06197796 L136.54881,8.06197796 L136.54881,30.0603332 L133.115544,30.0603332 L121.926778,15.942912 Z M154.052331,13.8020283 C153.909278,13.6572335 153.64872,13.4607293 153.27065,13.2125096 C152.89258,12.96429 152.432773,12.7212453 151.891213,12.4833681 C151.349654,12.245491 150.762122,12.0438155 150.1286,11.8783358 C149.495077,11.712856 148.851346,11.6301174 148.197388,11.6301174 C147.032524,11.6301174 146.163999,11.8473063 145.591785,12.2816907 C145.019571,12.716075 144.733468,13.3262725 144.733468,14.1123013 C144.733468,14.5673707 144.840757,14.9448657 145.055337,15.2447978 C145.269917,15.5447298 145.581565,15.8084592 145.990289,16.0359939 C146.399013,16.2635286 146.915019,16.4703751 147.538324,16.6565399 C148.161628,16.8427046 148.881993,17.0392089 149.699441,17.2460586 C150.762124,17.5356481 151.72772,17.845918 152.596259,18.1768775 C153.464798,18.5078371 154.20049,18.9215302 154.803358,19.4179695 C155.406226,19.9144088 155.871143,20.5090927 156.198122,21.2020392 C156.525101,21.8949857 156.688588,22.7482279 156.688588,23.7617914 C156.688588,24.9408347 156.468902,25.9492118 156.029524,26.7869531 C155.590146,27.6246944 154.997505,28.302117 154.251583,28.8192412 C153.505662,29.3363654 152.647354,29.7138605 151.676634,29.9517376 C150.705915,30.1896148 149.689229,30.3085516 148.626546,30.3085516 C146.99165,30.3085516 145.377214,30.0603357 143.78319,29.5638964 C142.189166,29.0674571 140.758653,28.3641787 139.491608,27.45404 L141.361512,23.7617914 C141.545437,23.9479561 141.877521,24.1910009 142.357772,24.4909329 C142.838022,24.790865 143.405119,25.0907926 144.059077,25.3907246 C144.713036,25.6906567 145.43851,25.9440438 146.235522,26.1508935 C147.032534,26.3577432 147.84997,26.4611665 148.687854,26.4611665 C151.017582,26.4611665 152.182428,25.7061764 152.182428,24.1961736 C152.182428,23.7204193 152.049594,23.3170684 151.783924,22.9861089 C151.518253,22.6551494 151.140189,22.3655642 150.64972,22.1173445 C150.159251,21.8691249 149.56661,21.6415937 148.871779,21.434744 C148.176948,21.2278943 147.400384,21.000363 146.542064,20.7521434 C145.499817,20.4625538 144.595529,20.1471127 143.829171,19.8058108 C143.062813,19.4645088 142.424191,19.0611579 141.913286,18.5957461 C141.402381,18.1303343 141.019208,17.5925331 140.763756,16.9823265 C140.508303,16.3721199 140.380579,15.6429857 140.380579,14.7949019 C140.380579,13.6779136 140.584938,12.6850499 140.993662,11.8162812 C141.402386,10.9475125 141.969482,10.2235494 142.694967,9.64437023 C143.420453,9.06519108 144.263433,8.62564207 145.223935,8.32571001 C146.184437,8.02577795 147.216449,7.87581417 148.320004,7.87581417 C149.85272,7.87581417 151.262797,8.11885892 152.550278,8.6049557 C153.837759,9.09105249 154.961733,9.66505179 155.922235,10.3269708 L154.052331,13.8020283 Z M159.87662,30.0603332 L159.87662,8.03095067 L164.106894,8.03095067 L164.106894,30.0603332 L159.87662,30.0603332 Z M181.610415,13.8020283 C181.467362,13.6572335 181.206804,13.4607293 180.828734,13.2125096 C180.450664,12.96429 179.990857,12.7212453 179.449297,12.4833681 C178.907738,12.245491 178.320206,12.0438155 177.686683,11.8783358 C177.053161,11.712856 176.40943,11.6301174 175.755472,11.6301174 C174.590608,11.6301174 173.722083,11.8473063 173.149869,12.2816907 C172.577655,12.716075 172.291552,13.3262725 172.291552,14.1123013 C172.291552,14.5673707 172.398841,14.9448657 172.613421,15.2447978 C172.828001,15.5447298 173.139649,15.8084592 173.548373,16.0359939 C173.957097,16.2635286 174.473103,16.4703751 175.096408,16.6565399 C175.719712,16.8427046 176.440077,17.0392089 177.257525,17.2460586 C178.320208,17.5356481 179.285804,17.845918 180.154343,18.1768775 C181.022882,18.5078371 181.758574,18.9215302 182.361442,19.4179695 C182.96431,19.9144088 183.429227,20.5090927 183.756206,21.2020392 C184.083185,21.8949857 184.246672,22.7482279 184.246672,23.7617914 C184.246672,24.9408347 184.026986,25.9492118 183.587608,26.7869531 C183.14823,27.6246944 182.555589,28.302117 181.809667,28.8192412 C181.063746,29.3363654 180.205438,29.7138605 179.234718,29.9517376 C178.263999,30.1896148 177.247313,30.3085516 176.18463,30.3085516 C174.549734,30.3085516 172.935298,30.0603357 171.341274,29.5638964 C169.74725,29.0674571 168.316737,28.3641787 167.049692,27.45404 L168.919596,23.7617914 C169.103521,23.9479561 169.435605,24.1910009 169.915856,24.4909329 C170.396106,24.790865 170.963203,25.0907926 171.617161,25.3907246 C172.27112,25.6906567 172.996594,25.9440438 173.793606,26.1508935 C174.590618,26.3577432 175.408054,26.4611665 176.245938,26.4611665 C178.575666,26.4611665 179.740512,25.7061764 179.740512,24.1961736 C179.740512,23.7204193 179.607678,23.3170684 179.342008,22.9861089 C179.076337,22.6551494 178.698273,22.3655642 178.207804,22.1173445 C177.717335,21.8691249 177.124694,21.6415937 176.429863,21.434744 C175.735032,21.2278943 174.958468,21.000363 174.100148,20.7521434 C173.057901,20.4625538 172.153613,20.1471127 171.387255,19.8058108 C170.620897,19.4645088 169.982275,19.0611579 169.47137,18.5957461 C168.960465,18.1303343 168.577292,17.5925331 168.32184,16.9823265 C168.066387,16.3721199 167.938663,15.6429857 167.938663,14.7949019 C167.938663,13.6779136 168.143022,12.6850499 168.551746,11.8162812 C168.96047,10.9475125 169.527566,10.2235494 170.253051,9.64437023 C170.978537,9.06519108 171.821517,8.62564207 172.782019,8.32571001 C173.742521,8.02577795 174.774533,7.87581417 175.878088,7.87581417 C177.410804,7.87581417 178.820881,8.11885892 180.108362,8.6049557 C181.395843,9.09105249 182.519817,9.66505179 183.480319,10.3269708 L181.610415,13.8020283 Z M203.558789,11.7852539 L196.600296,11.7852539 L196.600296,30.0603332 L192.400677,30.0603332 L192.400677,11.7852539 L185.442184,11.7852539 L185.442184,8.03095067 L203.558789,8.03095067 L203.558789,11.7852539 Z M214.532976,30.2154697 C212.938952,30.2154697 211.493112,29.9000286 210.195413,29.269137 C208.897714,28.6382455 207.783958,27.8005168 206.854111,26.7559258 C205.924263,25.7113348 205.203898,24.5167958 204.692993,23.1722727 C204.182088,21.8277497 203.926639,20.4522199 203.926639,19.0456419 C203.926639,17.5770091 204.197415,16.1704522 204.738974,14.8259292 C205.280533,13.4814062 206.026444,12.2920383 206.976727,11.2577898 C207.927011,10.2235413 209.056094,9.4013261 210.364011,8.7911195 C211.671928,8.18091289 213.092223,7.87581417 214.624938,7.87581417 C216.198526,7.87581417 217.634148,8.20159755 218.931847,8.8531741 C220.229546,9.50475064 221.338193,10.3579928 222.257823,11.4129263 C223.177452,12.4678597 223.892708,13.66757 224.403613,15.012093 C224.914519,16.356616 225.169967,17.7218036 225.169967,19.1076965 C225.169967,20.5763294 224.904301,21.977715 224.372959,23.3118956 C223.841618,24.6460761 223.105926,25.8251017 222.16586,26.8490077 C221.225795,27.8729137 220.10182,28.6899577 218.793903,29.3001643 C217.485986,29.9103709 216.065691,30.2154697 214.532976,30.2154697 Z M208.21822,19.0456419 C208.21822,19.9971505 208.361272,20.9176179 208.647379,21.8070716 C208.933485,22.6965252 209.347312,23.4825423 209.888872,24.1651463 C210.430431,24.8477503 211.094598,25.3958938 211.881392,25.8095932 C212.668186,26.2232926 213.562256,26.4301392 214.56363,26.4301392 C215.58544,26.4301392 216.489729,26.2181214 217.276523,25.7940795 C218.063317,25.3700376 218.727483,24.8063807 219.269043,24.1030917 C219.810602,23.3998027 220.21932,22.6086145 220.495209,21.7295033 C220.771098,20.8503921 220.90904,19.9557806 220.90904,19.0456419 C220.90904,18.0941333 220.76088,17.173666 220.464555,16.2842123 C220.16823,15.3947586 219.749294,14.6087415 219.207734,13.9261375 C218.666175,13.2435335 218.002008,12.7005612 217.215214,12.2972043 C216.428421,11.8938474 215.544568,11.692172 214.56363,11.692172 C213.54182,11.692172 212.632422,11.9041897 211.83541,12.3282316 C211.038399,12.7522735 210.374232,13.3107593 209.842891,14.0037058 C209.311549,14.6966523 208.90794,15.4826693 208.632051,16.3617805 C208.356163,17.2408917 208.21822,18.1355033 208.21822,19.0456419 Z M228.419308,30.0603332 L228.419308,8.03095067 L238.044712,8.03095067 C239.046086,8.03095067 239.97081,8.24296842 240.818913,8.6670103 C241.667015,9.09105218 242.397598,9.64953798 243.010685,10.3424845 C243.623771,11.0354309 244.104014,11.821448 244.45143,12.7005592 C244.798845,13.5796704 244.97255,14.4639396 244.97255,15.3533933 C244.97255,16.7806562 244.620031,18.0786186 243.914982,19.2473194 C243.209933,20.4160201 242.254555,21.25892 241.048819,21.7760443 L246.014792,30.0603332 L241.263398,30.0603332 L236.818546,22.6758359 L232.649581,22.6758359 L232.649581,30.0603332 L228.419308,30.0603332 Z M232.649581,18.9215327 L237.952749,18.9215327 C238.341037,18.9215327 238.703774,18.8284518 239.040972,18.642287 C239.378169,18.4561223 239.669381,18.2027352 239.914615,17.8821182 C240.15985,17.5615012 240.353991,17.1840061 240.497044,16.7496218 C240.640097,16.3152374 240.711623,15.8498326 240.711623,15.3533933 C240.711623,14.8362691 240.629879,14.3605219 240.46639,13.9261375 C240.3029,13.4917532 240.083214,13.1142581 239.807326,12.7936411 C239.531437,12.4730241 239.21468,12.2248082 238.857047,12.0489859 C238.499413,11.8731637 238.136676,11.7852539 237.768824,11.7852539 L232.649581,11.7852539 L232.649581,18.9215327 Z" id="TRANSISTOR"></path>
                                </g>
                            </g>
                        </g>
                    </g>
                </g>
            </g>
        </g>
    </g>
</svg>