<?xml version="1.0" encoding="UTF-8"?>
<svg width="243px" height="77px" viewBox="0 0 243 77" version="1.1" xmlns="http://www.w3.org/2000/svg" xmlns:xlink="http://www.w3.org/1999/xlink">
    <!-- Generator: Sketch 44 (41411) - http://www.bohemiancoding.com/sketch -->
    <title>btcberlin</title>
    <desc>Created with Sketch.</desc>
    <defs>
        <filter x="-2.9%" y="-43.8%" width="105.8%" height="225.0%" filterUnits="objectBoundingBox" id="filter-1">
            <feOffset dx="0" dy="9" in="SourceAlpha" result="shadowOffsetOuter1"></feOffset>
            <feGaussianBlur stdDeviation="8.5" in="shadowOffsetOuter1" result="shadowBlurOuter1"></feGaussianBlur>
            <feColorMatrix values="0 0 0 0 0.414603028   0 0 0 0 0.499707015   0 0 0 0 0.569276148  0 0 0 0.318812274 0" type="matrix" in="shadowBlurOuter1" result="shadowMatrixOuter1"></feColorMatrix>
            <feMerge>
                <feMergeNode in="shadowMatrixOuter1"></feMergeNode>
                <feMergeNode in="SourceGraphic"></feMergeNode>
            </feMerge>
        </filter>
    </defs>
    <g id="Master-(version-for-CodeRiver)" stroke="none" stroke-width="1" fill="none" fill-rule="evenodd" opacity="0.836220562">
        <g id="Home" transform="translate(-1019.000000, -3067.000000)" fill="#FFFFFF">
            <g id="PARTNER-SECTION" transform="translate(195.000000, 2991.000000)">
                <g id="Partner-Logos-Copy" filter="url(#filter-1)" transform="translate(0.000000, 83.241159)">
                    <g id="btcberlin" transform="translate(840.056075, 0.000000)">
                        <path d="M22.1063501,44.5551628 C9.94889444,44.404093 0.585839016,35.1784186 0.0311064964,22.9469767 C0.0881350732,10.0226977 9.65856714,0.546976744 22.1270878,0.255255814 C34.9066734,0.645953488 43.9016353,10.2779535 44.1764094,22.4260465 C43.8964509,35.2669767 34.0253227,44.4457674 22.1063501,44.5551628 Z M20.1621941,11.8615814 C19.8874201,11.819907 19.6437525,11.8042791 19.4519291,11.752186 C18.2698822,11.4604651 17.0895635,11.1617984 15.9109729,10.856186 C15.3303183,10.7051163 15.2784742,10.7259535 15.1177573,11.3250233 C14.9829624,11.8459535 14.8689053,12.3668837 14.7392949,12.8513488 C14.6096845,13.335814 14.6718975,13.4295814 15.1488638,13.5493953 C15.62583,13.6692093 16.0665054,13.7577674 16.5123652,13.9036279 C17.3677938,14.1901395 17.6270146,14.6902326 17.4092692,15.560186 C17.0515445,16.9823256 16.6938198,18.4044651 16.336095,19.831814 C15.8176534,21.847814 15.3406872,23.8690233 14.8377988,25.8850233 C14.6615287,26.5934884 14.3193572,26.8018605 13.6142766,26.6403721 C13.2254454,26.551814 12.8366142,26.4424186 12.447783,26.3434419 C12.0589518,26.2444651 11.9293414,26.2965581 11.7530712,26.6768372 C11.4800253,27.3019535 11.2104357,27.9270698 10.9443023,28.552186 C10.7265569,29.0731163 10.778401,29.1616744 11.2916582,29.2866977 L14.8326144,30.1774884 C15.5791703,30.3650233 15.5895391,30.3754419 15.3925313,31.136 C15.1505919,32.0667287 14.9103806,32.9974574 14.6718975,33.928186 C14.5837624,34.2667907 14.640791,34.4074419 14.9466715,34.4907907 C15.5325106,34.6522791 16.123534,34.8033488 16.7197418,34.9335814 C17.0152536,35.0013023 17.1293107,34.9335814 17.2381834,34.615814 C17.3470562,34.2980465 17.3833471,34.0375814 17.4559289,33.7510698 C17.6581211,32.9748837 17.8654978,32.1882791 18.0625056,31.4173023 C18.129903,31.1620465 18.2595134,31.0682791 18.5187342,31.1412093 C18.777955,31.2141395 19.1253109,31.2974884 19.426007,31.3808372 C19.9081577,31.5110698 19.9444486,31.5475349 19.8200226,32.032 C19.5815395,33.0165581 19.3326875,33.995907 19.0838356,34.9804651 C18.9853317,35.3711628 19.0060693,35.4701395 19.3586096,35.5743256 C19.9392642,35.7514419 20.5302876,35.9077209 21.1213111,36.0535814 C21.4168228,36.1265116 21.5153267,36.0535814 21.6034618,35.7306047 C21.6915968,35.4076279 21.7382566,35.2096744 21.805654,34.9179535 C22.0026618,34.1209302 22.1944852,33.323907 22.4018618,32.5268837 C22.4951813,32.1570233 22.5418411,32.1309767 22.9203035,32.1674419 C23.0602827,32.1674419 23.1950775,32.1986977 23.3350567,32.2247442 C24.4146404,32.430137 25.5175157,32.48274 26.6116077,32.3810233 C27.8435805,32.3167422 29.0045569,31.7819185 29.8570522,30.8859535 C30.5154168,30.1388614 30.9896062,29.2466037 31.2412913,28.2813023 C31.4913031,27.494048 31.549969,26.6580654 31.412377,25.8433488 C31.1680481,24.7154403 30.4572351,23.7454583 29.4578521,23.176186 C29.3386106,23.0980465 29.2297378,23.0094884 29.0482833,22.8792558 C29.2349222,22.8011163 29.3282417,22.7542326 29.4215612,22.7229767 C29.9507932,22.5406683 30.427738,22.231312 30.8109847,21.8217674 C31.5509092,20.9737556 31.9533532,19.8811991 31.9411874,18.7534884 C32.0213306,17.635598 31.5990371,16.5403919 30.7902471,15.7685581 C30.5167827,15.5005707 30.2239249,15.2533196 29.9140807,15.0288372 C29.1800566,14.5258402 28.3857381,14.1180231 27.549987,13.8150698 C27.0730207,13.6275349 27.0782051,13.611907 27.2026311,13.1222326 C27.4514831,12.1376744 27.7210727,11.1583256 27.9336338,10.1685581 C28.0321377,9.75702326 27.985478,9.64762791 27.6588597,9.55906977 C27.0712926,9.39584496 26.4802692,9.24824806 25.8857895,9.11627907 C25.5799089,9.04855814 25.4865894,9.11627907 25.3984543,9.42883721 C25.3103193,9.74139535 25.2636595,9.94976744 25.1962621,10.2414884 C25.0096231,10.9864186 24.833353,11.7365581 24.6363452,12.4814884 C24.5326569,12.8773953 24.4808127,12.8930233 24.0816127,12.7940465 L23.2676593,12.6065116 C22.7492177,12.4866977 22.7492177,12.424186 22.8632749,11.924093 C23.0913892,11.0072558 23.3246879,10.0956279 23.5424334,9.1787907 C23.6824126,8.60055814 23.6564905,8.55367442 23.1069424,8.40260465 C22.5573943,8.25153488 22.1322722,8.14734884 21.6397527,8.03274419 C21.2301838,7.93897674 21.1213111,7.98586047 21.0435448,8.38697674 C20.8983812,8.94437209 20.7687708,9.50697674 20.6287916,10.0643721 C20.4888123,10.6217674 20.322911,11.2312558 20.1621941,11.8615814 Z" id="Shape"></path>
                        <path d="M100.01257,21.0716279 C100.022819,21.0438182 100.036771,21.0175324 100.054046,20.9934884 C100.313267,20.6132093 100.308082,20.5871628 99.9348042,20.3527442 C99.799198,20.2763867 99.6676781,20.1929228 99.5407886,20.1026977 C98.9273764,19.6984993 98.6410579,18.9446179 98.8305236,18.2325581 C98.9818531,17.8457593 99.2300886,17.5048158 99.5511574,17.2427907 C99.7844561,17.024 99.9762795,16.852093 99.9088821,16.5030698 C99.8993414,16.4156471 99.9194345,16.327547 99.9659107,16.2530233 C100.143663,15.9829512 100.143663,15.6323046 99.9659107,15.3622326 C99.9068543,15.2737313 99.8912671,15.1629715 99.9235869,15.0614872 C99.9559068,14.9600029 100.032593,14.8789122 100.131812,14.8413023 C100.520643,14.6433488 100.572487,14.3203721 100.556934,13.9244651 C100.531012,12.8826047 100.556934,11.8407442 100.556934,10.7988837 C100.556934,9.84037209 100.525828,8.88186047 100.515459,7.91813953 L100.515459,5.71460465 C100.505615,5.64528297 100.51644,5.57458497 100.546565,5.51144186 C100.603594,5.43851163 100.696913,5.34474419 100.77468,5.34995349 C100.871618,5.36561648 100.954841,5.42784716 100.99761,5.51665116 C101.032432,5.6508413 101.044698,5.78993425 101.0339,5.92818605 C101.0339,6.75125581 100.99761,7.56911628 101.002794,8.39218605 C101.002794,9.81953488 101.039085,11.252093 101.044269,12.6794419 C101.054426,13.1419583 101.037114,13.6046716 100.992425,14.0651163 C100.92757,14.3443332 101.060072,14.632085 101.313859,14.7631628 C101.744165,15.0288372 101.738981,15.0444651 101.557526,15.508093 C101.557526,15.5549767 101.495313,15.6122791 101.505682,15.6539535 C101.614555,16.1748837 101.505682,16.7635349 101.97228,17.1802791 C102.077682,17.2720729 102.176436,17.3713012 102.267791,17.4772093 C103.055823,18.4565581 102.936581,19.3473488 101.97228,20.16 C101.86015,20.2425856 101.740354,20.3141106 101.614555,20.3735814 C101.230908,20.5871628 101.225724,20.6236279 101.484945,20.9986977 C101.511625,21.0424543 101.535857,21.0876718 101.557526,21.1341395 C101.444817,21.3470117 101.3528,21.5703087 101.282752,21.8009302 C101.255763,22.0258522 101.255763,22.2532176 101.282752,22.4781395 C101.339781,23.9992558 101.417547,25.5151628 101.453838,27.0362791 C101.484945,28.343814 101.453838,29.6409302 101.495313,30.9693023 C101.521236,32.0111628 101.599002,33.099907 101.650846,34.1626047 L101.650846,34.5793488 C101.669374,34.6763569 101.641174,34.7764563 101.574793,34.8493137 C101.508411,34.9221711 101.41166,34.9592111 101.313859,34.9492093 L100.219947,34.9492093 C100.130462,34.9578693 100.04192,34.9251286 99.9793681,34.8602494 C99.9168166,34.7953702 99.887059,34.7054085 99.8985133,34.615814 L99.8985133,34.4074419 C99.9607263,32.5373023 100.022939,30.6723721 100.074783,28.8022326 C100.100706,27.8385116 100.074783,26.88 100.116259,25.9162791 C100.116259,25.2338605 100.147365,24.5566512 100.178472,23.8742326 C100.209578,23.191814 100.287345,22.6552558 100.276976,22.0457674 C100.229599,21.7112491 100.140774,21.3839968 100.01257,21.0716279 L100.01257,21.0716279 Z" id="Shape" stroke="#FFFFFF"></path>
                        <path d="M141.658985,30.120186 L141.658985,34.5949767 L141.052408,34.5949767 C141.052408,34.4282791 141.026486,34.2615814 141.052408,34.0740465 C141.052408,31.7506977 141.104252,29.4221395 141.109437,27.0987907 L141.109437,12.4606512 C141.086803,12.0153239 141.243799,11.5796333 141.544928,11.252093 C141.589094,11.363109 141.622093,11.4782875 141.643432,11.595907 C141.643432,11.8928372 141.669354,12.1897674 141.669354,12.4866977 L141.669354,19.5713488 C141.669354,20.2693953 141.622694,20.9674419 141.612325,21.6550698 C141.620541,21.8506933 141.641322,22.0455795 141.674538,22.2385116 L141.778226,22.2385116 C141.809333,22.1603721 141.850808,22.0874419 141.87673,22.0093023 C142.860715,19.3443031 145.348604,17.5398976 148.175796,17.4407442 C148.993132,17.3949497 149.81269,17.4722069 150.607287,17.6699535 C151.958121,18.060078 153.133694,18.906432 153.935682,20.0662326 C154.841773,21.3769503 155.403526,22.8964866 155.568773,24.4837209 C155.841701,26.3790317 155.664039,28.3123461 155.050331,30.1253953 C154.634967,31.4335416 153.869042,32.6014614 152.836586,33.5010233 C151.365189,34.7538181 149.419891,35.2929621 147.517375,34.9752558 C144.743712,34.6053953 142.903245,33.0217674 141.892283,30.4223256 L141.767858,30.1045581 L141.658985,30.120186 Z M148.523152,34.4699535 C150.698561,34.5637051 152.74064,33.4168283 153.800887,31.5058605 C154.552535,30.178836 154.980702,28.691802 155.050331,27.1665116 C155.219076,25.2212801 154.860785,23.266419 154.013448,21.5092093 C152.976565,19.4254884 151.379765,18.1596279 149.020856,17.9773023 C145.96205,17.7428837 143.483899,19.2535814 142.379619,22.004093 C141.804568,23.5107637 141.555376,25.1231943 141.648616,26.7341395 C141.682351,28.0843125 142.009713,29.4107142 142.607733,30.6202791 C143.867546,33.0582326 145.811702,34.3813953 148.523152,34.4699535 L148.523152,34.4699535 Z" id="Shape" stroke="#FFFFFF"></path>
                        <path d="M173.035071,28.896 C172.988411,29.1825116 172.957305,29.4742326 172.895092,29.7607442 C172.299188,32.4544272 170.111257,34.4995298 167.394426,34.9023256 C166.225357,35.103346 165.028867,35.0785941 163.869023,34.8293953 C161.991795,34.452273 160.403298,33.2039746 159.586696,31.464186 C158.802719,29.7974223 158.446266,27.9600424 158.549812,26.1194419 C158.551404,25.2097962 158.662818,24.3037039 158.881615,23.4210233 C159.381509,21.4467697 160.588818,19.7272766 162.272223,18.592 C164.765927,16.8885581 168.571289,17.1698605 170.624317,18.9826977 C171.6338,19.9042025 172.372563,21.0861322 172.760297,22.4 C173.156748,23.6601617 173.321878,24.9822495 173.247632,26.3017674 L168.581657,26.3017674 L159.197864,26.3017674 C159.171592,26.390088 159.154223,26.4808389 159.14602,26.5726512 C159.140805,28.0026848 159.419274,29.4194238 159.965158,30.740093 C160.827081,32.9633271 162.956466,34.4290091 165.331029,34.4334884 C166.023801,34.4775405 166.719298,34.4443459 167.404795,34.3345116 C169.625571,34.0304123 171.467513,32.4562289 172.122614,30.3025116 C172.275214,29.894605 172.448249,29.4947143 172.641055,29.1043721 C172.711171,28.9982998 172.796814,28.9034649 172.895092,28.8230698 L173.035071,28.896 Z M172.641055,25.6714419 C172.656848,25.3903633 172.656848,25.1086134 172.641055,24.8275349 C172.584027,24.3795349 172.516629,23.9263256 172.418125,23.4835349 C172.128736,21.942054 171.352414,20.5354096 170.20438,19.4723721 C167.516306,17.2099439 163.530032,17.4835626 161.173127,20.0922791 C160.12085,21.3371488 159.452458,22.8631839 159.249709,24.4837209 C159.19268,24.8535814 159.161573,25.2286512 159.109729,25.6506047 C159.757781,25.6922791 160.328067,25.7547907 160.898353,25.7547907 L171.702676,25.7547907 C171.987819,25.7704186 172.278146,25.7131163 172.641055,25.6714419 Z" id="Shape" stroke="#FFFFFF"></path>
                        <path d="M124.731866,28.896 C124.820001,29.4586047 124.871846,29.9378605 124.970349,30.4223256 C125.248546,32.0886999 126.425218,33.461718 128.02397,33.9854884 C129.804685,34.6433529 131.752599,34.6873364 133.560927,34.1105116 C134.106852,33.9324945 134.621291,33.6687657 135.085145,33.3291163 C136.437804,32.3213723 136.895484,30.494941 136.179057,28.9637209 C135.91217,28.3725317 135.448263,27.8935018 134.8674,27.6093023 C134.183313,27.2694097 133.472336,26.987139 132.741789,26.7653953 C131.388657,26.3694884 130.014786,26.0673488 128.656469,25.6922791 C128.05393,25.5205341 127.461896,25.3135454 126.883399,25.0723721 C125.687229,24.6236744 124.895171,23.4745597 124.897768,22.1916279 C124.773342,20.3787907 125.685799,19.1754419 127.132251,18.2898605 C127.889429,17.8481798 128.737067,17.5862531 129.610402,17.524093 C130.913317,17.3833532 132.231063,17.5019532 133.488345,17.8731163 C135.008662,18.2889744 136.156109,19.5452705 136.438278,21.1028837 C136.547151,21.5925581 136.578257,22.0978605 136.645654,22.6656744 L136.007971,22.6656744 C136.007971,22.5562791 135.976865,22.4573023 135.97168,22.3583256 C135.867992,20.1183256 134.737789,18.711814 132.560335,18.1908837 C131.149515,17.8393577 129.671948,17.8626958 128.272822,18.2586047 C126.961165,18.6336744 125.94502,19.3942326 125.576926,20.779907 C125.208833,22.1655814 125.54582,23.9054884 127.313705,24.5826977 C128.169134,24.916093 129.060854,25.1661395 129.947389,25.4213953 C131.119067,25.7547907 132.306298,26.036093 133.472792,26.3746977 C134.024322,26.5366887 134.560427,26.7476276 135.074776,27.0050233 C136.676761,27.8072558 137.241862,29.1825116 137.050039,30.9224186 C136.915308,32.2737552 136.115086,33.467134 134.919244,34.100093 C134.021023,34.6080478 133.022955,34.912106 131.995233,34.9908837 C130.601705,35.1489696 129.190743,35.0213735 127.8477,34.615814 C125.732459,33.943814 124.586703,32.4591628 124.270453,30.2816744 C124.186658,29.771527 124.359402,29.2527562 124.731866,28.896 L124.731866,28.896 Z" id="Shape" stroke="#FFFFFF"></path>
                        <path d="M94.2112089,26.0465116 C94.2514463,27.8147185 93.8541908,29.5653053 93.0550841,31.1412093 C90.5976709,35.8295814 84.9466573,35.8295814 82.1678103,33.547907 C81.3164032,32.8751175 80.6285203,32.0164806 80.1562569,31.0370233 C78.6534265,28.0677247 78.6630719,24.5534826 80.182179,21.5925581 C81.0584705,19.64602 82.7806703,18.2155008 84.8481534,17.7168372 C88.4772447,16.8677209 91.8160086,18.2377674 93.3920711,22.004093 C93.9340712,23.2821344 94.2127236,24.6572749 94.2112089,26.0465116 Z M93.6305543,26.3538605 C93.6640185,24.5248522 93.1939557,22.7221073 92.2722373,21.1445581 C90.7732777,18.5730863 87.7282785,17.3522438 84.8792599,18.1804651 C82.9529674,18.6645138 81.3684798,20.0363419 80.6073011,21.8790698 C79.3472325,24.5436538 79.3187865,27.6305677 80.5295349,30.3181395 C81.5645863,32.9724298 84.1830999,34.6549769 87.0152394,34.4855814 C89.1727011,34.4761761 91.165143,33.323686 92.256684,31.4537674 C93.17898,29.9193664 93.6565952,28.1566973 93.6357387,26.3642791 L93.6305543,26.3538605 Z" id="Shape" stroke="#FFFFFF"></path>
                        <path d="M196.852278,17.8366512 L196.852278,21.7488372 L196.935229,21.7488372 C196.980925,21.6857667 197.019199,21.6175918 197.049286,21.5456744 C197.4993,20.1836674 198.453435,19.0477573 199.714076,18.3732093 C201.504798,17.2823534 203.698424,17.0898507 205.650232,17.8522791 C207.469962,18.4826047 208.46537,19.8943256 208.849017,21.7488372 C208.950775,22.2634408 209.001141,22.786968 208.999365,23.3116279 L208.999365,34.0688372 L208.999365,34.5897674 L208.38242,34.5897674 L208.38242,34.0688372 C208.38242,30.6584806 208.396245,27.248124 208.423895,23.8377674 C208.445571,23.0848007 208.361801,22.3325102 208.175043,21.6029767 C207.675043,19.6424687 206.002113,18.20969 203.996404,18.024186 C203.097361,17.9002188 202.182768,17.9568806 201.305692,18.1908837 C199.771119,18.6134117 198.490995,19.6777138 197.790658,21.1133023 C197.154174,22.383542 196.837317,23.7912009 196.867832,25.2130233 L196.867832,33.9750698 L196.867832,34.6106047 L196.271624,34.6106047 C196.271624,34.4595349 196.235333,34.324093 196.235333,34.1938605 L196.235333,23.5460465 L196.235333,19.04 C196.253887,18.5951322 196.413775,18.1679342 196.691561,17.8210233 L196.852278,17.8366512 Z" id="Shape" stroke="#FFFFFF"></path>
                        <path d="M108.385402,34.6106047 L107.799563,34.6106047 C107.778915,34.4759539 107.765072,34.340338 107.758088,34.2042791 C107.758088,30.6029147 107.766729,27.0015504 107.78401,23.400186 L107.78401,22.2437209 C107.736552,21.9650072 107.832059,21.6810273 108.038047,21.4883721 C108.113777,21.4371945 108.15555,21.3484699 108.146898,21.2571804 C108.138245,21.1658908 108.080554,21.0866845 107.996571,21.0507907 C107.794379,20.951814 107.78401,20.7955349 107.78401,20.6184186 C107.752873,20.042347 107.752873,19.4650019 107.78401,18.8889302 C107.865983,18.5284464 107.989516,18.1787979 108.152104,17.8470698 L108.271345,17.8470698 C108.302288,17.9471639 108.32313,18.050132 108.333558,18.1544186 L108.333558,20.6705116 L108.333558,21.7123721 L108.447615,21.7123721 C108.483782,21.6635035 108.515041,21.6111548 108.540935,21.556093 C109.1726,19.8435068 110.534734,18.5054186 112.252977,17.9095814 C113.819918,17.3147299 115.549018,17.3147299 117.115959,17.9095814 C118.982349,18.5555349 119.982941,19.9933023 120.361404,21.8842791 C120.454184,22.3823726 120.499322,22.8882436 120.496198,23.3949767 L120.496198,34.1469767 C120.496198,34.2980465 120.496198,34.4543256 120.465092,34.6262326 L119.868884,34.6262326 L119.868884,34.1053023 C119.868884,30.5369302 119.899991,26.9737674 119.868884,23.4053953 C119.863686,22.8288772 119.788828,22.2551268 119.645954,21.6967442 C119.194354,19.721872 117.541,18.2554109 115.534712,18.0502326 C114.775318,17.9378838 114.002584,17.9537295 113.248385,18.0971163 C111.430215,18.4318108 109.894725,19.6489346 109.147512,21.3477209 C108.624405,22.4940608 108.363971,23.7437369 108.385402,25.0046512 L108.385402,33.9229767 L108.385402,34.6106047 Z" id="Shape" stroke="#FFFFFF"></path>
                        <path d="M76.0813059,22.8011163 L75.5213889,22.8011163 C75.4799136,22.6500465 75.4332539,22.4833488 75.3969629,22.3218605 C74.9311076,19.9563402 72.9573363,18.190145 70.5650872,17.9981395 C69.4541727,17.8732923 68.329528,17.9905609 67.2677985,18.3419535 C65.6092991,18.901943 64.2595483,20.1335056 63.5453878,21.7384186 C62.6785687,23.5831406 62.3444635,25.6352966 62.5810864,27.6613953 C62.6887826,28.8838218 63.056529,30.0687462 63.659445,31.136 C64.5753062,32.7102966 66.0805537,33.8504131 67.8389346,34.3016623 C69.5973154,34.7529114 71.4623148,34.4776934 73.017316,33.5374884 C74.1834428,32.8085026 75.0359863,31.6675602 75.4073318,30.3389767 C75.5405785,29.9430866 75.696368,29.5552218 75.8739292,29.1773023 C75.9154046,29.0835349 76.0294617,29.0262326 76.1694409,28.8907907 C76.1821509,29.0902764 76.1821509,29.2903747 76.1694409,29.4898605 C75.7727433,32.3207363 73.5423411,34.5362566 70.7206196,34.9023256 C69.1833666,35.173767 67.6003605,34.9722178 66.1790712,34.324093 C64.3632816,33.4477615 63.0028258,31.8384286 62.4359228,29.896186 C61.9620083,28.3909425 61.8152657,26.801002 62.0056162,25.2338605 C62.1435327,23.6060065 62.6892931,22.039718 63.5920475,20.6809302 C64.8252869,18.7842924 66.8874382,17.5952842 69.1393727,17.4824186 C70.3051466,17.3551962 71.4842603,17.5124512 72.5766406,17.9408372 C74.6193005,18.7951628 75.7132123,20.3996279 76.0968591,22.5458605 C76.1013909,22.6312633 76.0961725,22.7169068 76.0813059,22.8011163 L76.0813059,22.8011163 Z" id="Shape" stroke="#FFFFFF"></path>
                        <path d="M55.7013663,12.5908837 L55.7013663,17.6595349 C56.9500401,17.8880119 58.2285582,17.8985852 59.4808056,17.6907907 L59.5222809,18.3211163 L55.7895014,18.3211163 C55.7618042,18.4621961 55.7427588,18.6048524 55.7324728,18.7482791 L55.7324728,31.5423256 C55.7411578,31.9788785 55.8109685,32.4120287 55.9398494,32.8290233 C56.1008593,33.4616632 56.6363604,33.9270224 57.2826132,33.995907 C57.7302984,34.0433178 58.1809859,34.05551 58.6305614,34.0323721 C58.882521,34.016201 59.1334522,33.9866403 59.3823017,33.943814 L59.3823017,34.4647442 C58.4510426,34.6958751 57.4750157,34.6706825 56.5567949,34.391814 C55.8470326,34.0976249 55.345803,33.4472607 55.2399533,32.6831628 C55.1615298,32.2185831 55.1250904,31.7478278 55.1310805,31.2766512 L55.1310805,19.8995349 C55.1310805,19.3786047 55.099974,18.8941395 55.0844208,18.3367442 L52.046353,18.3367442 C51.9582179,18.0606512 52.046353,17.9408372 52.2640984,17.9304186 C52.868947,17.9026357 53.4755236,17.8817984 54.0838285,17.867907 C54.3586025,17.867907 54.6437454,17.9147907 54.913335,17.867907 C55.3125351,17.8262326 55.5043585,17.5866047 55.3695637,17.2167442 C54.9237039,16.023814 55.2036623,14.7944186 55.162187,13.5702326 C55.2202126,13.2054111 55.3394175,12.8531255 55.5147273,12.5283721 L55.7013663,12.5908837 Z" id="Shape" stroke="#FFFFFF"></path>
                        <path d="M177.369243,34.600186 L176.762666,34.600186 C176.762666,34.443907 176.731559,34.3084651 176.731559,34.1730233 C176.731559,30.7973953 176.7402,27.4235039 176.757482,24.0513488 C176.757482,22.3895814 176.783404,20.7330233 176.783404,19.0712558 C176.79123,18.5788914 176.956656,18.1021494 177.255186,17.7116279 C177.294639,17.8638019 177.322371,18.0188028 177.338136,18.1752558 L177.338136,20.4829767 C177.328219,20.8848104 177.34554,21.2868564 177.38998,21.6863256 C178.618687,18.711814 180.99315,17.5449302 184.031217,17.3053023 L184.09343,17.867907 C183.668308,17.9043721 183.274293,17.9252093 182.880277,17.9668837 C180.797903,18.1307639 178.977362,19.4405442 178.15209,21.3685581 C177.614405,22.5493021 177.348593,23.8366659 177.374427,25.1348837 L177.374427,33.8969302 C177.369243,34.1313488 177.369243,34.3345116 177.369243,34.600186 Z" id="Shape" stroke="#FFFFFF"></path>
                        <path d="M186.576766,11.2312558 C186.623873,11.3216937 186.658744,11.4180499 186.680454,11.5177674 L186.680454,34.600186 L186.120537,34.600186 C186.120537,34.4543256 186.084246,34.3188837 186.084246,34.1834419 C186.084246,28.7657674 186.099799,23.348093 186.130906,17.9304186 L186.130906,12.4762791 C186.140959,12.0236203 186.297474,11.5865687 186.576766,11.2312558 Z" id="Shape" stroke="#FFFFFF"></path>
                        <path d="M49.4437761,34.600186 L48.894228,34.600186 C48.894228,34.4595349 48.8579371,34.3397209 48.8579371,34.2251163 C48.8579371,29.224186 48.8890436,24.2232558 48.8579371,19.2223256 C48.8979451,18.7062991 49.0615873,18.2076543 49.3349033,17.7689302 C49.4904358,18.2950698 49.5526488,33.4697674 49.4437761,34.600186 Z" id="Shape" stroke="#FFFFFF"></path>
                        <path d="M191.740444,17.8574884 L191.740444,34.5949767 L191.175343,34.5949767 C191.175343,34.4282791 191.149421,34.2772093 191.175343,34.1261395 C191.175343,30.4553178 191.192624,26.7827597 191.227187,23.1084651 L191.227187,19.0712558 C191.244734,18.6265779 191.380812,18.1947954 191.621202,17.8210233 L191.740444,17.8574884 Z" id="Shape" stroke="#FFFFFF"></path>
                        <path d="M49.4489605,11.3458605 L49.4489605,14.3933023 L48.9305189,14.3933023 C48.9305189,13.6431628 48.9305189,11.3458605 48.9305189,11.3458605 L49.4489605,11.3458605 Z" id="Shape" stroke="#FFFFFF"></path>
                        <path d="M191.724891,14.4141395 L191.175343,14.4141395 L191.175343,13.7994419 C191.175343,13.3306047 191.227187,12.8565581 191.227187,12.3877209 C191.243149,11.9817735 191.390601,11.5921669 191.647125,11.2781395 C191.810074,12.3154981 191.836222,13.3699139 191.724891,14.4141395 L191.724891,14.4141395 Z" id="Shape" stroke="#FFFFFF"></path>
                        <path d="M23.2469217,28.8595349 C22.1689208,28.7624791 21.1007499,28.5760457 20.0533214,28.3021395 C19.8148382,28.2448372 19.5763551,28.1927442 19.3482408,28.119814 C19.0060693,28.0156279 18.9594096,27.9374884 19.0423602,27.5988837 C19.275659,26.6299535 19.5141421,25.6662326 19.7526252,24.6973023 C19.8666824,24.2232558 19.985924,23.7492093 20.1051655,23.2751628 C20.2244071,22.8011163 20.2866201,22.795907 20.6806357,22.8844651 C21.8439486,23.1014313 22.9818968,23.4383446 24.0764282,23.8898605 C24.6555262,24.1356601 25.1832151,24.4891413 25.6317531,24.9317209 C26.2136144,25.4857558 26.4454621,26.3162214 26.2352759,27.0935064 C26.0250897,27.8707915 25.4068657,28.4691765 24.6259763,28.6511628 C24.1749321,28.7449302 23.7083347,28.7813953 23.2469217,28.8595349 Z" id="Shape"></path>
                        <path d="M24.3149114,20.8736744 C23.261592,20.7814515 22.2197597,20.5860427 21.2042617,20.2902326 C20.9605942,20.2277209 20.9191189,20.055814 20.9657786,19.8474419 C21.0124383,19.6390698 21.1005734,19.3265116 21.1679708,19.0347907 C21.4271916,17.9929302 21.6864124,16.9510698 21.9404488,15.9404651 C22.0596904,15.4716279 22.0752436,15.4664186 22.5470255,15.5653953 C23.4886813,15.7290192 24.4052977,16.0144292 25.2740284,16.4145116 C25.6597177,16.6112529 26.0245022,16.8468829 26.3627557,17.1177674 C27.0007239,17.645533 27.2394262,18.5194143 26.9589636,19.3004651 C26.7720227,20.0454737 26.1593814,20.6056534 25.4036388,20.7226047 C25.0407296,20.8059535 24.6726361,20.8372093 24.3149114,20.8736744 Z" id="Shape"></path>
                    </g>
                </g>
            </g>
        </g>
    </g>
</svg>