<?xml version="1.0" encoding="UTF-8"?>
<svg width="60px" height="56px" viewBox="0 0 60 56" version="1.1" xmlns="http://www.w3.org/2000/svg" xmlns:xlink="http://www.w3.org/1999/xlink">
    <g id="Master" stroke="none" stroke-width="1" fill="none" fill-rule="evenodd">
        <g id="Group-33" transform="translate(0.000000, -6.000000)">
            <rect id="Rectangle-29" x="0" y="0" width="70" height="70"></rect>
            <g id="Group" transform="translate(0.000000, 6.000000)">
                <path d="M9.54322647,1.74182927 L54.6096375,1.74182927 C57.0984301,1.74182927 59.1162786,4.14439024 59.1162786,7.10768293 L59.1162786,50.0345122 C59.1162786,52.9978049 57.0984301,55.4003659 54.6096375,55.4003659 L9.54322647,55.4003659 C7.05443392,55.4003659 5.03658537,52.9978049 5.03658537,50.0345122 L5.03658537,7.10768293 C5.03658537,4.14304878 7.05443392,1.74182927 9.54322647,1.74182927 Z" id="Shape" fill="#CCE1F4"></path>
                <path d="M58.5529485,50.0345122 L5.5999155,50.0345122 C5.28895727,50.0345122 5.03658537,49.7340244 5.03658537,49.3637805 L5.03658537,48.0223171 C5.03658537,47.6520732 5.28895727,47.3515854 5.5999155,47.3515854 L58.5529485,47.3515854 C58.8639067,47.3515854 59.1162786,47.6520732 59.1162786,48.0223171 L59.1162786,49.3637805 C59.1162786,49.7340244 58.8639067,50.0345122 58.5529485,50.0345122 Z M58.5529485,41.9857317 L5.5999155,41.9857317 C5.28895727,41.9857317 5.03658537,41.6852439 5.03658537,41.315 L5.03658537,39.9735366 C5.03658537,39.6032927 5.28895727,39.3028049 5.5999155,39.3028049 L58.5529485,39.3028049 C58.8639067,39.3028049 59.1162786,39.6032927 59.1162786,39.9735366 L59.1162786,41.315 C59.1162786,41.6852439 58.8639067,41.9857317 58.5529485,41.9857317 Z M58.5529485,33.9369512 L5.5999155,33.9369512 C5.28895727,33.9369512 5.03658537,33.6364634 5.03658537,33.2662195 L5.03658537,31.9247561 C5.03658537,31.5545122 5.28895727,31.2540244 5.5999155,31.2540244 L58.5529485,31.2540244 C58.8639067,31.2540244 59.1162786,31.5545122 59.1162786,31.9247561 L59.1162786,33.2662195 C59.1162786,33.6364634 58.8639067,33.9369512 58.5529485,33.9369512 Z M58.5529485,25.8881707 L5.5999155,25.8881707 C5.28895727,25.8881707 5.03658537,25.5876829 5.03658537,25.217439 L5.03658537,23.8759756 C5.03658537,23.5057317 5.28895727,23.2052439 5.5999155,23.2052439 L58.5529485,23.2052439 C58.8639067,23.2052439 59.1162786,23.5057317 59.1162786,23.8759756 L59.1162786,25.217439 C59.1162786,25.5876829 58.8639067,25.8881707 58.5529485,25.8881707 Z M58.5529485,17.8393902 L5.5999155,17.8393902 C5.28895727,17.8393902 5.03658537,17.5389024 5.03658537,17.1686585 L5.03658537,15.8271951 C5.03658537,15.4569512 5.28895727,15.1564634 5.5999155,15.1564634 L58.5529485,15.1564634 C58.8639067,15.1564634 59.1162786,15.4569512 59.1162786,15.8271951 L59.1162786,17.1686585 C59.1162786,17.5389024 58.8639067,17.8393902 58.5529485,17.8393902 Z M58.5529485,9.79060976 L5.5999155,9.79060976 C5.28895727,9.79060976 5.03658537,9.49012195 5.03658537,9.11987805 L5.03658537,7.77841463 C5.03658537,7.40817073 5.28895727,7.10768293 5.5999155,7.10768293 L58.5529485,7.10768293 C58.8639067,7.10768293 59.1162786,7.40817073 59.1162786,7.77841463 L59.1162786,9.11987805 C59.1162786,9.49012195 58.8639067,9.79060976 58.5529485,9.79060976 Z" id="Shape" fill="#E4ECF5"></path>
                <path d="M3.35365854,0.741829268 L35.5487805,0.741829268 C37.0310976,0.741829268 38.2317073,1.94378049 38.2317073,3.4247561 L38.2317073,16.8393902 C38.2317073,18.3217073 37.0310976,19.5223171 35.5487805,19.5223171 L3.35365854,19.5223171 C1.87134146,19.5223171 0.670731707,18.3217073 0.670731707,16.8393902 L0.670731707,3.4247561 C0.670731707,1.94243902 1.87134146,0.741829268 3.35365854,0.741829268 Z" id="Shape" fill="#1658BD"></path>
                <path d="M54,31.2784146 L52.6585366,31.2784146 C52.2882927,31.2784146 51.9878049,31.0472702 51.9878049,30.7624672 L51.9878049,19.379728 C51.9878049,19.094925 52.2882927,18.8637805 52.6585366,18.8637805 L54,18.8637805 C54.3702439,18.8637805 54.6707317,19.094925 54.6707317,19.379728 L54.6707317,30.7624672 C54.6707317,31.0472702 54.3702439,31.2784146 54,31.2784146 Z M48.8185247,37.6442683 L47.4770613,37.6442683 C47.1068174,37.6442683 46.8063295,37.3437805 46.8063295,36.9735366 L46.8063295,27.5832927 C46.8063295,27.2130488 47.1068174,26.912561 47.4770613,26.912561 L48.8185247,26.912561 C49.1887686,26.912561 49.4892564,27.2130488 49.4892564,27.5832927 L49.4892564,36.9735366 C49.4892564,37.3437805 49.1887686,37.6442683 48.8185247,37.6442683 Z M43.2682927,35.9613415 L41.9268293,35.9613415 C41.5565854,35.9613415 41.2560976,35.6608537 41.2560976,35.2906098 L41.2560976,24.5589024 C41.2560976,24.1886585 41.5565854,23.8881707 41.9268293,23.8881707 L43.2682927,23.8881707 C43.6385366,23.8881707 43.9390244,24.1886585 43.9390244,24.5589024 L43.9390244,35.2906098 C43.9390244,35.6608537 43.6385366,35.9613415 43.2682927,35.9613415 Z M37.902439,41.3271951 L36.5609756,41.3271951 C36.1907317,41.3271951 35.8902439,41.0267073 35.8902439,40.6564634 L35.8902439,31.2662195 C35.8902439,30.8959756 36.1907317,30.5954878 36.5609756,30.5954878 L37.902439,30.5954878 C38.2726829,30.5954878 38.5731707,30.8959756 38.5731707,31.2662195 L38.5731707,40.6564634 C38.5731707,41.0267073 38.2726829,41.3271951 37.902439,41.3271951 Z M32.5365854,48.0345122 L31.195122,48.0345122 C30.824878,48.0345122 30.5243902,47.7340244 30.5243902,47.3637805 L30.5243902,35.2906098 C30.5243902,34.9203659 30.824878,34.619878 31.195122,34.619878 L32.5365854,34.619878 C32.9068293,34.619878 33.2073171,34.9203659 33.2073171,35.2906098 L33.2073171,47.3637805 C33.2073171,47.7340244 32.9068293,48.0345122 32.5365854,48.0345122 Z M27.1707317,38.6442683 L25.8292683,38.6442683 C25.4590244,38.6442683 25.1585366,38.3437805 25.1585366,37.9735366 L25.1585366,31.2662195 C25.1585366,30.8959756 25.4590244,30.5954878 25.8292683,30.5954878 L27.1707317,30.5954878 C27.5409756,30.5954878 27.8414634,30.8959756 27.8414634,31.2662195 L27.8414634,37.9735366 C27.8414634,38.3437805 27.5409756,38.6442683 27.1707317,38.6442683 Z M21.804878,41.3271951 L20.4634146,41.3271951 C20.0931707,41.3271951 19.7926829,41.0267073 19.7926829,40.6564634 L19.7926829,35.2906098 C19.7926829,34.9203659 20.0931707,34.619878 20.4634146,34.619878 L21.804878,34.619878 C22.175122,34.619878 22.4756098,34.9203659 22.4756098,35.2906098 L22.4756098,40.6564634 C22.4756098,41.0267073 22.175122,41.3271951 21.804878,41.3271951 Z M16.4390244,41.3271951 L15.097561,41.3271951 C14.7273171,41.3271951 14.4268293,41.0267073 14.4268293,40.6564634 L14.4268293,28.5832927 C14.4268293,28.2130488 14.7273171,27.912561 15.097561,27.912561 L16.4390244,27.912561 C16.8092683,27.912561 17.1097561,28.2130488 17.1097561,28.5832927 L17.1097561,40.6564634 C17.1097561,41.0267073 16.8092683,41.3271951 16.4390244,41.3271951 Z M11.0731707,46.6930488 L9.73170732,46.6930488 C9.36146341,46.6930488 9.06097561,46.392561 9.06097561,46.0223171 L9.06097561,37.9735366 C9.06097561,37.6032927 9.36146341,37.3028049 9.73170732,37.3028049 L11.0731707,37.3028049 C11.4434146,37.3028049 11.7439024,37.6032927 11.7439024,37.9735366 L11.7439024,46.0223171 C11.7439024,46.392561 11.4434146,46.6930488 11.0731707,46.6930488 Z" id="Shape" fill="#5387CE"></path>
                <path d="M30.1802439,15.4979268 L28.8414634,15.4979268 C29.4504878,10.5318293 32.0502439,6.10768293 32.0502439,6.10768293 L27.5,6.10768293 L27.5,4.76621951 L34.2073171,4.76621951 L34.2073171,5.45036585 C32.0717073,8.26743902 30.8107317,11.735122 30.1802439,15.4979268 Z M22.1341463,16.8393902 L24.8170732,3.4247561 L26.1585366,3.4247561 L23.4756098,16.8393902 L22.1341463,16.8393902 Z M19.4512195,15.4979268 L18.1097561,15.4979268 L18.1097561,12.815 L12.7439024,12.815 L12.7439024,11.6023171 L18.1097561,4.76621951 L19.4512195,4.76621951 L19.4512195,11.4735366 L20.7926829,11.312561 L20.7926829,12.8968293 L19.4512195,12.8163415 L19.4512195,15.4979268 Z M18.1097561,6.52621951 L14.502561,11.4735366 L18.1097561,11.4735366 L18.1097561,6.52621951 Z M10.0609756,7.44914634 C10.0609756,6.4645122 8.15207317,6.10768293 7.37804878,6.10768293 C6.39878049,6.10768293 6.1854878,6.75158537 5.48390244,7.12182927 L5.01573171,5.62073171 C5.8045122,5.20085366 6.9152439,4.76487805 8.23121951,4.76487805 C10.3064634,4.76487805 11.402439,5.83402439 11.402439,7.44780488 C11.0979268,11.1703659 6.87634146,10.7478049 6.36658537,14.1403659 C6.87634146,14.2141463 11.402439,14.155122 11.402439,14.155122 L11.402439,15.4965854 L4.69512195,15.4965854 C5.0895122,10.1562195 10.0609756,9.69207317 10.0609756,7.44914634 Z" id="Shape" fill="#CCE1F4"></path>
            </g>
        </g>
    </g>
</svg>