<?xml version="1.0" encoding="UTF-8"?>
<svg width="63px" height="64px" viewBox="0 0 63 64" version="1.1" xmlns="http://www.w3.org/2000/svg" xmlns:xlink="http://www.w3.org/1999/xlink">
    <g id="Master" stroke="none" stroke-width="1" fill="none" fill-rule="evenodd">
        <g id="Group-35" transform="translate(0.000000, -3.000000)">
            <rect id="Rectangle-29-Copy-2" x="0" y="0" width="70" height="70"></rect>
            <g id="Group" transform="translate(0.000000, 3.000000)">
                <path d="M31.6215789,8.28947368 C44.4404211,8.28947368 54.8321053,18.6811579 54.8321053,31.5 C54.8321053,44.3188421 44.4404211,54.7105263 31.6215789,54.7105263 C18.8027368,54.7105263 8.41105263,44.3188421 8.41105263,31.5 C8.41105263,18.6811579 18.8027368,8.28947368 31.6215789,8.28947368 Z" id="Shape" fill="#CCE1F4"></path>
                <path d="M44.7794737,41.5693864 C50.8168159,41.5693864 55.7100873,46.4626578 55.7100873,52.5 C55.7100873,58.5373422 50.8168159,63.4306136 44.7794737,63.4306136 C38.743346,63.4306136 33.8488601,58.5373422 33.8488601,52.5 C33.8488601,46.4626578 38.7421314,41.5693864 44.7794737,41.5693864 Z" id="Shape" fill="#1658BD"></path>
                <path d="M52.5176842,32.5378421 L48.636,32.5378421 C48.006,32.5378421 47.4942632,32.0294211 47.4942632,31.4016316 C47.4942632,30.7738421 48.0048947,30.2654211 48.636,30.2654211 L52.0777895,30.2654211 C52.2546316,30.3052105 52.4381053,30.3195789 52.6215789,30.3394737 L52.6215789,32.6052632 L52.5110526,32.6052632 C52.5121579,32.5831579 52.5165789,32.5610526 52.5176842,32.5378421 Z M43.6523684,20.5578947 C43.3605789,20.5578947 43.0676842,20.4473684 42.8455263,20.2252105 C42.4001053,19.7808947 42.4001053,19.0613684 42.8455263,18.6181579 L45.2251579,16.2484737 C45.7424211,16.8077368 46.3713158,17.2675263 47.0919474,17.6046316 L44.4603158,20.2252105 C44.2359474,20.4473684 43.9441579,20.5578947 43.6523684,20.5578947 Z M34.2277895,27.9797368 C34.3128947,28.035 34.398,28.0891579 34.4808947,28.1499474 C34.6356316,28.2615789 34.776,28.4019474 34.8876316,28.5555789 C35.9763158,30.0476842 36.1719474,31.8293684 35.4093158,33.3203684 C34.6798421,34.7472632 33.2286316,35.6325789 31.6215789,35.6325789 C30.6356842,35.6325789 29.6475789,35.2943684 28.7622632,34.6533158 C28.6075263,34.5416842 28.4682632,34.4024211 28.3566316,34.2498947 C27.2668421,32.7566842 27.0712105,30.975 27.8338421,29.484 C28.5633158,28.0571053 30.0145263,27.1717895 31.6215789,27.1717895 C31.7752105,27.1717895 31.9288421,27.1828421 32.0824737,27.1994211 L35.3805789,19.0005789 C35.6148947,18.4181053 36.2791579,18.1340526 36.8649474,18.3683684 C37.4496316,18.6015789 37.7347895,19.2636316 37.5004737,19.8461053 L34.2277895,27.9797368 Z M33.0805263,29.9471053 C32.8661053,29.7978947 32.6483684,29.6829474 32.4317368,29.6000526 C32.4063158,29.5923158 32.382,29.5834737 32.3565789,29.5746316 C32.3488421,29.5713158 32.3411053,29.5668947 32.3333684,29.5646842 C32.0957368,29.4851053 31.8581053,29.4442105 31.6215789,29.4442105 C30.8777368,29.4442105 30.2057368,29.8542632 29.8686316,30.5152105 C29.5072105,31.2225789 29.6144211,32.0714211 30.1626316,32.8550526 C30.6434211,33.1899474 31.1341579,33.3590526 31.6215789,33.3590526 C32.3654211,33.3590526 33.0374211,32.949 33.3745263,32.2880526 C33.7359474,31.5806842 33.6287368,30.7307368 33.0805263,29.9471053 Z M32.7633158,14.4601579 C32.7633158,15.0879474 32.2526842,15.5963684 31.6215789,15.5963684 C30.9915789,15.5963684 30.4798421,15.0879474 30.4798421,14.4601579 L30.4798421,10.5950526 C30.4511053,10.5961579 30.4234737,10.6027895 30.3947368,10.605 C30.4068947,10.5696316 30.4278947,10.5375789 30.4389474,10.5011053 L33.0584211,10.5011053 C33.0761053,10.5442105 33.0982105,10.5851053 33.117,10.6282105 C32.9987368,10.6193684 32.8826842,10.6016842 32.7633158,10.5961579 L32.7633158,14.4601579 Z M17.6453831,46.7961487 C17.6453831,46.7961487 16.6348234,45.6517 16.1810526,45.1687895 L18.7839474,42.5769474 C19.2293684,42.1337368 19.9522105,42.1337368 20.3987368,42.5769474 C20.8441579,43.0212632 20.8441579,43.7407895 20.3987368,44.184 C18.5631677,45.9254325 17.6453831,46.7961487 17.6453831,46.7961487 Z M19.5907895,20.5578947 C19.299,20.5578947 19.0061053,20.4473684 18.7839474,20.2252105 L16.4573684,17.9085789 C17.1647368,17.5725789 17.7328421,17.0000526 18.0566842,16.2860526 L20.3976316,18.6170526 C20.8430526,19.0613684 20.8430526,19.7808947 20.3976316,20.2241053 C20.1754737,20.4473684 19.8825789,20.5578947 19.5907895,20.5578947 Z M10.6215789,30.3383684 C10.7553158,30.3195789 10.8857368,30.2963684 11.0150526,30.2643158 L14.6071579,30.2643158 C15.2371579,30.2643158 15.7488947,30.7727368 15.7488947,31.4005263 C15.7488947,32.0283158 15.2382632,32.5367368 14.6071579,32.5367368 L10.6215789,32.5378421 L10.6215789,30.3383684 Z" id="Shape" fill="#5387CE"></path>
                <path d="M57.9568641,42.9523244 C59.4953532,39.4446883 60.3595263,35.5763817 60.3595263,31.5 C60.3595263,15.6295263 47.4931579,2.76315789 31.6226842,2.76315789 C15.7522105,2.76315789 2.88584211,15.6295263 2.88584211,31.5 C2.88584211,46.5174946 14.406338,58.8451251 29.0913116,60.1268734 C29.9254039,60.1996755 30.206309,62.4233926 29.5072857,62.3762053 C13.4021364,61.2890343 0.675315789,47.8808019 0.675315789,31.5 C0.675315789,14.4082105 14.5308947,0.552631579 31.6226842,0.552631579 C48.7144737,0.552631579 62.5700526,14.4082105 62.5700526,31.5 C62.5692114,36.2000703 61.5093086,40.6472209 59.6291485,44.6328636 C59.0390931,45.8836879 57.4096367,44.1999606 57.9568641,42.9523244 Z" id="Shape" fill="#1658BD"></path>
                <path d="M48.0952632,54.2242105 C48.0952632,55.2863684 47.3547368,56.3993684 45.8847368,56.7762632 L45.8847368,58.5789474 C45.8847368,58.884 45.6371579,59.1315789 45.3321053,59.1315789 L43.8938037,59.1315789 C43.5887511,59.1315789 43.3411721,58.884 43.3411721,58.5789474 L43.3411721,56.9210526 L41.4636842,56.9210526 L41.4636842,48.0789474 L43.3411721,48.0789474 L43.3411721,46.4210526 C43.3411721,46.116 43.5887511,45.8684211 43.8938037,45.8684211 L45.3321053,45.8684211 C45.6371579,45.8684211 45.8847368,46.116 45.8847368,46.4210526 L45.8847368,48.2867368 C46.9557368,48.6625263 47.452,49.4936842 47.452,50.3193158 C47.452,50.9902105 47.1027368,51.702 46.4031053,52.0766842 C47.5216316,52.3994211 48.0952632,53.2582105 48.0952632,54.2242105 Z M44.1914737,49.7567368 L43.6034737,49.7567368 L43.6034737,51.6213158 L44.2467368,51.6213158 C44.9883684,51.6213158 45.3663684,51.1924737 45.3663684,50.7083684 C45.3674737,50.1855789 44.9894737,49.7567368 44.1914737,49.7567368 Z M44.6811053,53.2847368 L43.6034737,53.2847368 L43.6034737,55.2565263 L44.4843684,55.2565263 C45.5056316,55.2565263 45.9532632,54.9216316 45.9532632,54.2098421 C45.9543684,53.6207368 45.4791053,53.2847368 44.6811053,53.2847368 Z" id="Shape" fill="#CCE1F4"></path>
            </g>
        </g>
    </g>
</svg>