<?xml version="1.0" encoding="UTF-8"?>
<svg width="56px" height="58px" viewBox="0 0 56 58" version="1.1" xmlns="http://www.w3.org/2000/svg" xmlns:xlink="http://www.w3.org/1999/xlink">
    <g id="Master" stroke="none" stroke-width="1" fill="none" fill-rule="evenodd">
        <g id="Group-38" transform="translate(-1.000000, -6.000000)">
            <rect id="Rectangle-29-Copy-5" x="0" y="0" width="70" height="70"></rect>
            <g id="_x33__1_" transform="translate(1.000000, 6.000000)">
                <path d="M53.3509919,53.3755326 L49.1111177,53.3755326 L49.1111177,56.1555082 C49.1111177,57.0773481 48.3988188,57.8234936 47.5211649,57.8234936 L44.3412592,57.8234936 C43.4636053,57.8234936 42.7513064,57.0762362 42.7513064,56.1555082 L42.7513064,53.3755326 L13.0721872,53.3755326 L13.0721872,56.1555082 C13.0721872,57.0773481 12.3598883,57.8234936 11.4822344,57.8234936 L8.30232874,57.8234936 C7.42467478,57.8234936 6.71237592,57.0762362 6.71237592,56.1555082 L6.71237592,53.3755326 L2.47250174,53.3755326 C1.30229647,53.3755326 0.352564655,52.3803013 0.352564655,51.151552 L0.352564655,2.22398052 C0.352564655,0.995231284 1.3012365,0 2.47250174,0 L53.3509919,0 C54.5211971,0 55.470929,0.995231284 55.470929,2.22398052 L55.470929,51.151552 C55.470929,52.3791893 54.5211971,53.3755326 53.3509919,53.3755326 Z" id="Shape" fill="#CCE1F4"></path>
                <path d="M10.0014999,7 L46.0284988,7 C47.1343276,7 48.0299988,7.99523128 48.0299988,9.22398052 L48.0299988,44.8076689 C48.0299988,46.0364181 47.1343276,47.0316494 46.0284988,47.0316494 L10.0014999,47.0316494 C8.89567122,47.0316494 8,46.0364181 8,44.8076689 L8,9.22398052 C8,7.99523128 8.89567122,7 10.0014999,7 Z" id="Shape" fill="#B2CDEC"></path>
                <path d="M39.6629598,27.85758 L37.929367,27.85758 C37.7158649,29.7868831 36.9530396,31.5482757 35.8010177,32.9883031 L37.0286549,34.2159404 C37.245493,34.4327785 37.245493,34.7852794 37.0286549,35.0021175 L36.2424778,35.7882946 C36.0256397,36.0051327 35.6731388,36.0051327 35.4563007,35.7882946 L34.2286634,34.5606573 C32.789748,35.7115673 31.0272435,36.4743926 29.0979404,36.6878947 L29.0979404,38.4214875 C29.0979404,38.7283968 28.8488545,38.9774827 28.5419452,38.9774827 L27.429955,38.9774827 C27.1230456,38.9774827 26.8739598,38.7283968 26.8739598,38.4214875 L26.8739598,36.6878947 C24.9446567,36.4743926 23.1832642,35.7115673 21.7432368,34.5606573 L20.5155995,35.7882946 C20.2987614,36.0051327 19.9462605,36.0051327 19.7294224,35.7882946 L18.9432453,35.0021175 C18.7264072,34.7852794 18.7264072,34.4327785 18.9432453,34.2159404 L20.1708825,32.9883031 C19.0199726,31.5493877 18.2571473,29.7879951 18.0425332,27.85758 L16.3089404,27.85758 C16.002031,27.85758 15.7529452,27.6084942 15.7529452,27.3015849 L15.7529452,26.1895946 C15.7529452,25.8826853 16.002031,25.6335995 16.3089404,25.6335995 L18.0425332,25.6335995 C18.2560353,23.7042964 19.0188606,21.9429038 20.1708825,20.5028764 L18.9432453,19.2752392 C18.7264072,19.0584011 18.7264072,18.7059002 18.9432453,18.4890621 L19.7294224,17.702885 C19.9462605,17.4860469 20.2987614,17.4860469 20.5155995,17.702885 L21.7432368,18.9305222 C23.1821522,17.7796123 24.9435447,17.016787 26.8739598,16.8032848 L26.8739598,15.069692 C26.8739598,14.7627827 27.1230456,14.5136969 27.429955,14.5136969 L28.5419452,14.5136969 C28.8488545,14.5136969 29.0979404,14.7627827 29.0979404,15.069692 L29.0979404,16.8032848 C31.0272435,17.016787 32.788636,17.7796123 34.2286634,18.9305222 L35.4563007,17.702885 C35.6731388,17.4860469 36.0256397,17.4860469 36.2424778,17.702885 L37.0286549,18.4890621 C37.245493,18.7059002 37.245493,19.0584011 37.0286549,19.2752392 L35.8010177,20.5028764 C36.9519276,21.9417918 37.7147529,23.7031844 37.929367,25.6335995 L39.6629598,25.6335995 C39.9698691,25.6335995 40.218955,25.8826853 40.218955,26.1895946 L40.218955,27.3015849 C40.218955,27.6084942 39.9698691,27.85758 39.6629598,27.85758 Z M27.9870621,24.5216093 C26.7583128,24.5216093 25.7630816,25.5168405 25.7630816,26.7455898 C25.7630816,27.974339 26.7583128,28.9695703 27.9870621,28.9695703 C29.2146993,28.9695703 30.2110426,27.974339 30.2110426,26.7455898 C30.2110426,25.5168405 29.2146993,24.5216093 27.9870621,24.5216093 Z" id="Shape" fill="#1658BD"></path>
                <path d="M10.0832276,27.85758 L5.63526659,27.85758 C5.02144796,27.85758 4.52327632,27.3594084 4.52327632,26.7455898 C4.52327632,26.1317712 5.02144796,25.6335995 5.63526659,25.6335995 L10.0832276,25.6335995 C10.6970463,25.6335995 11.1952179,26.1317712 11.1952179,26.7455898 C11.1952179,27.3594084 10.6970463,27.85758 10.0832276,27.85758 Z M10.0832276,15.6256872 L5.63526659,15.6256872 C5.02144796,15.6256872 4.52327632,15.1275155 4.52327632,14.5136969 C4.52327632,13.8998783 5.02144796,13.4017066 5.63526659,13.4017066 L10.0832276,13.4017066 C10.6970463,13.4017066 11.1952179,13.8998783 11.1952179,14.5136969 C11.1952179,15.1275155 10.6970463,15.6256872 10.0832276,15.6256872 Z M5.63526659,37.8654924 L10.0832276,37.8654924 C10.6970463,37.8654924 11.1952179,38.363664 11.1952179,38.9774827 C11.1952179,39.5913013 10.6970463,40.0894729 10.0832276,40.0894729 L5.63526659,40.0894729 C5.02144796,40.0894729 4.52327632,39.5913013 4.52327632,38.9774827 C4.52327632,38.363664 5.02144796,37.8654924 5.63526659,37.8654924 Z" id="Shape" fill="#5387CE"></path>
            </g>
        </g>
    </g>
</svg>