<?xml version="1.0" encoding="UTF-8"?>
<svg width="55px" height="59px" viewBox="0 0 55 59" version="1.1" xmlns="http://www.w3.org/2000/svg" xmlns:xlink="http://www.w3.org/1999/xlink">
    <g id="Master" stroke="none" stroke-width="1" fill="none" fill-rule="evenodd">
        <g id="Group-36" transform="translate(-3.000000, -3.000000)">
            <rect id="Rectangle-29-Copy-3" x="0" y="0" width="70" height="70"></rect>
            <g id="_x31__3_" transform="translate(3.000000, 3.000000)">
                <g id="Group-39" transform="translate(0.609109, 0.000000)">
                    <polygon id="Shape" fill="#CCE1F4" fill-rule="nonzero" points="42.013398 16.1356536 25.8877371 0.00999272282 0.00221508781 0.00999272282 0.00221508781 54.1823075 42.013398 54.1823075"></polygon>
                    <polygon id="Shape" fill="#5387CE" fill-rule="nonzero" points="25.982815 0.00999272282 25.982815 16.0405757 42.013398 16.0405757"></polygon>
                    <path d="M33.1689384,23.226699 L7.74111719,23.226699 C7.13084949,23.226699 6.63555975,22.7314093 6.63555975,22.1211416 C6.63555975,21.5108739 7.13084949,21.0155842 7.74111719,21.0155842 L33.1689384,21.0155842 C33.7792061,21.0155842 34.2744958,21.5108739 34.2744958,22.1211416 C34.2744958,22.7314093 33.7792061,23.226699 33.1689384,23.226699 Z M16.5855767,16.5933544 L7.74111719,16.5933544 C7.13084949,16.5933544 6.63555975,16.0980646 6.63555975,15.4877969 C6.63555975,14.8775292 7.13084949,14.3822395 7.74111719,14.3822395 L16.5855767,14.3822395 C17.1958445,14.3822395 17.6911342,14.8775292 17.6911342,15.4877969 C17.6911342,16.0980646 17.1958445,16.5933544 16.5855767,16.5933544 Z M7.74111719,27.6489288 L28.7467086,27.6489288 C29.3569763,27.6489288 29.8522661,28.1442186 29.8522661,28.7544863 C29.8522661,29.364754 29.3569763,29.8600437 28.7467086,29.8600437 L7.74111719,29.8600437 C7.13084949,29.8600437 6.63555975,29.364754 6.63555975,28.7544863 C6.63555975,28.1442186 7.13084949,27.6489288 7.74111719,27.6489288 Z M7.74111719,34.2822735 L24.3244789,34.2822735 C24.9347466,34.2822735 25.4300363,34.7775632 25.4300363,35.3878309 C25.4300363,35.9980986 24.9347466,36.4933884 24.3244789,36.4933884 L7.74111719,36.4933884 C7.13084949,36.4933884 6.63555975,35.9980986 6.63555975,35.3878309 C6.63555975,34.7775632 7.13084949,34.2822735 7.74111719,34.2822735 Z M7.74111719,40.9156181 L21.0078065,40.9156181 C21.6180742,40.9156181 22.113364,41.4109079 22.113364,42.0211756 C22.113364,42.6314433 21.6180742,43.126733 21.0078065,43.126733 L7.74111719,43.126733 C7.13084949,43.126733 6.63555975,42.6314433 6.63555975,42.0211756 C6.63555975,41.4109079 7.13084949,40.9156181 7.74111719,40.9156181 Z" id="Shape" fill="#5387CE"></path>
                </g>
                <path d="M41.7900504,33.267487 C48.8213064,33.267487 54.5207368,38.9669174 54.5207368,45.9981734 C54.5207368,53.0294295 48.8213064,58.7288598 41.7900504,58.7288598 C34.7587944,58.7288598 29.059364,53.0294295 29.059364,45.9981734 C29.059364,38.9669174 34.7597736,33.267487 41.7900504,33.267487 Z" id="Shape" fill="#1658BD"></path>
                <path d="M46.525807,40.8352072 L40.4271718,49.5973636 L36.1234708,46.0641657 C35.6592073,45.6816388 34.9715306,45.7502974 34.5900935,46.2156508 C34.2075665,46.6810041 34.2751354,47.367591 34.7415785,47.7490281 L39.9574592,52.0309326 C40.1536268,52.1911363 40.3977466,52.2783219 40.6484053,52.2783219 C40.6974472,52.2783219 40.747579,52.2750524 40.7977107,52.2685135 C41.0985012,52.2260105 41.3687766,52.0614476 41.5431479,51.8118787 L48.3152921,42.080872 C48.6585856,41.5871834 48.5376155,40.9071354 48.042837,40.563842 C47.5480585,40.2183689 46.8701902,40.3415186 46.525807,40.8352072 Z" id="Shape" fill="#CCE1F4" fill-rule="nonzero"></path>
            </g>
        </g>
    </g>
</svg>