<?xml version="1.0" encoding="UTF-8"?>
<svg width="63px" height="50px" viewBox="0 0 63 50" version="1.1" xmlns="http://www.w3.org/2000/svg" xmlns:xlink="http://www.w3.org/1999/xlink">
    <g id="Master" stroke="none" stroke-width="1" fill="none" fill-rule="evenodd">
        <g id="Group-37" transform="translate(0.000000, -9.000000)">
            <rect id="Rectangle-29-Copy-4" x="0" y="0" width="70" height="70"></rect>
            <g id="_x32__1_" transform="translate(0.000000, 9.000000)">
                <path d="M44.5830422,8.40490049 L48.982834,4.2045431 L59.5425238,21.0059727 C59.5425238,21.0059727 54.7232984,22.9355838 52.5030462,25.2063301 C48.9080366,28.883474 46.3431483,34.656611 46.3431483,34.656611 C45.4133881,33.6394841 42.8958399,30.6571675 41.825953,31.5403518 C40.5771203,32.6234036 40.2485798,34.713118 41.1594039,36.2095084 L41.206744,36.3549618 C40.2675158,35.6172308 39.0660233,35.5397953 38.1173271,36.2995011 C37.2244922,37.059207 36.8306223,38.2657372 37.0086212,39.4387817 L36.7084847,39.6962027 C35.872458,39.1708964 34.8404432,39.1708964 34.0044164,39.863631 C33.2346659,40.500905 32.840796,41.6289531 32.9061254,42.6565443 L32.0795667,43.2823075 C29.3953812,43.9394636 29.6226139,47.259776 29.6226139,47.259776 C29.3783388,47.5161506 28.1456018,46.7794661 27.80854,46.6894734 C27.4705315,46.6005271 27.132523,46.3765918 26.916652,46.0197602 C26.700781,45.7288535 26.6070475,45.2485436 26.6818449,44.8467157 C26.7566423,44.4448878 26.945056,44.0420134 27.2451925,43.7856389 L31.7235689,39.7746847 C31.958376,39.584235 32.0899815,39.3163498 32.0994495,38.9814932 C32.3257354,38.3745656 31.5853357,38.6298938 31.3836668,38.8590612 L25.2237688,44.1100312 C24.1018077,45.2757507 22.6172212,44.6688231 22.1106818,44.5683661 C21.6041424,44.4679092 21.1534643,44.1665382 20.8902532,43.6747176 C20.2985016,42.7475834 20.4774473,41.3286286 21.3125272,40.635894 L29.8375381,33.3967131 C31.1005728,32.0436831 29.4228385,32.7144427 29.6245075,32.5585251 C29.8261764,32.403654 23.1237606,38.1726052 20.2057149,40.0697771 C19.5249638,40.5124157 18.5857356,40.2623196 18.4882149,40.2508089 C17.7307728,40.1660484 16.9932136,39.7642205 16.6750879,39.2608891 C16.1401444,38.3452656 16.2528139,37.1157141 16.919363,36.3455439 L17.7553897,35.6528094 L27.0312151,28.1237681 C27.2660221,27.9343649 27.3976277,27.6654332 27.4070957,27.3305766 C27.4771591,26.5583136 26.7121426,26.8785202 26.1052421,27.3086016 L15.5455524,35.7093164 C14.7663338,36.4135617 12.9115475,35.9667374 12.3292638,34.9715855 C11.7375122,34.0444513 11.9164579,32.6254965 12.7515378,31.9327619 L31.4811874,15.522696 C32.1032368,14.9094898 33.0121673,12.7925683 33.1371452,9.73804831 L41.0211707,9.73804831 C41.9509309,9.73595545 43.7848876,8.9741567 44.5830422,8.40490049 Z" id="Shape" fill="#93BDE6" fill-rule="nonzero"></path>
                <path d="M47.0362078,40.5438085 C46.2674041,41.1779431 45.2884102,41.2668894 44.4514366,40.8954079 L40.6661197,34.619986 C40.5714395,33.4626379 40.9823518,32.2728506 41.825953,31.5403518 C42.8958399,30.658214 44.3794796,30.8141316 45.3092398,31.8312585 L46.3696588,33.6070449 L47.7027569,35.8746518 C48.6126342,37.3710422 48.2840937,39.4607567 47.0362078,40.5438085 Z M39.609488,24.7699701 C38.2195817,25.5966473 35.9292662,25.5411867 34.0886819,18.6818586 C34.0886819,18.6818586 32.9809228,16.5701692 31.478347,15.5206031 L12.7486974,31.930669 L12.2790833,29.6180657 C11.4998647,27.7083367 10.2510321,26.1324178 8.68312691,25.1163374 L7.62176117,24.4236028 L2.3414429,19.9553601 L15.5408184,6.30367537 L17.854804,7.68914452 C19.1879021,8.41536476 20.6904779,8.58279306 22.0983734,8.13596879 C23.1199734,7.80739076 24.5969855,7.81471575 26.1241781,7.79901934 C27.4023617,7.7854158 28.657822,7.67554098 30.2664397,8.10248313 C30.4349705,8.18096515 30.8856486,8.33688275 31.4489961,8.58279306 L35.2418875,10.771918 C37.0824718,11.9114769 38.7346424,13.3074103 39.2506498,14.6374188 C39.2506498,14.6374188 39.6729238,19.7649104 40.405749,22.4123704 C40.6613857,23.3290403 40.3328452,24.3461672 39.609488,24.7699701 Z M31.9763652,43.2655647 L34.6264658,47.6595111 C34.5147431,48.3909634 34.2041918,49.083698 33.6853439,49.5263366 C32.615457,50.4084744 31.0750091,50.1071035 30.3336626,48.833602 L29.9113887,48.1293567 L29.8555273,48.1293567 C29.3130094,47.267101 29.2079143,46.0961494 29.2079143,46.0961494 C29.1889783,45.2140115 29.5743269,44.2753666 30.231408,43.705064 C30.7370006,43.2927718 31.3836668,43.1316221 31.9763652,43.2655647 Z M32.7385413,42.7821155 L32.9061254,42.6544514 C32.840796,41.6268603 33.2346659,40.4988121 34.0044164,39.8615382 C34.6406678,39.334139 35.3886419,39.2127535 36.0798078,39.4136675 L39.3623725,44.8561335 C39.2913623,45.9381389 38.7630464,46.9699158 37.8067758,47.4355757 C36.9726427,47.8436822 36.0551909,47.6762539 35.3413017,47.0975799 L32.7385413,42.7821155 Z M38.0605189,36.365426 L38.1173271,36.2984547 C38.8151206,35.7396628 39.6502005,35.6371129 40.3943874,35.9154625 L43.8256001,41.6048853 C43.840749,42.5885265 43.4743363,43.5627499 42.7452983,44.163399 L42.689437,44.2303703 C41.9461969,44.8435764 41.0060219,44.9115942 40.2107077,44.5170912 L37.0019936,39.1970571 C36.9073133,38.1024946 37.2822471,37.0110714 38.0605189,36.365426 Z" id="Shape" fill="#CCE1F4"></path>
                <path d="M62.083742,21.7123108 L59.3872481,24.4120921 C58.6430613,25.1581944 57.5324618,25.042041 56.907572,24.1536246 L44.4637451,6.45645369 C43.8388553,5.56803729 43.936376,4.24326089 44.6805629,3.49820497 L47.3770568,0.79842369 C48.1212436,0.0533677696 49.2318431,0.168474724 49.8567329,1.05689112 L62.3005598,18.7540621 C62.9254496,19.6414321 62.8288757,20.9662085 62.083742,21.7123108 Z M5.85786787,24.1536246 C5.23297813,25.042041 4.12332545,25.1581944 3.37819178,24.4120921 L0.681697893,21.7123108 C-0.0624889735,20.9672549 -0.160009644,19.6424785 0.464880091,18.7540621 L14.1167089,2.31429767 C14.7415987,1.42588127 15.8512514,1.30972789 16.596385,2.05583023 L19.2928789,4.75561152 C20.0370658,5.50066744 20.1345865,6.82544383 19.5096967,7.71386023 L5.85786787,24.1536246 Z" id="Shape" fill="#1658BD"></path>
            </g>
        </g>
    </g>
</svg>